<?xml version="1.0" encoding="utf-8"?>
<!-- Generator: Adobe Illustrator 16.0.4, SVG Export Plug-In . SVG Version: 6.00 Build 0)  -->
<!DOCTYPE svg PUBLIC "-//W3C//DTD SVG 1.1//EN" "http://www.w3.org/Graphics/SVG/1.1/DTD/svg11.dtd">
<svg version="1.1" id="Layer_1" xmlns="http://www.w3.org/2000/svg" xmlns:xlink="http://www.w3.org/1999/xlink" x="0px" y="0px"
	 width="50px" height="50px" viewBox="70 0 50 50" enable-background="new 70 0 50 50" xml:space="preserve">
<title>20organic</title>
<g>
	<path fill="#22BCA7" d="M90.154,37.075c0-0.293-0.094-0.412-0.326-0.412h-0.301v0.024v1.236h0.25
		c0.193,0.02,0.365-0.122,0.385-0.314c0.002-0.039,0-0.077-0.008-0.114V37.075L90.154,37.075z"/>
	<polygon fill="#22BCA7" points="94.938,38.844 95.547,38.844 95.236,36.799 	"/>
	<path fill="#22BCA7" d="M85.525,36.662h-0.301v1.365h0.301c0.205,0,0.309-0.094,0.309-0.377v-0.61
		C85.836,36.748,85.725,36.662,85.525,36.662z"/>
	<path fill="#22BCA7" d="M98.656,19.523c0.078,0.369,0.219,0.723,0.412,1.047c0.213,0.392,0.705,0.535,1.094,0.322
		c0.137-0.074,0.248-0.186,0.322-0.322c0.192-0.324,0.332-0.678,0.412-1.047c0.104-0.451,0.172-0.912,0.194-1.375
		c0.035-0.498,0.054-0.969,0.054-1.416h-0.008c0-0.437-0.017-0.901-0.044-1.4c-0.026-0.465-0.092-0.928-0.196-1.382
		c-0.08-0.372-0.219-0.729-0.412-1.056c-0.213-0.392-0.703-0.535-1.096-0.321c-0.136,0.073-0.246,0.186-0.32,0.321
		c-0.193,0.328-0.334,0.686-0.412,1.056c-0.105,0.454-0.172,0.917-0.197,1.382c-0.029,0.499-0.043,0.964-0.043,1.4
		c0,0.436,0.014,0.908,0.043,1.416C98.484,18.611,98.551,19.072,98.656,19.523z"/>
	<path fill="#22BCA7" d="M97.961,37.075c0-0.293-0.096-0.412-0.326-0.412h-0.318l0.019,0.024v1.236h0.248
		c0.194,0.02,0.367-0.122,0.385-0.314c0.005-0.039,0.003-0.077-0.006-0.114L97.961,37.075L97.961,37.075z"/>
	<path fill="#22BCA7" d="M94.311,29.98c-0.235-0.049-0.467,0.105-0.516,0.343c-0.012,0.058-0.012,0.116,0,0.173v2.875
		c-0.047,0.238,0.105,0.469,0.342,0.518s0.469-0.105,0.516-0.344c0.013-0.056,0.013-0.115,0-0.172v-2.876
		C94.701,30.26,94.549,30.027,94.311,29.98z"/>
	<polygon fill="#22BCA7" points="88.541,30.195 88.137,32.885 88.943,32.885 	"/>
	<path fill="#22BCA7" d="M97.668,30.582c0-0.377-0.129-0.549-0.43-0.549h-0.396l0.009,0.009v1.631h0.317
		c0.256,0.025,0.481-0.159,0.508-0.414c0.007-0.052,0.003-0.103-0.01-0.151L97.668,30.582L97.668,30.582z"/>
	<path fill="#22BCA7" d="M100.34,5.473l-5.348-2.619L89.65,5.473l-9.205,2.465v34.125l10.174,2.936l4.373,2.148l4.387-2.148
		l10.176-2.936V7.938L100.34,5.473z M95.623,14.396c0.104-0.771,0.32-1.525,0.645-2.232c0.299-0.658,0.754-1.232,1.324-1.675
		c0.625-0.446,1.385-0.673,2.154-0.644c0.783-0.033,1.555,0.195,2.189,0.652c0.569,0.443,1.022,1.018,1.323,1.674
		c0.326,0.708,0.546,1.46,0.652,2.232c0.127,0.77,0.198,1.548,0.213,2.328c-0.002,0.778-0.062,1.557-0.181,2.328
		c-0.104,0.771-0.325,1.523-0.651,2.231c-0.299,0.657-0.752,1.231-1.321,1.674c-0.638,0.455-1.408,0.685-2.189,0.652
		c-0.783,0.034-1.555-0.196-2.189-0.652c-0.57-0.442-1.025-1.018-1.324-1.674c-0.324-0.707-0.541-1.46-0.645-2.231
		C95.4,17.514,95.4,15.943,95.623,14.396z M103.859,26.126v0.901H86.059v-0.901H103.859z M102.494,31.518v0.756h-1.15v1.556h1.441
		v0.756h-2.275v-5.323h2.275v0.764h-1.441v1.485v0.009h1.15V31.518z M99.926,29.277V34.6h-0.857v-5.322H99.926z M97.686,33.948
		V33.09c0-0.498-0.164-0.679-0.549-0.679h-0.293v2.165h-0.859v-5.325h1.265c0.584-0.097,1.138,0.299,1.231,0.884
		c0.021,0.11,0.021,0.225,0.004,0.336v0.422c0.062,0.439-0.159,0.871-0.551,1.082c0.412,0.217,0.64,0.674,0.56,1.133v0.857
		c-0.015,0.221,0.019,0.438,0.094,0.645h-0.858l0.035-0.008C97.693,34.393,97.666,34.169,97.686,33.948z M94.416,34.639
		c-0.072,0.01-0.145,0.012-0.219,0.006c-0.652,0.055-1.223-0.433-1.275-1.084c-0.006-0.086-0.006-0.17,0.006-0.256v-2.746h0.01
		c-0.092-0.646,0.353-1.24,0.996-1.334c0.09-0.014,0.185-0.017,0.275-0.008c0.646-0.045,1.209,0.445,1.252,1.094
		c0.008,0.082,0.004,0.164-0.008,0.246v2.766C95.529,33.973,95.066,34.561,94.416,34.639z M91.289,29.277v4.559h1.373v0.757H90.43
		v-5.315H91.289L91.289,29.277z M90.043,34.602h-0.859l-0.145-0.961h-1.014l-0.146,0.961h-0.766l0.859-5.324h1.221L90.043,34.602z
		 M87.158,10.852c0.789-0.675,1.803-1.029,2.842-0.998c0.559-0.006,1.115,0.09,1.641,0.283c0.461,0.174,0.881,0.439,1.236,0.782
		c0.348,0.349,0.617,0.767,0.789,1.229c0.195,0.516,0.295,1.062,0.293,1.613c0.002,0.41-0.057,0.817-0.172,1.211
		c-0.111,0.369-0.26,0.727-0.447,1.064c-0.186,0.337-0.4,0.662-0.635,0.97c-0.234,0.31-0.479,0.597-0.73,0.859l-2.465,2.851h4.295
		v2.576h-7.797v-2.609l4.01-4.611c0.299-0.357,0.547-0.754,0.738-1.176c0.178-0.351,0.273-0.733,0.283-1.125
		c0.01-0.351-0.084-0.695-0.273-0.988c-0.192-0.282-0.52-0.439-0.858-0.411c-0.339,0.007-0.654,0.168-0.859,0.438
		c-0.284,0.379-0.446,0.838-0.463,1.312l-2.801-0.258C85.84,12.721,86.332,11.643,87.158,10.852z M86.471,37.084v0.521
		c0.078,0.469-0.236,0.91-0.705,0.99c-0.078,0.014-0.16,0.016-0.24,0.006h-0.299v1.521H84.59v-4.037h0.936
		c0.474-0.053,0.898,0.284,0.951,0.757C86.486,36.923,86.484,37.003,86.471,37.084z M85.871,34.641
		c-0.096,0.014-0.197,0.017-0.293,0.004c-0.643,0.051-1.205-0.431-1.256-1.074c-0.006-0.088-0.002-0.176,0.01-0.266v-2.746
		c-0.096-0.64,0.342-1.233,0.979-1.33c0.09-0.016,0.178-0.019,0.269-0.012c0.642-0.074,1.221,0.385,1.295,1.025
		c0.013,0.105,0.013,0.211-0.006,0.312v0.518h-0.859v-0.576c0.05-0.236-0.104-0.469-0.342-0.516
		c-0.237-0.049-0.469,0.104-0.519,0.342c-0.012,0.058-0.012,0.115,0,0.173v2.876c-0.047,0.236,0.107,0.469,0.345,0.518
		c0.237,0.047,0.467-0.106,0.516-0.344c0.015-0.057,0.015-0.117,0-0.174v-0.754h0.859v0.703
		C86.955,33.96,86.51,34.551,85.871,34.641z M88.496,36.662h-1.088v1.124h0.857v0.575h-0.857v1.187h1.088v0.575h-1.715v-4.036h1.715
		V36.662z M90.223,40.157v-0.034c-0.053-0.161-0.072-0.329-0.061-0.498v-0.636c0-0.378-0.127-0.517-0.41-0.517h-0.225v1.641h-0.635
		v-4.035h0.953c0.473-0.045,0.891,0.303,0.936,0.773c0.006,0.051,0.006,0.103,0.002,0.152v0.318
		c0.062,0.345-0.104,0.691-0.412,0.859c0.301,0.172,0.469,0.514,0.42,0.857v0.627c-0.012,0.164,0.014,0.333,0.068,0.486h-0.637
		V40.157L90.223,40.157z M93.951,37.452h-0.604v-0.429c0.03-0.185-0.095-0.354-0.275-0.385c-0.184-0.029-0.355,0.096-0.385,0.276
		c-0.006,0.035-0.006,0.071,0,0.106v2.172c-0.029,0.184,0.096,0.354,0.276,0.386c0.185,0.028,0.354-0.095,0.384-0.278
		c0.008-0.035,0.008-0.07,0-0.105v-0.576h0.604v0.533c0,0.521-0.424,0.943-0.947,0.943c-0.521,0-0.943-0.423-0.943-0.943v-2.096
		c0-0.521,0.422-0.943,0.943-0.943c0.523,0,0.947,0.422,0.947,0.943V37.452z M95.744,40.123l-0.111-0.73h-0.771l-0.112,0.73h-0.584
		l0.646-4.036h0.928l0.652,4.036H95.744z M98.029,40.157v-0.034c-0.053-0.161-0.076-0.329-0.062-0.498v-0.636
		c0-0.378-0.129-0.517-0.411-0.517h-0.238v1.641h-0.637v-4.035h0.952c0.474-0.045,0.892,0.303,0.937,0.773
		c0.004,0.051,0.006,0.103,0,0.152v0.318c0.063,0.345-0.103,0.691-0.41,0.859c0.312,0.161,0.482,0.51,0.42,0.857v0.627
		c-0.014,0.164,0.012,0.333,0.068,0.486h-0.619V40.157L98.029,40.157z M100.775,36.662h-0.66v3.436H99.48v-3.436h-0.66v-0.575h1.957
		v0.575H100.775z M102.934,39.152c0,0.531-0.432,0.963-0.963,0.963c-0.529,0-0.961-0.43-0.961-0.963v-2.096
		c0-0.531,0.43-0.963,0.961-0.963s0.963,0.43,0.963,0.963V39.152z M105.354,40.123h-0.651l-0.789-2.902v2.92h-0.576v-4.037h0.8
		l0.651,2.412v-2.431h0.565V40.123L105.354,40.123z M104.572,34.705c-0.688,0.081-1.311-0.41-1.391-1.1
		c-0.013-0.098-0.013-0.195,0-0.293v-0.316h0.789v0.377c-0.048,0.236,0.104,0.469,0.344,0.516c0.235,0.049,0.467-0.104,0.516-0.342
		c0.012-0.057,0.012-0.117,0-0.174c0-1.089-1.631-1.297-1.631-2.814c-0.102-0.633,0.33-1.228,0.959-1.328
		c0.09-0.016,0.18-0.019,0.268-0.013c0.639-0.047,1.193,0.435,1.24,1.073c0.006,0.089,0.002,0.178-0.012,0.268v0.162h-0.756v-0.224
		c0-0.378-0.154-0.522-0.422-0.522c-0.267,0-0.437,0.146-0.437,0.522c0,1.091,1.629,1.297,1.629,2.815
		C105.752,34.001,105.26,34.624,104.572,34.705z"/>
	<path fill="#22BCA7" d="M102.02,36.63c-0.182-0.028-0.354,0.095-0.385,0.278c-0.006,0.035-0.006,0.07,0,0.105v2.182
		c-0.029,0.183,0.096,0.354,0.277,0.385c0.182,0.027,0.355-0.096,0.385-0.278c0.006-0.034,0.006-0.071,0-0.106v-2.182
		C102.328,36.831,102.201,36.66,102.02,36.63z"/>
</g>
<g>
	<path fill="#22BCA7" d="M24.998,47.355c-12.35,0-22.357-10.01-22.357-22.355c0-12.348,10.01-22.355,22.356-22.355
		c12.349-0.004,22.358,10.002,22.362,22.352c0.002,5.932-2.354,11.623-6.549,15.816C36.625,45.018,30.932,47.374,24.998,47.355z
		 M24.998,4.396c-11.361,0-20.571,9.209-20.571,20.569c0,11.361,9.21,20.571,20.571,20.571c11.348,0,20.551-9.189,20.57-20.537
		c-0.014-11.355-9.217-20.557-20.57-20.57V4.396z"/>
	<g>
		<path fill="#22BCA7" d="M13.48,14.302h1.963v6.302c-0.071,0.336,0.144,0.668,0.479,0.739c0.065,0.015,0.134,0.019,0.203,0.011
			c0.386-0.011,0.69-0.332,0.681-0.718c-0.002-0.043-0.007-0.085-0.016-0.125v-6.208h1.963v6.04c0,1.416-0.632,2.528-2.637,2.528
			c-1.686,0-2.629-0.792-2.629-2.528v-6.04L13.48,14.302L13.48,14.302z"/>
		<path fill="#22BCA7" d="M21.189,19.854v0.59c-0.086,0.406,0.177,0.804,0.582,0.888c0.062,0.015,0.127,0.019,0.192,0.015
			c0.397-0.033,0.695-0.381,0.664-0.779c-0.002-0.021-0.005-0.043-0.008-0.063c0-0.698-0.581-0.969-1.087-1.28
			c-0.551-0.279-1.053-0.646-1.483-1.086c-0.393-0.471-0.595-1.072-0.563-1.685c-0.107-1.205,0.781-2.269,1.986-2.376
			c0.158-0.014,0.316-0.012,0.473,0.009c1.285-0.101,2.408,0.858,2.509,2.146c0.017,0.187,0.007,0.375-0.022,0.56h-1.805
			c0-0.488,0-1.153-0.646-1.205c-0.316-0.056-0.617,0.155-0.674,0.472c-0.006,0.027-0.009,0.057-0.011,0.084
			c-0.042,0.434,0.192,0.846,0.591,1.028c0.641,0.345,1.25,0.738,1.827,1.179c0.53,0.521,0.798,1.25,0.726,1.988
			c0.158,1.236-0.715,2.368-1.951,2.525c-0.19,0.024-0.385,0.024-0.575,0c-1.796,0-2.528-1.002-2.528-2.104v-0.901h1.812
			L21.189,19.854L21.189,19.854z"/>
		<path fill="#22BCA7" d="M27.238,15.802c0.961,0,1.281,0.075,1.289,1.062v2.729c0,1.112,0,1.686-1.289,1.559V15.802z M27.919,22.65
			c0.604,0.041,1.21-0.094,1.738-0.389c0.581-0.406,0.903-1.094,0.841-1.802v-3.715c0.122-0.789-0.203-1.578-0.841-2.056
			c-0.693-0.312-1.451-0.444-2.208-0.387h-2.174v8.34h2.638L27.919,22.65z"/>
		<path fill="#22BCA7" d="M34.602,19.551h-1.129l0.564-3.74l0,0L34.602,19.551z M33.025,22.643l0.236-1.627h1.532l0.276,1.627h1.947
			l-1.777-8.341h-2.358l-1.827,8.341H33.025z"/>
	</g>
	<g>
		<path fill="#22BCA7" d="M30.505,30.691l-0.128,0.054l0.073,3.03h-1.364v-2.498l-0.891,0.365l0.47,2.158h-1.483l-0.209-1.223
			h-1.055l-0.105,0.045l-0.172,1.143l-0.009,0.019h-1.475l0.116-0.528l-0.562,0.23v0.256H23.09l-11.808,4.855
			c1.741,1.758,3.815,3.18,6.12,4.166l14.021-9.252L30.505,30.691z"/>
		<polygon fill="#22BCA7" points="31.73,31.023 31.703,30.201 31.491,30.288 		"/>
		<polygon fill="#22BCA7" points="32.979,29.676 32.979,32.49 33.82,31.936 33.82,29.33 		"/>
		<path fill="#22BCA7" d="M39.695,28.059l4.607-3.039L38.51,27.4C39.042,27.48,39.445,27.689,39.695,28.059z"/>
		<path fill="#22BCA7" d="M36.129,28.381l-0.844,0.346v2.241l0.725-0.479v-1.134C35.951,29.014,36.001,28.677,36.129,28.381z"/>
		<path fill="#22BCA7" d="M38.048,28.461c-0.455,0-0.563,0.244-0.563,0.65v0.404l0.975-0.644
			C38.381,28.615,38.238,28.461,38.048,28.461z"/>
		<polygon fill="#22BCA7" points="30.366,30.323 30.384,30.316 30.365,30.266 		"/>
		<polygon fill="#22BCA7" points="29.086,30.812 29.086,27.966 27.464,28.281 28.096,31.188 		"/>
		<polygon fill="#22BCA7" points="26.829,31.453 26.415,28.646 25.984,31.453 		"/>
		<path fill="#22BCA7" d="M12.507,32.801c0.507,0,0.507-0.531,0.507-0.894V31.08l-1.037,0.199v0.628
			C11.977,32.27,12.003,32.801,12.507,32.801z"/>
		<path fill="#22BCA7" d="M21.598,32.799c0.043,0.006,0.084,0.008,0.125,0.002c0.498,0,0.514-0.406,0.514-0.843v-0.456h-0.514
			v-1.127h1.987v2.48l0.71-0.271l0.854-3.881L23.65,29.02c0.002,0.051,0.012,0.096,0.012,0.149v0.472h-1.441v-0.336
			c0-0.003,0-0.006,0-0.01l-1.035,0.201v2.748C21.146,32.512,21.329,32.759,21.598,32.799z"/>
		<path fill="#22BCA7" d="M22.622,33.271l0.03-0.012l-0.004-0.029C22.643,33.244,22.63,33.256,22.622,33.271z"/>
		<path fill="#22BCA7" d="M31.379,29.938l0.312-0.119l-0.078-2.293h1.365v1.805l0.842-0.322v-1.48h1.466v0.926l1.021-0.391
			c0.258-0.358,0.647-0.621,1.115-0.701c0.186-0.03,0.374-0.032,0.561-0.002c0.054,0,0.102,0.007,0.151,0.008l6.171-2.348
			l-13.666,2.646L31.379,29.938z"/>
		<path fill="#22BCA7" d="M19.691,31.932v-2.146l-0.724,0.139c-0.128,0.31-0.354,0.574-0.675,0.718
			c0.419,0.061,0.729,0.422,0.725,0.844c0.043,0.506,0.051,1.574,0.137,1.979c0.027,0.084,0.076,0.158,0.142,0.221v0.084h-1.599
			c-0.047-0.117-0.074-0.236-0.086-0.362c0-0.546,0-1.062,0-1.449c0-0.002,0-0.002,0-0.003c0.043-0.318-0.18-0.609-0.498-0.653
			h-0.487h-0.008v2.442h-1.466v-3.078l-0.707,0.137v0.937c0,1.45-0.457,2.149-1.945,2.149c-1.491,0-2.006-0.742-2.006-2.149v-0.171
			l-3.409,0.66c0.841,2.08,2.028,3.979,3.498,5.625l10.401-3.959C20.038,33.729,19.691,32.954,19.691,31.932z"/>
		<path fill="#22BCA7" d="M36.01,31.924v-1.046l-0.724,0.511v2.396H33.82v-0.008v-1.354l-0.842,0.596v0.766h-1.084L18.55,43.212
			c2.019,0.716,4.188,1.106,6.451,1.106c0.843,0,1.672-0.06,2.485-0.164l9.24-10.514C36.225,33.322,36.01,32.736,36.01,31.924z"/>
		<path fill="#22BCA7" d="M39.986,29.17v0.521H38.52v-0.387c0-0.07-0.012-0.125-0.018-0.188l-1.02,0.717v2.377
			c-0.029,0.157,0.029,0.308,0.136,0.414l0.927-1.056v-0.244h0.215l5.545-6.307l-4.525,3.195
			C39.908,28.471,39.986,28.783,39.986,29.17z"/>
		<path fill="#22BCA7" d="M38.531,32.162l-0.482,0.597C38.389,32.736,38.499,32.46,38.531,32.162z"/>
		<path fill="#22BCA7" d="M21.757,28.461c-0.307,0-0.479,0.164-0.542,0.43l0.934-0.158C22.087,28.562,21.973,28.461,21.757,28.461z"
			/>
		<path fill="#22BCA7" d="M16.627,28.639v1.021l1.032-0.174c-0.003-0.03,0.004-0.059-0.005-0.09
			C17.654,28.639,17.342,28.639,16.627,28.639z"/>
		<path fill="#22BCA7" d="M13.014,29.33c0-0.38-0.052-0.844-0.514-0.844c-0.465,0-0.523,0.455-0.523,0.844v1.109l1.037-0.176V29.33z
			"/>
		<path fill="#22BCA7" d="M5.682,25c0,2.212,0.379,4.336,1.062,6.316l3.75-0.629V29.21c-0.01-0.118-0.006-0.237,0.01-0.354
			c0.123-0.961,1.002-1.64,1.961-1.515c0.135-0.021,0.27-0.022,0.404-0.012c0.955,0.083,1.66,0.928,1.576,1.88v0.812l0.707-0.117
			v-2.422h2.115c1.205,0,1.801,0.479,1.801,1.727c0.002,0.014-0.002,0.025,0,0.039l0.611-0.102c-0.043-0.86,0.555-1.639,1.424-1.787
			c0.188-0.03,0.375-0.032,0.561-0.002c1.004,0,1.671,0.346,1.902,1.138l1.818-0.306l0.146-0.664H27.3l0.073,0.33l1.713-0.287
			v-0.043h0.253l14.968-2.508l-5.1,6.309h0.805v0.766c0,1.079-0.613,1.829-2.121,1.829c-0.27,0-0.498-0.036-0.703-0.092
			l-8.129,10.062C37.779,42.027,44.32,34.279,44.32,25H5.682z"/>
		<path fill="#22BCA7" d="M27.486,44.154l-0.016,0.02"/>
		<polygon fill="#22BCA7" points="13.014,31.078 14.445,30.801 14.445,30.023 13.014,30.266 		"/>
		<polygon fill="#22BCA7" points="11.977,31.279 11.977,30.439 10.494,30.688 10.494,31.566 		"/>
		<path fill="#22BCA7" d="M18.969,29.925c0.088-0.21,0.129-0.438,0.1-0.676l-1.408,0.235c0.031,0.303-0.148,0.593-0.451,0.67
			c-0.023,0.009-0.051,0.014-0.075,0.018h-0.507v-0.513l-1.475,0.247v0.759L18.969,29.925z"/>
		<path fill="#22BCA7" d="M19.691,29.786l1.492-0.289v-0.354c0-0.094,0.012-0.177,0.03-0.254l-1.537,0.258
			c0.005,0.068,0.003,0.139,0.015,0.209V29.786z"/>
		<path fill="#22BCA7" d="M21.378,33.93c0.515,0.064,1.009-0.201,1.244-0.658l-1.638,0.623C21.107,33.915,21.234,33.93,21.378,33.93
			z"/>
		<polygon fill="#22BCA7" points="22.652,33.26 22.718,33.785 22.718,33.744 23.089,33.744 23.71,33.486 23.71,32.855 		"/>
		<path fill="#22BCA7" d="M22.221,29.294l1.43-0.274c-0.012-0.19-0.039-0.367-0.084-0.522l-1.418,0.235
			C22.199,28.873,22.219,29.061,22.221,29.294z"/>
		<polygon fill="#22BCA7" points="27.464,28.281 27.372,27.857 25.387,28.189 25.271,28.704 		"/>
		<polygon fill="#22BCA7" points="24.42,32.585 24.271,33.257 25.812,32.625 25.816,32.581 25.918,32.581 28.195,31.645 
			28.096,31.188 		"/>
		<polygon fill="#22BCA7" points="31.424,33.516 31.512,33.785 31.895,33.785 32.979,33.021 32.979,32.49 		"/>
		<polygon fill="#22BCA7" points="31.379,29.938 30.384,30.316 30.505,30.691 31.491,30.288 		"/>
		<polygon fill="#22BCA7" points="29.086,30.812 29.086,31.277 30.377,30.746 30.366,30.323 		"/>
		<polygon fill="#22BCA7" points="32.979,29.676 32.979,29.33 31.689,29.818 31.703,30.201 		"/>
		<polygon fill="#22BCA7" points="30.639,27.665 30.594,27.527 29.338,27.527 29.086,27.568 29.086,27.966 		"/>
		<polygon fill="#22BCA7" points="35.285,28.729 35.285,28.452 33.82,29.009 33.82,29.33 		"/>
		<polygon fill="#22BCA7" points="33.82,31.936 33.82,32.425 35.285,31.389 35.285,30.969 		"/>
		<path fill="#22BCA7" d="M38.503,29.117l1.276-0.902c-0.028-0.053-0.051-0.109-0.084-0.156l-1.237,0.815
			C38.479,28.945,38.492,29.027,38.503,29.117z"/>
		<polygon fill="#22BCA7" points="36.01,30.489 36.01,30.878 37.484,29.835 37.484,29.518 		"/>
		<path fill="#22BCA7" d="M38.007,32.766c-0.049,0.008-0.099,0.006-0.147-0.004c-0.096-0.019-0.176-0.07-0.239-0.136l-0.892,1.017
			c0.131,0.082,0.287,0.142,0.457,0.188l0.863-1.068C38.033,32.761,38.021,32.766,38.007,32.766z"/>
		<path fill="#22BCA7" d="M38.512,27.398c-0.119-0.018-0.246-0.026-0.379-0.032l-1.826,0.696c-0.07,0.098-0.127,0.205-0.178,0.317
			L38.512,27.398z"/>
		<path fill="#22BCA7" d="M38.545,31.57v0.295c0,0.094-0.001,0.195-0.014,0.297l0.675-0.835H38.76L38.545,31.57z"/>
	</g>
</g>
</svg>
