<?xml version="1.0" encoding="utf-8"?>
<!-- Generator: Adobe Illustrator 16.0.4, SVG Export Plug-In . SVG Version: 6.00 Build 0)  -->
<!DOCTYPE svg PUBLIC "-//W3C//DTD SVG 1.1//EN" "http://www.w3.org/Graphics/SVG/1.1/DTD/svg11.dtd">
<svg version="1.1" id="Layer_1" xmlns="http://www.w3.org/2000/svg" xmlns:xlink="http://www.w3.org/1999/xlink" x="0px" y="0px"
	 width="50px" height="50px" viewBox="0 0 50 50" enable-background="new 0 0 50 50" xml:space="preserve">
<path fill="#22BCA7" d="M46.131,22.683c-0.066-0.654-0.169-1.302-0.307-1.943c-0.279-1.361-0.697-2.69-1.249-3.967
	c-0.921-2.24-2.229-4.301-3.869-6.084c-0.451-0.443-0.847-0.943-1.329-1.347c-2.136-1.976-4.658-3.485-7.408-4.434
	c-1.592-0.548-3.242-0.905-4.917-1.063c-0.747-0.082-1.5-0.111-2.25-0.089c-0.607-0.011-1.217,0.017-1.822,0.081h-0.039
	c-1.817,0.182-3.608,0.59-5.325,1.217c-0.421,0.127-0.826,0.278-1.229,0.452c-1.769,0.78-3.421,1.804-4.908,3.039
	c-0.319,0.291-0.668,0.563-0.992,0.854c-0.67,0.623-1.297,1.291-1.877,1.998c-1.289,1.539-2.348,3.254-3.145,5.095
	c-0.844,1.987-1.387,4.091-1.611,6.239c-0.086,0.754-0.119,1.514-0.098,2.272c0.003,0.756,0.062,1.512,0.178,2.257
	c0.229,2.097,0.752,4.146,1.559,6.095c0.878,2.062,2.078,3.965,3.562,5.645c1.383,1.622,3.016,3.014,4.836,4.119
	c2.414,1.49,5.104,2.482,7.906,2.918c0.354,0.07,0.727,0.062,1.08,0.137c0.748,0.064,1.499,0.09,2.249,0.073
	c0.722,0.021,1.443-0.013,2.161-0.091c3.231-0.34,6.345-1.422,9.093-3.158c0.969-0.592,1.878-1.27,2.725-2.021
	c0.563-0.482,1.071-1.062,1.612-1.613c0.911-0.988,1.722-2.068,2.418-3.223c0.546-0.873,1.017-1.789,1.402-2.742
	c0.844-1.963,1.387-4.041,1.61-6.166c0.086-0.729,0.117-1.465,0.099-2.202C46.268,24.245,46.229,23.459,46.131,22.683z
	 M43.995,26.367c-0.032,0.731-0.121,1.464-0.267,2.185c-0.447,2.399-1.359,4.688-2.687,6.738c-0.646,1.034-1.397,2.001-2.241,2.886
	c-1.525,1.591-3.314,2.905-5.285,3.896c-1.904,0.943-3.953,1.562-6.062,1.839c-0.51,0.104-1.032,0.071-1.541,0.151
	c-0.774,0.043-1.558,0.021-2.329-0.058c-0.578-0.028-1.152-0.095-1.727-0.192c-3.438-0.562-6.656-2.063-9.295-4.346
	c-0.986-0.836-1.883-1.775-2.668-2.805c-0.59-0.812-1.129-1.66-1.609-2.539c-1.27-2.316-2.039-4.873-2.268-7.505
	c0-1.113,0-2.228,0-3.339c0.071-0.541,0.121-1.08,0.228-1.612c0.456-2.55,1.427-4.979,2.854-7.142
	c0.633-0.996,1.373-1.918,2.209-2.75c3.059-3.178,7.129-5.193,11.512-5.698c0.41-0.056,0.826-0.083,1.24-0.081
	c0.651-0.064,1.312-0.064,1.967,0c0.416-0.008,0.832,0.025,1.242,0.097c2.778,0.345,5.453,1.296,7.826,2.789
	c1.684,1.062,3.196,2.371,4.487,3.886c1.522,1.836,2.703,3.938,3.478,6.197c0.416,1.238,0.705,2.516,0.858,3.812
	c0.081,0.459,0.06,0.928,0.113,1.387C44.07,24.899,44.059,25.635,43.995,26.367z"/>
</svg>
