<?xml version="1.0" encoding="utf-8"?>
<!-- Generator: Adobe Illustrator 16.0.4, SVG Export Plug-In . SVG Version: 6.00 Build 0)  -->
<!DOCTYPE svg PUBLIC "-//W3C//DTD SVG 1.1//EN" "http://www.w3.org/Graphics/SVG/1.1/DTD/svg11.dtd">
<svg version="1.1" id="Layer_1" xmlns="http://www.w3.org/2000/svg" xmlns:xlink="http://www.w3.org/1999/xlink" x="0px" y="0px"
	 width="50px" height="50px" viewBox="0 0 50 50" enable-background="new 0 0 50 50" xml:space="preserve">
<title>glutenkosher</title>
<path d="M175.023,39.646h4.615c0,0,0,0.062,0,0.095c0,4.725,0,9.448,0,14.173c0.014,1.173-0.179,2.341-0.562,3.449
	c-0.48,1.41-1.365,2.65-2.543,3.566c-0.908,0.688-1.943,1.193-3.049,1.485c-0.984,0.271-2.002,0.424-3.021,0.465
	c-0.902,0.046-1.812,0.011-2.709-0.108c-1.162-0.139-2.291-0.477-3.338-1c-1.311-0.672-2.377-1.732-3.057-3.039
	c-0.523-1.01-0.846-2.11-0.943-3.243c-0.047-0.535-0.078-1.079-0.078-1.575c0-4.688,0-9.378,0-14.07v-0.197h4.639v0.127
	c0,4.588,0,9.18,0,13.771c-0.016,0.748,0.068,1.494,0.252,2.223c0.188,0.789,0.582,1.514,1.144,2.104
	c0.562,0.562,1.28,0.943,2.062,1.095c1.217,0.283,2.488,0.203,3.662-0.229c0.979-0.365,1.779-1.094,2.242-2.029
	c0.371-0.736,0.588-1.54,0.639-2.363c0-0.417,0.039-0.834,0.039-1.252c0-4.425,0-8.85,0-13.273v-0.166h0.008V39.646L175.023,39.646z
	"/>
<path d="M170,28.961c-11.619,0-21.039,9.42-21.039,21.039s9.42,21.039,21.039,21.039s21.039-9.42,21.039-21.039
	S181.619,28.961,170,28.961L170,28.961z M170,66.904c-9.34,0-16.912-7.571-16.912-16.912c0-9.342,7.572-16.913,16.912-16.913
	c9.342,0,16.914,7.571,16.914,16.913C186.914,59.333,179.342,66.904,170,66.904L170,66.904z"/>
<g id="Front">
	<g id="Certifications">
		<g id="GF_Seal">
			<path fill="#22BCA7" d="M13.062,5.846c-0.346-0.207-0.739-0.316-1.143-0.316c-0.792-0.075-1.496,0.506-1.57,1.299
				c-0.008,0.076-0.009,0.152-0.004,0.229c-0.068,0.803,0.526,1.508,1.328,1.575c0.082,0.007,0.165,0.007,0.247,0
				c0.397-0.021,0.787-0.125,1.142-0.307l0.08,1.071c-0.447,0.123-0.908,0.188-1.371,0.188c-1.739,0-2.748-0.937-2.748-2.521
				c-0.07-1.303,0.928-2.416,2.23-2.487c0.141-0.007,0.283-0.002,0.423,0.015c0.498-0.01,0.993,0.079,1.457,0.26L13.062,5.846z"/>
			<path fill="#22BCA7" d="M17.268,8.064h-2.48c0.066,0.47,0.501,0.795,0.97,0.729c0.011-0.001,0.021-0.003,0.03-0.005
				C16.212,8.768,16.627,8.651,17,8.45v0.865c-0.412,0.146-0.847,0.218-1.283,0.213c-0.998,0.147-1.927-0.54-2.075-1.538
				c-0.017-0.108-0.022-0.218-0.02-0.328c-0.051-0.942,0.671-1.748,1.613-1.799c0.078-0.005,0.158-0.003,0.236,0.004
				c0.928-0.071,1.737,0.625,1.809,1.552c0.009,0.123,0.005,0.247-0.014,0.369L17.268,8.064L17.268,8.064z M15.488,6.585
				c-0.409,0.017-0.727,0.36-0.709,0.771c0,0.006,0,0.012,0,0.018h1.434c0.03-0.402-0.271-0.755-0.675-0.786
				C15.521,6.586,15.504,6.585,15.488,6.585z"/>
			<path fill="#22BCA7" d="M20.377,6.932c-0.121-0.043-0.25-0.062-0.378-0.056c-0.567,0-0.874,0.37-0.874,1.103v1.496H17.92V5.939
				H19v0.677c0.152-0.468,0.587-0.784,1.079-0.787c0.122,0.005,0.243,0.019,0.362,0.04L20.377,6.932z"/>
			<path fill="#22BCA7" d="M22.661,5.939h0.866v0.873h-0.866v1.213c0,0.512,0.142,0.717,0.567,0.717
				c0.102-0.008,0.201-0.026,0.299-0.055v0.787c-0.24,0.057-0.486,0.086-0.732,0.086c-0.977,0-1.361-0.457-1.361-1.504V6.812h-0.662
				V5.939h0.787V5.15l1.143-0.385v1.172L22.661,5.939L22.661,5.939z"/>
			<path fill="#22BCA7" d="M25.409,4.316V5.3h-1.214V4.316H25.4H25.409z M25.409,5.939v3.535h-1.214V5.939H25.4H25.409z"/>
			<path fill="#22BCA7" d="M28.73,5.16c-0.092-0.045-0.194-0.069-0.299-0.071c-0.349,0-0.496,0.197-0.496,0.638V5.94h0.875v0.883
				h-0.875v2.652h-1.197V6.822h-0.739V5.939h0.739V5.617c-0.088-0.668,0.382-1.282,1.05-1.371c0.108-0.016,0.22-0.016,0.329,0.001
				c0.23-0.005,0.462,0.021,0.686,0.079L28.73,5.16z"/>
			<path fill="#22BCA7" d="M30.535,4.316V5.3H29.33V4.316H30.535z M30.535,5.939v3.535H29.33V5.939H30.535z"/>
			<path fill="#22BCA7" d="M34.904,8.064h-2.479c0.066,0.47,0.501,0.795,0.97,0.729c0.014-0.001,0.021-0.003,0.03-0.005
				c0.411-0.025,0.812-0.141,1.173-0.338v0.865c-0.412,0.146-0.847,0.218-1.283,0.213c-1,0.125-1.914-0.582-2.041-1.584
				c-0.012-0.094-0.017-0.188-0.015-0.282c-0.051-0.942,0.673-1.748,1.614-1.799c0.078-0.005,0.158-0.003,0.236,0.004
				c0.928-0.071,1.736,0.625,1.808,1.552c0.01,0.123,0.006,0.247-0.013,0.369V8.064z M33.117,6.585
				c-0.408,0.017-0.727,0.36-0.709,0.771c0,0.006,0,0.012,0.001,0.018h1.425c0.029-0.402-0.271-0.755-0.675-0.786
				C33.146,6.586,33.131,6.585,33.117,6.585z"/>
			<path fill="#22BCA7" d="M39.338,4.316v5.158h-1.079V8.766c-0.237,0.487-0.733,0.793-1.274,0.787
				c-0.906-0.031-1.617-0.792-1.59-1.699c0.002-0.057,0.008-0.111,0.018-0.166c-0.133-0.86,0.46-1.664,1.318-1.793
				c0.084-0.014,0.168-0.02,0.254-0.019c0.461-0.017,0.9,0.203,1.166,0.583V4.316h1.211H39.338z M36.646,7.664
				c-0.148,0.409,0.062,0.859,0.471,1.009c0.408,0.147,0.859-0.062,1.009-0.471c0.063-0.175,0.063-0.364,0-0.538
				c0.088-0.426-0.188-0.842-0.612-0.93c-0.059-0.01-0.115-0.017-0.175-0.016c-0.45,0.068-0.762,0.49-0.692,0.941
				C36.645,7.661,36.645,7.663,36.646,7.664z"/>
			<path fill="#22BCA7" d="M9.047,41.955c-0.384-0.219-0.818-0.332-1.26-0.331c-0.839-0.088-1.59,0.521-1.678,1.36
				c-0.008,0.07-0.01,0.143-0.008,0.215c-0.082,0.781,0.483,1.484,1.267,1.566c0.071,0.008,0.144,0.01,0.214,0.008
				c0.167,0.002,0.334-0.019,0.496-0.058v-0.95H7.346v-0.906h1.913v2.654c-0.513,0.141-1.042,0.213-1.575,0.213
				c-1.857,0-2.834-0.858-2.834-2.457c0-1.602,0.984-2.535,2.748-2.535c0.534-0.002,1.064,0.078,1.575,0.236L9.047,41.955z"/>
			<path fill="#22BCA7" d="M11.377,40.475v5.149h-1.212v-5.149H11.377z"/>
			<path fill="#22BCA7" d="M13.448,42.096v1.788c0,0.56,0.188,0.787,0.599,0.787c0.409,0,0.693-0.362,0.693-1.095v-1.48h1.205v3.528
				h-1.103v-0.661c-0.258,0.459-0.749,0.738-1.276,0.725c-0.857,0-1.33-0.525-1.33-1.576v-2.016h1.205H13.448z"/>
			<path fill="#22BCA7" d="M18.4,42.096h0.867v0.875H18.4v1.213c0,0.512,0.143,0.717,0.56,0.717
				c0.101-0.008,0.202-0.024,0.299-0.057v0.788c-0.239,0.058-0.485,0.085-0.731,0.087c-0.978,0-1.362-0.457-1.362-1.504v-1.252
				h-0.653v-0.867H17.3v-0.787l1.143-0.386v1.205L18.4,42.096z"/>
			<path fill="#22BCA7" d="M23.377,44.215h-2.48c0.066,0.469,0.502,0.795,0.971,0.729c0.01-0.002,0.02-0.002,0.029-0.004
				c0.403-0.006,0.801-0.097,1.166-0.269v0.866c-0.412,0.146-0.847,0.217-1.283,0.213c-1.002,0.128-1.916-0.58-2.045-1.58
				c-0.014-0.113-0.018-0.229-0.01-0.342c-0.052-0.941,0.67-1.747,1.612-1.799c0.079-0.004,0.158-0.004,0.237,0.004
				c0.928-0.07,1.736,0.625,1.807,1.554c0.008,0.099,0.006,0.198-0.004,0.297v0.3V44.215z M21.59,42.734
				c-0.408,0.016-0.727,0.361-0.71,0.77c0,0.006,0,0.012,0.001,0.018h1.426c0.025-0.401-0.281-0.752-0.684-0.775
				c-0.012-0.001-0.021-0.001-0.033-0.001V42.734z"/>
			<path fill="#22BCA7" d="M27.73,45.624h-1.203v-1.812c0-0.562-0.189-0.787-0.602-0.787c-0.433,0.043-0.747,0.43-0.704,0.863
				c0.002,0.021,0.006,0.049,0.012,0.071v1.69h-1.213V42.09h1.103v0.631c0.259-0.459,0.75-0.736,1.274-0.725
				c0.856,0,1.322,0.535,1.322,1.574v2.07L27.73,45.624z"/>
			<path fill="#22BCA7" d="M30.195,43.184v0.904h-1.826v-0.904h1.835H30.195z"/>
			<path fill="#22BCA7" d="M34.047,40.859v0.906h-1.865v1.016h1.778v0.906h-1.778v1.937h-1.273v-4.765h3.146H34.047z"/>
			<path fill="#22BCA7" d="M37.07,43.096c-0.122-0.052-0.254-0.078-0.387-0.078c-0.566,0-0.873,0.371-0.873,1.104v1.504h-1.197V42.1
				h1.078v0.67c0.15-0.469,0.588-0.785,1.08-0.787c0.121,0.004,0.242,0.019,0.358,0.039L37.07,43.096z"/>
			<path fill="#22BCA7" d="M41.047,44.215h-2.48c0.066,0.469,0.502,0.795,0.974,0.729c0.01-0.002,0.021-0.002,0.026-0.004
				c0.406-0.004,0.809-0.096,1.176-0.269v0.866c-0.412,0.146-0.85,0.217-1.283,0.213c-1.001,0.128-1.916-0.58-2.044-1.58
				c-0.017-0.113-0.021-0.229-0.013-0.342c-0.053-0.941,0.673-1.747,1.613-1.799c0.078-0.004,0.157-0.004,0.235,0.004
				c0.929-0.065,1.733,0.634,1.8,1.562c0.008,0.096,0.006,0.191-0.004,0.287v0.299V44.215z M39.259,42.734
				c-0.407,0.016-0.726,0.361-0.709,0.77c0,0.006,0,0.012,0.001,0.018h1.426c0.025-0.401-0.277-0.752-0.685-0.775
				c-0.011-0.001-0.021-0.001-0.033-0.001V42.734z"/>
			<path fill="#22BCA7" d="M45.141,44.215h-2.479c0.066,0.469,0.501,0.795,0.97,0.729c0.011-0.002,0.021-0.002,0.03-0.004
				c0.402-0.006,0.8-0.097,1.165-0.269v0.866c-0.412,0.146-0.847,0.217-1.283,0.213c-1.001,0.128-1.916-0.58-2.044-1.58
				c-0.016-0.113-0.02-0.229-0.012-0.342c-0.051-0.941,0.672-1.747,1.613-1.799c0.078-0.004,0.155-0.004,0.234,0.004
				c0.93-0.07,1.737,0.625,1.809,1.554c0.008,0.099,0.008,0.198-0.004,0.297v0.3V44.215L45.141,44.215z M43.354,42.734
				c-0.408,0.016-0.726,0.361-0.709,0.77c0,0.006,0,0.012,0.002,0.018h1.424c0.027-0.401-0.277-0.752-0.684-0.775
				c-0.011-0.001-0.021-0.001-0.033-0.001V42.734z"/>
			<path fill="#22BCA7" d="M24.874,11.316c-7.862,0.018-14.222,6.406-14.205,14.269c0.017,7.863,6.405,14.222,14.269,14.204
				c7.85-0.018,14.203-6.387,14.203-14.236c0-7.861-6.373-14.234-14.232-14.234C24.895,11.316,24.884,11.316,24.874,11.316z
				 M24.874,37.372c-6.497-0.026-11.743-5.313-11.716-11.812c0.025-6.499,5.314-11.745,11.811-11.715
				C31.443,13.87,36.68,19.124,36.686,25.6c0.004,6.498-5.26,11.768-11.755,11.771C24.911,37.372,24.893,37.372,24.874,37.372z"/>
			<path fill="#22BCA7" d="M24.236,23.207c-0.711-0.391-1.512-0.591-2.323-0.583c-1.921,0-3.095,1.134-3.095,2.968
				c-0.149,1.44,0.896,2.729,2.338,2.879c0.128,0.014,0.258,0.02,0.387,0.012c0.305,0.004,0.609-0.028,0.905-0.104v-1.818h-1.347
				v-1.651h3.521v4.881c-0.968,0.269-1.966,0.396-2.968,0.396c-3.418,0-5.213-1.574-5.213-4.521s1.882-4.668,5.125-4.668
				c0.973,0.001,1.938,0.147,2.867,0.433L24.236,23.207z"/>
			<path fill="#22BCA7" d="M32.047,21.184v1.668h-3.418v1.866h3.27v1.669h-3.27v3.562h-2.361v-8.765h5.771H32.047L32.047,21.184z"/>
			<path fill="#22BCA7" d="M37.779,38.372c-0.004,0.813-0.664,1.47-1.479,1.468c-0.812-0.002-1.47-0.663-1.468-1.477
				c0.002-0.812,0.663-1.471,1.479-1.469c0.39,0.002,0.76,0.153,1.035,0.43C37.629,37.6,37.785,37.979,37.779,38.372z
				 M37.473,38.372c-0.006-0.297-0.127-0.58-0.34-0.788c-0.438-0.447-1.154-0.456-1.604-0.018c-0.006,0.006-0.012,0.012-0.021,0.018
				c-0.449,0.452-0.449,1.186,0,1.637c0,0.002,0,0.002,0,0.002c0.438,0.447,1.156,0.457,1.604,0.021
				c0.009-0.009,0.015-0.015,0.021-0.021C37.361,39,37.484,38.689,37.473,38.372z M37.117,39.072h-0.434l-0.428-0.535h-0.165v0.535
				h-0.347v-1.44h0.788c0.062,0.009,0.125,0.03,0.181,0.063c0.061,0.031,0.105,0.076,0.145,0.133
				c0.067,0.152,0.053,0.33-0.047,0.465c-0.062,0.07-0.144,0.124-0.229,0.158L37.117,39.072z M36.512,38.041
				c0.006-0.027,0.006-0.059,0-0.086c-0.015-0.027-0.035-0.051-0.062-0.062h-0.089h-0.234v0.416h0.087h0.144
				c0.037-0.007,0.07-0.021,0.104-0.047c0.023-0.018,0.044-0.043,0.057-0.07c0.006-0.043,0-0.086-0.018-0.127L36.512,38.041z"/>
		</g>
	</g>
</g>
</svg>
