<?xml version="1.0" encoding="utf-8"?>
<!-- Generator: Adobe Illustrator 16.0.4, SVG Export Plug-In . SVG Version: 6.00 Build 0)  -->
<!DOCTYPE svg PUBLIC "-//W3C//DTD SVG 1.1//EN" "http://www.w3.org/Graphics/SVG/1.1/DTD/svg11.dtd">
<svg version="1.1" id="Layer_1" xmlns="http://www.w3.org/2000/svg" xmlns:xlink="http://www.w3.org/1999/xlink" x="0px" y="0px"
	 width="1600px" height="1600px" viewBox="0 0 1600 1600" enable-background="new 0 0 1600 1600" xml:space="preserve">
<title>logo</title>
<path fill="#FFFFFF" d="M45.5,941.688c-4.946,2.894-19.125,2.674-25.001,0.004c-8.983-4.081-10.041-25.708-10.041-37.604
	c0-23.131,0-46.263,0-69.394c0-23.325,0-46.651,0-69.978c0-19.103-0.337-38.221,4.375-56.89
	c4.262-16.884,12.816-34.261,27.748-44.124c14.634-9.666,33.757-9.507,48.973-1.188c14.709,8.042,24.914,22.269,33.681,36.133
	c11.346,17.942,21.55,36.574,31.681,55.222c20.548,37.815,38.97,77.181,62.596,113.229c7.408,11.306,25.881,28.78,35.51,11.272
	c7.98-14.51,6.626-38.014,6.626-55.373c0-45.906,0-91.812,0-137.717c0-6.702-0.479-19.795,2.257-22.724
	c7.333-7.844,22.292-7.498,30.964-4.003c8.159,3.288,8.608,10.256,8.608,18.034c0,40.839,0,81.678,0,122.519
	c0,19.406,0.435,38.875-0.205,58.272c-0.595,18.06-2.928,36.563-11.071,52.923c-13.122,26.364-41.965,41.752-69.739,26.365
	c-14.657-8.12-25.049-22.362-34.116-36.052c-10.497-15.849-19.265-32.737-28.347-49.409c-16.667-30.473,12.14,22.285,0,0
	c-20.631-37.721-40.226-76.268-62.157-113.247c-5.799-9.778-18.682-29.003-32.743-22.801c-9.953,4.39-11.802,19.561-12.535,28.958
	c-1.542,19.788-0.278,40.081-0.278,59.923c0,23.155,0,46.312,0,69.47c0,10.822,0,21.646,0,32.467
	C52.288,905.977,51.834,937.984,45.5,941.688C40.554,944.579,51.834,937.984,45.5,941.688z"/>
<g>
	<path fill="#FFFFFF" d="M1518.327,744.923l38.379,101.648c-25.83-51.452-40.262-47.896-64.313-49.673h-1.883l-20.183-51.558
		c-8.575-22.38-20.915-33.776-33.778-33.776c-12.86,0-24.47,10.458-33.045,33.464c0,0-53.691,140.013-71.635,186.667
		c-3.339,8.683-16.209,12.86-27.921,12.86c-10.458,0-20.915-3.137-20.915-9.725c-0.089-1.073,0.091-2.151,0.521-3.138
		l71.738-186.146c23.425-60.233,44.654-90.144,81.674-90.144C1473.986,655.404,1495.425,684.898,1518.327,744.923z"/>
	<path fill="#FFFFFF" d="M1495.425,809.656c35.66,0,56.263,31.372,81.046,89.83l12.863,30.327c0.135,0.643,0.307,1.896,0.191,3.18
		c-0.59,6.562-11.486,9.683-21.107,9.683c-11.712,0-24.575-4.183-27.921-12.86l-11.922-30.016
		c-8.575-22.272-20.915-37.961-33.15-37.961h-92.968c-7.006,0-10.457-13.281-10.457-26.144c0-12.863,3.66-26.146,10.457-26.146
		h92.968V809.656z"/>
</g>
<path fill="#FFFFFF" d="M1157.855,749.995c13.387-24.68,23.844-35.45,34.302-35.45c8.052,0,18.091,9.516,18.091,32.313v183.527
	c0,8.784,10.458,13.281,20.915,13.281c10.458,0,20.915-4.497,20.915-13.281v-182.69c0.312-68.604-32.731-91.399-54.066-91.399
	c-21.672,0-44.517,15.974-55.215,34.301l-61.385,105.31c-2.013,1.767-4.545,2.831-7.216,3.032c-2.935-0.222-5.7-1.438-7.845-3.451
	c-6.321-10.883-12.646-21.764-18.969-32.646c-10.57-18.208-21.166-36.403-31.726-54.621c-11.582-19.978-26.171-40.749-49.043-48.83
	c-5.058-1.784-10.763-2.777-16.134-2.777c-21.543-0.313-54.273,22.482-54.273,91.086v182.69c0,8.784,10.458,13.281,20.915,13.281
	c10.458,0,20.915-4.497,20.915-13.281v-183.53c0-22.902,10.458-32.313,18.195-32.313c10.457,0,20.914,10.457,34.302,35.45
	c0,0,47.896,93.49,62.745,119.32c4.361,7.181,11.721,11.833,20.919,11.417c9.302,0.416,16.573-4.303,20.911-11.521L1157.855,749.995
	z"/>
<g>
	<path fill="#FFFFFF" d="M607.186,781.558c-6.042-11.095-12.118-22.173-18.654-32.972c-19.557-32.313-37.785-63.563-72.183-80.683
		c-36.066-17.952-85.998-16.145-120.391,5.084c-57.692,35.615-81.382,110.301-60.642,173.211
		c11.823,35.866,38.301,69.55,73.257,85.204c34.221,15.321,76.058,16.107,110.667,1.623c26.789-11.212,54.744-38.853,63.339-58.417
		c1.282-2.919,4.507-10.209,4.554-17.318c0.033-4.825-2.884-10.571-4.655-13.749c-8.931-16.011-13.608-24.797-22.431-40.867
		c-14.118,30.382-31.531,62.878-63.082,78.058c-32.165,15.477-72.667,9.4-97.267-16.978
		c-43.38-46.518-32.873-134.823,26.697-163.128c34.629-16.455,72.71-5.417,100.333,18.941
		c15.965,14.078,28.771,31.032,40.833,48.452c10.693,15.443,18.624,32.264,27.533,48.744c5.625,10.406,11.704,21.108,18.328,31.655
		c-0.761-21.048-2.151-42.121-5.732-63.308C607.509,783.922,607.356,782.741,607.186,781.558z"/>
	<path fill="#FFFFFF" d="M596.239,818.407c6.042,11.093,12.118,22.171,18.654,32.971c19.557,32.313,37.785,63.563,72.184,80.683
		c36.066,17.952,86,16.145,120.393-5.085c57.688-35.615,81.381-110.3,60.644-173.211c-11.824-35.866-38.303-69.549-73.259-85.203
		c-34.222-15.323-76.059-16.108-110.669-1.624c-26.79,11.212-54.743,38.854-63.338,58.417c-1.283,2.92-4.508,10.209-4.555,17.318
		c-0.033,4.826,2.884,10.573,4.657,13.751c8.931,16.01,13.607,24.795,22.429,40.866c14.119-30.382,31.53-62.877,63.083-78.058
		c32.162-15.475,72.665-9.399,97.266,16.979c43.379,46.518,32.873,134.822-26.696,163.128
		c-34.632,16.455-72.713,5.417-100.335-18.941c-15.965-14.078-28.771-31.03-40.833-48.45
		c-10.692-15.442-18.622-32.265-27.532-48.746c-5.625-10.406-11.704-21.107-18.329-31.655c0.762,21.047,2.153,42.121,5.732,63.309
		C595.916,816.044,596.069,817.225,596.239,818.407z"/>
</g>
</svg>
