<?xml version="1.0" encoding="utf-8"?>
<!-- Generator: Adobe Illustrator 16.0.4, SVG Export Plug-In . SVG Version: 6.00 Build 0)  -->
<!DOCTYPE svg PUBLIC "-//W3C//DTD SVG 1.1//EN" "http://www.w3.org/Graphics/SVG/1.1/DTD/svg11.dtd">
<svg version="1.1" id="Layer_1" xmlns="http://www.w3.org/2000/svg" xmlns:xlink="http://www.w3.org/1999/xlink" x="0px" y="0px"
	 width="100px" height="100px" viewBox="0 0 100 100" enable-background="new 0 0 100 100" xml:space="preserve">
<g>
	<path d="M68.141,59.036c-0.211-0.199-0.479-0.334-0.803-0.404c-0.242-0.055-0.717-0.082-1.424-0.082h-0.779v5.689h1.295
		c0.484,0,0.834-0.027,1.049-0.082c0.281-0.07,0.514-0.189,0.699-0.357s0.338-0.444,0.455-0.829s0.176-0.909,0.176-1.573
		s-0.059-1.174-0.176-1.529S68.352,59.235,68.141,59.036z"/>
	<polygon points="31.613,62.288 33.957,62.288 32.773,59.101 	"/>
	<path d="M51.508,63.8c0.186-0.168,0.338-0.444,0.455-0.829s0.176-0.909,0.176-1.573s-0.059-1.174-0.176-1.529
		s-0.281-0.633-0.492-0.832s-0.479-0.334-0.803-0.404c-0.243-0.055-0.717-0.082-1.424-0.082h-0.779v5.689h1.295
		c0.484,0,0.834-0.027,1.049-0.082C51.09,64.087,51.322,63.968,51.508,63.8z"/>
	<path d="M56.592,35.768c0-0.984-0.217-1.719-0.648-2.203s-1.004-0.727-1.719-0.727s-1.291,0.245-1.729,0.735
		s-0.656,1.229-0.656,2.218c0,0.973,0.225,1.71,0.674,2.212s1.02,0.753,1.711,0.753s1.258-0.249,1.701-0.747
		S56.592,36.764,56.592,35.768z"/>
	<path d="M42.842,63.8c0.186-0.168,0.337-0.444,0.454-0.829s0.176-0.909,0.176-1.573s-0.059-1.174-0.176-1.529
		s-0.281-0.633-0.492-0.832s-0.479-0.334-0.803-0.404c-0.242-0.055-0.717-0.082-1.424-0.082h-0.779v5.689h1.295
		c0.484,0,0.834-0.027,1.049-0.082C42.423,64.087,42.657,63.968,42.842,63.8z"/>
	<polygon points="57.283,49.49 59.627,49.49 58.443,46.303 	"/>
	<path d="M60.742,10.741L50,5.482l-10.759,5.259l-18.5,4.965v68.587l20.448,5.914L50,94.518l8.811-4.311l20.449-5.914V15.706
		L60.742,10.741z M31.969,23.5h35.793v1.811H31.969V23.5z M61.449,60.454v1.447h-4.312v2.338h4.799v1.447h-6.533v-8.59h6.369v1.453
		h-4.635v1.904H61.449z M60.934,52.889l-0.75-1.951H56.75l-0.709,1.951h-1.84l3.346-8.59h1.834l3.439,8.59H60.934z M38.861,50.387
		c0.074,0.352,0.251,0.634,0.53,0.847s0.661,0.319,1.146,0.319c0.492,0,0.863-0.101,1.113-0.302s0.4-0.448,0.451-0.741
		s0.076-0.779,0.076-1.459v-4.752h1.734v4.512c0,1.031-0.047,1.76-0.141,2.186s-0.267,0.785-0.519,1.078s-0.589,0.526-1.011,0.7
		s-0.973,0.261-1.652,0.261c-0.82,0-1.442-0.095-1.866-0.284s-0.759-0.436-1.005-0.738s-0.408-0.62-0.486-0.952
		c-0.113-0.492-0.17-1.219-0.17-2.18v-4.582h1.734v4.652C38.797,49.689,38.818,50.168,38.861,50.387z M38.064,57.097h3.17
		c0.715,0,1.26,0.055,1.635,0.164c0.504,0.148,0.936,0.412,1.295,0.791s0.633,0.843,0.82,1.392s0.281,1.226,0.281,2.03
		c0,0.707-0.088,1.316-0.264,1.828c-0.215,0.625-0.521,1.131-0.92,1.518c-0.301,0.293-0.707,0.521-1.219,0.686
		c-0.383,0.121-0.895,0.182-1.535,0.182h-3.264V57.097z M43.367,34.49v5.602h-1.611v-8.59h1.688l3.516,5.736v-5.736h1.611v8.59
		h-1.74L43.367,34.49z M46.004,46.18c0.375-0.695,0.924-1.229,1.646-1.6c0.551-0.285,1.237-0.428,2.057-0.428
		c1.066,0,1.898,0.224,2.498,0.671s0.986,1.065,1.158,1.854L51.641,47c-0.121-0.422-0.35-0.755-0.684-0.999s-0.75-0.366-1.25-0.366
		c-0.758,0-1.361,0.24-1.808,0.721s-0.671,1.193-0.671,2.139c0,1.02,0.227,1.784,0.68,2.294s1.047,0.765,1.782,0.765
		c0.363,0,0.727-0.071,1.091-0.214c0.365-0.143,0.68-0.315,0.941-0.519v-1.09h-1.986v-1.447h3.738v3.422
		c-0.363,0.352-0.891,0.661-1.58,0.929s-1.387,0.401-2.093,0.401c-0.898,0-1.682-0.188-2.35-0.565s-1.17-0.916-1.506-1.617
		s-0.504-1.464-0.504-2.288C45.441,47.67,45.629,46.875,46.004,46.18z M46.73,57.097h3.17c0.715,0,1.26,0.055,1.635,0.164
		c0.504,0.148,0.936,0.412,1.295,0.791s0.633,0.843,0.82,1.392s0.281,1.226,0.281,2.03c0,0.707-0.088,1.316-0.264,1.828
		c-0.215,0.625-0.521,1.131-0.92,1.518c-0.301,0.293-0.707,0.521-1.219,0.686c-0.383,0.121-0.895,0.182-1.536,0.182H46.73V57.097z
		 M51.184,39.069c-0.754-0.779-1.131-1.853-1.131-3.22c0-0.875,0.131-1.609,0.393-2.203c0.196-0.438,0.461-0.83,0.799-1.178
		s0.709-0.605,1.111-0.773c0.535-0.227,1.152-0.34,1.852-0.34c1.266,0,2.277,0.393,3.037,1.178s1.141,1.877,1.141,3.275
		c0,1.387-0.377,2.472-1.131,3.255s-1.762,1.175-3.023,1.175C52.953,40.238,51.938,39.849,51.184,39.069z M33.702,49.874
		c-0.119-0.143-0.327-0.267-0.624-0.372c-0.203-0.07-0.666-0.195-1.389-0.375c-0.93-0.23-1.582-0.514-1.957-0.85
		c-0.527-0.473-0.791-1.049-0.791-1.729c0-0.438,0.124-0.847,0.372-1.228s0.605-0.671,1.072-0.87s1.03-0.299,1.69-0.299
		c1.078,0,1.89,0.236,2.435,0.709s0.831,1.104,0.858,1.893l-1.734,0.076c-0.074-0.441-0.233-0.759-0.478-0.952
		s-0.61-0.29-1.099-0.29c-0.504,0-0.898,0.104-1.184,0.311c-0.184,0.133-0.275,0.311-0.275,0.533c0,0.203,0.086,0.377,0.258,0.521
		c0.219,0.184,0.75,0.375,1.594,0.574s1.468,0.405,1.872,0.618s0.721,0.504,0.949,0.873s0.343,0.825,0.343,1.368
		c0,0.492-0.137,0.953-0.41,1.383s-0.66,0.749-1.16,0.958s-1.123,0.313-1.869,0.313c-1.086,0-1.92-0.251-2.502-0.753
		s-0.93-1.233-1.043-2.194l1.688-0.164c0.102,0.566,0.308,0.982,0.618,1.248s0.729,0.398,1.257,0.398
		c0.559,0,0.979-0.118,1.263-0.354s0.425-0.513,0.425-0.829C33.881,50.189,33.821,50.017,33.702,49.874z M30.371,65.687h-1.84
		l3.346-8.59h1.834l3.439,8.59h-1.887l-0.75-1.951H31.08L30.371,65.687z M67.762,76.5H31.969v-1.81h35.793V76.5z M70.338,63.302
		c-0.215,0.625-0.521,1.131-0.92,1.518c-0.301,0.293-0.707,0.521-1.219,0.686c-0.383,0.121-0.895,0.182-1.535,0.182H63.4v-8.59h3.17
		c0.715,0,1.26,0.055,1.635,0.164c0.504,0.148,0.936,0.412,1.295,0.791s0.633,0.843,0.82,1.392s0.281,1.226,0.281,2.03
		C70.602,62.181,70.514,62.79,70.338,63.302z M69.395,52.889l-1.254-1.869c-0.445-0.668-0.75-1.089-0.914-1.263
		s-0.338-0.293-0.521-0.357s-0.475-0.097-0.873-0.097H65.48v3.586h-1.734v-8.59h3.65c0.918,0,1.584,0.077,2,0.231
		s0.75,0.429,1,0.823s0.375,0.846,0.375,1.354c0,0.645-0.189,1.177-0.568,1.597s-0.945,0.685-1.699,0.794
		c0.375,0.219,0.684,0.459,0.928,0.721s0.574,0.727,0.988,1.395l1.049,1.676H69.395z"/>
	<path d="M68.809,47.463c0.117-0.172,0.176-0.387,0.176-0.645c0-0.289-0.078-0.522-0.232-0.7s-0.371-0.29-0.652-0.337
		c-0.141-0.02-0.562-0.029-1.266-0.029H65.48v2.18h1.283c0.832,0,1.352-0.035,1.559-0.105S68.691,47.635,68.809,47.463z"/>
</g>
</svg>
