<?xml version="1.0" encoding="utf-8"?>
<!-- Generator: Adobe Illustrator 16.0.4, SVG Export Plug-In . SVG Version: 6.00 Build 0)  -->
<!DOCTYPE svg PUBLIC "-//W3C//DTD SVG 1.1//EN" "http://www.w3.org/Graphics/SVG/1.1/DTD/svg11.dtd">
<svg version="1.1" id="Layer_1" xmlns="http://www.w3.org/2000/svg" xmlns:xlink="http://www.w3.org/1999/xlink" x="0px" y="0px"
	 width="50px" height="50px" viewBox="70 0 50 50" enable-background="new 70 0 50 50" xml:space="preserve">
<title>nongmopaleo</title>
<g>
	<path fill="#22BCA7" d="M116.131,22.682c-0.066-0.654-0.169-1.302-0.307-1.943c-0.279-1.361-0.697-2.69-1.249-3.967
		c-0.921-2.24-2.229-4.301-3.869-6.084c-0.451-0.443-0.847-0.943-1.329-1.347c-2.136-1.976-4.658-3.485-7.408-4.434
		c-1.592-0.548-3.242-0.905-4.917-1.063c-0.747-0.082-1.499-0.111-2.249-0.089c-0.607-0.011-1.217,0.017-1.822,0.081h-0.039
		c-1.817,0.182-3.608,0.59-5.325,1.217c-0.421,0.127-0.826,0.278-1.229,0.452c-1.769,0.78-3.421,1.804-4.908,3.039
		c-0.319,0.291-0.668,0.563-0.992,0.854c-0.67,0.623-1.297,1.291-1.877,1.998c-1.289,1.539-2.348,3.254-3.145,5.095
		c-0.844,1.987-1.387,4.091-1.611,6.239c-0.086,0.754-0.119,1.514-0.098,2.272c0.003,0.756,0.062,1.512,0.178,2.257
		c0.229,2.097,0.752,4.146,1.559,6.095c0.878,2.062,2.078,3.965,3.562,5.645c1.383,1.622,3.016,3.014,4.836,4.119
		c2.414,1.49,5.104,2.482,7.906,2.918c0.354,0.07,0.727,0.062,1.08,0.137c0.748,0.064,1.499,0.09,2.249,0.073
		c0.722,0.021,1.442-0.013,2.16-0.091c3.231-0.34,6.345-1.422,9.093-3.158c0.969-0.592,1.878-1.27,2.725-2.021
		c0.563-0.482,1.071-1.062,1.612-1.613c0.911-0.988,1.722-2.068,2.418-3.223c0.546-0.873,1.017-1.789,1.402-2.742
		c0.844-1.963,1.387-4.041,1.61-6.166c0.086-0.729,0.117-1.465,0.099-2.202C116.268,24.244,116.229,23.459,116.131,22.682z
		 M113.995,26.366c-0.032,0.731-0.121,1.464-0.267,2.185c-0.447,2.399-1.359,4.688-2.687,6.738
		c-0.646,1.034-1.397,2.001-2.241,2.886c-1.525,1.591-3.314,2.905-5.285,3.896c-1.904,0.943-3.953,1.562-6.062,1.839
		c-0.51,0.104-1.032,0.071-1.54,0.151c-0.774,0.043-1.558,0.021-2.329-0.058c-0.578-0.028-1.152-0.095-1.727-0.192
		c-3.438-0.562-6.656-2.063-9.295-4.346c-0.986-0.836-1.883-1.775-2.668-2.805c-0.59-0.812-1.129-1.66-1.609-2.539
		c-1.27-2.316-2.039-4.873-2.268-7.505c0-1.112,0-2.227,0-3.338c0.071-0.541,0.121-1.08,0.228-1.612
		c0.456-2.55,1.427-4.979,2.854-7.142c0.633-0.996,1.373-1.918,2.209-2.75c3.059-3.178,7.129-5.193,11.512-5.698
		c0.41-0.056,0.826-0.083,1.24-0.081c0.651-0.064,1.312-0.064,1.967,0c0.416-0.008,0.832,0.025,1.242,0.097
		c2.778,0.345,5.453,1.296,7.826,2.789c1.684,1.062,3.196,2.371,4.487,3.886c1.522,1.836,2.703,3.938,3.478,6.197
		c0.416,1.238,0.705,2.516,0.858,3.812c0.081,0.459,0.06,0.928,0.113,1.387C114.07,24.899,114.059,25.635,113.995,26.366z"/>
	<path fill="#22BCA7" d="M92.643,7.979c0.088,0.806,0.273,1.611,0.322,2.418c0.242-0.017,0.483-0.064,0.727-0.064
		c-0.162-0.807-0.231-1.611-0.389-2.418c0.383-0.09,0.771-0.148,1.161-0.177c-0.024-0.202-0.089-0.403-0.089-0.604
		c-0.531,0.118-1.07,0.211-1.611,0.274l-0.021-0.017c-0.44,0.078-0.887,0.131-1.33,0.162c0.021,0.201,0.062,0.395,0.062,0.596
		C91.836,8.059,92.256,8.036,92.643,7.979z"/>
	<path fill="#22BCA7" d="M95.584,7.27c-0.082,0.34-0.117,0.689-0.104,1.039c0.016,0.67-0.131,1.322-0.131,1.983h0.719
		c-0.041-1.017,0.129-2.015,0.129-3.022H95.584z"/>
	<path fill="#22BCA7" d="M98.092,9.212c0.43,0.063,0.854,0.156,1.273,0.274c0.057-0.161,0.104-0.322,0.145-0.492
		c-0.443-0.121-0.902-0.227-1.354-0.322c0.039-0.218,0.096-0.436,0.145-0.652c0.586,0.095,1.164,0.224,1.733,0.387l0.177-0.477
		c-0.807-0.218-1.611-0.402-2.418-0.572l0.023,0.009c-0.188,1.008-0.478,1.991-0.676,2.991l0.676,0.08
		C97.879,10.022,97.971,9.614,98.092,9.212z"/>
	<path fill="#22BCA7" d="M88.66,11.227c0.043,0.18,0.129,0.346,0.25,0.483c0.199-0.037,0.387-0.12,0.549-0.241
		c-0.121-0.354-0.291-0.767-0.402-1.162c0.18-0.092,0.365-0.173,0.555-0.242c0.066-0.012,0.138,0.006,0.188,0.05
		c0.354,0.217,0.688,0.483,1.04,0.7c0.312,0.084,0.646,0.039,0.919-0.129c-0.358-0.334-0.743-0.643-1.149-0.918
		c0.209-0.201,0.34-0.47,0.369-0.759c0.002-0.004,0.002-0.008,0.002-0.013c0.026-0.443-0.31-0.828-0.75-0.857
		c-0.348-0.021-0.688,0.045-1,0.192h0.016c-0.482,0.187-0.967,0.354-1.45,0.548C88.137,9.616,88.37,10.421,88.66,11.227z
		 M89.869,8.697c0.184-0.038,0.363,0.079,0.4,0.263c0.018,0.081,0.004,0.165-0.037,0.237c-0.1,0.091-0.213,0.159-0.34,0.2
		c-0.35,0.137-0.701,0.252-1.062,0.348l-0.239-0.573c-0.001,0-0.002,0-0.003,0.001V9.165l0.003,0.007
		C89.007,8.988,89.436,8.829,89.869,8.697z"/>
	<path fill="#22BCA7" d="M100.502,11.325c0.232-0.661,0.572-1.274,0.854-1.918c0.153-0.25,0.268-0.521,0.332-0.807
		c-0.179-0.123-0.379-0.211-0.59-0.258l0.008-0.031c-0.119,0.313-0.266,0.621-0.418,0.918c-0.299,0.604-0.58,1.218-0.854,1.83
		C100.049,11.162,100.273,11.25,100.502,11.325z"/>
	<path fill="#22BCA7" d="M103.773,13.307c0.151,0.121,0.322-0.152,0.322-0.218s0.079-0.169,0-0.218
		c-0.482-0.419-1.104-0.709-1.611-1.145c0.059-0.248,0.195-0.471,0.387-0.638c0.42,0.25,0.83,0.517,1.227,0.806
		c0.088-0.168,0.187-0.33,0.281-0.5c-0.408-0.207-0.796-0.449-1.161-0.725c0.026-0.254,0.14-0.49,0.323-0.669
		c0.467,0.313,0.941,0.621,1.402,0.942c0.117,0.091,0.244,0.169,0.379,0.234c0.104-0.123,0.203-0.256,0.289-0.395
		c-0.668-0.443-1.33-0.879-1.99-1.33c-0.102-0.083-0.225-0.137-0.355-0.153c-0.104,0.12-0.199,0.25-0.281,0.388v0.023
		c-0.459,0.709-0.94,1.402-1.395,2.112C102.307,12.339,103.041,12.824,103.773,13.307z"/>
	<path fill="#22BCA7" d="M85.936,13.557c0.389-0.224,0.756-0.475,1.104-0.75c0.388-0.299,0.813-0.549,1.192-0.854
		c-0.075-0.159-0.168-0.31-0.273-0.451c-0.637,0.363-1.201,0.838-1.805,1.257c-0.158-0.203-0.305-0.416-0.438-0.637
		c0.396-0.242,0.789-0.54,1.201-0.807c-0.084-0.155-0.194-0.295-0.331-0.41c-0.387,0.218-0.79,0.531-1.189,0.806
		c-0.146-0.178-0.273-0.366-0.391-0.563c0.098-0.145,0.225-0.264,0.371-0.348c0.46-0.307,0.902-0.645,1.361-0.951l-0.32-0.419
		c-0.732,0.588-1.521,1.088-2.268,1.66h0.01C84.766,11.908,85.355,12.729,85.936,13.557z"/>
	<path fill="#22BCA7" d="M104.354,13.533c0.379,0.435,0.809,0.813,1.188,1.241c0.244,0.305,0.607,0.488,1,0.5
		c0.868-0.053,1.562-0.744,1.609-1.612c-0.018-0.335-0.152-0.653-0.387-0.896l-1.298-1.322c-0.71,0.709-1.401,1.42-2.129,2.097
		L104.354,13.533z M105.749,13.024c0.22-0.237,0.453-0.461,0.701-0.668v-0.017l0.112-0.041c0.19,0.167,0.375,0.345,0.549,0.532
		c0.168,0.148,0.318,0.32,0.443,0.508c0.112,0.626-0.302,1.227-0.928,1.342c-0.109,0.021-0.229,0.025-0.341,0.012
		c-0.22-0.116-0.406-0.278-0.56-0.476c-0.194-0.188-0.383-0.392-0.556-0.604C105.355,13.407,105.547,13.209,105.749,13.024z"/>
	<path fill="#22BCA7" d="M83.373,15.621c0.455-0.058,0.875-0.274,1.186-0.613c0.498-0.442,0.769-1.091,0.728-1.757h-0.591
		c0.101,0.773-0.367,1.506-1.11,1.741c-0.157,0.022-0.315,0.01-0.472-0.037c-0.563-0.175-0.883-0.776-0.705-1.341
		c0.265-0.549,0.757-0.952,1.347-1.104c-0.062-0.193-0.121-0.396-0.17-0.597c-0.403,0.157-0.774,0.39-1.099,0.685h-0.008
		c-0.393,0.326-0.641,0.793-0.69,1.299c-0.052,0.336,0.019,0.68,0.188,0.975C82.273,15.35,82.807,15.634,83.373,15.621z"/>
	<path fill="#22BCA7" d="M99.824,31.979c0-1.735,0-3.474,0-5.207h4.836c0-0.871,0-1.744,0-2.612h-4.836c0-1.451,0-2.902,0-4.354
		h5.893c0-0.871,0-1.74,0-2.611h-8.932c0,4.931,0,9.861,0,14.787C97.801,31.979,98.809,32.023,99.824,31.979z"/>
	<path fill="#22BCA7" d="M94.964,22.383c-0.056-0.771-0.264-1.525-0.612-2.217c-0.492-0.929-1.258-1.686-2.19-2.168
		c-0.869-0.408-1.812-0.641-2.771-0.686h-5.197H84.16c0,4.934,0,9.859,0,14.793c1.008,0,2.016,0,3.023,0c0-1.273,0-2.558,0-3.83
		c0.698,0,1.407,0,2.108,0c1.058-0.034,2.09-0.312,3.021-0.805c0.5-0.302,0.955-0.675,1.349-1.104
		c0.669-0.765,1.09-1.716,1.209-2.726C94.965,23.229,94.998,22.805,94.964,22.383z M91.877,23.141
		c-0.027,0.558-0.221,1.094-0.557,1.541c-0.572,0.648-1.395,1.027-2.258,1.041c-0.604,0-1.217,0-1.82,0c0-1.925,0-3.849,0-5.771
		l-0.033-0.024c0.523-0.048,1.049,0,1.613,0c0.857-0.055,1.701,0.235,2.346,0.807c0.248,0.275,0.439,0.6,0.562,0.951
		C91.878,22.153,91.928,22.649,91.877,23.141z"/>
	<path fill="#22BCA7" d="M108.619,34.139c-0.107-0.31-0.236-0.605-0.389-0.896c-0.107,0.141-0.191,0.299-0.248,0.467h0.031
		c0.098,0.299,0.25,0.58,0.348,0.889c-0.32,0.064-0.646,0.11-0.969,0.137c-0.156,0.115-0.271,0.281-0.322,0.47
		c0.514-0.093,1.035-0.134,1.557-0.121c0.266,0.129,0.523,0.33,0.807,0.491l0.217-0.436c-0.226-0.146-0.467-0.273-0.686-0.43
		C108.795,34.559,108.674,34.355,108.619,34.139z"/>
	<path fill="#22BCA7" d="M82.316,36.168c0.363,0.163,0.791,0.037,1.008-0.299c0.111-0.276,0.049-0.594-0.161-0.807
		c-0.339-0.389-0.669-0.812-1.022-1.191c-0.613,0.556-1.312,1.021-1.902,1.609l0.349,0.354c0.269-0.202,0.509-0.46,0.808-0.637
		C81.762,35.459,81.922,35.936,82.316,36.168z M81.785,34.889L81.785,34.889c0.104-0.111,0.22-0.215,0.346-0.301
		c0.135,0.035,0.247,0.122,0.314,0.242c0.188,0.199,0.349,0.426,0.477,0.669c-0.037,0.16-0.197,0.261-0.357,0.226
		c-0.059-0.016-0.107-0.045-0.147-0.089C82.18,35.4,81.994,35.139,81.785,34.889c-0.002,0.002-0.006,0.004-0.008,0.008
		L81.785,34.889z"/>
	<path fill="#22BCA7" d="M107.691,36.9c-0.113,0.129-0.281,0-0.379-0.082c-0.348-0.312-0.709-0.603-1.088-0.868l-0.248,0.313
		c0.276,0.303,0.582,0.56,0.885,0.797c0.218,0.194,0.445,0.379,0.686,0.549c0.111-0.055,0.209-0.135,0.281-0.232
		c0.322-0.396,0.652-0.809,0.992-1.201l-0.322-0.232C108.215,36.256,107.975,36.604,107.691,36.9z"/>
	<polygon fill="#22BCA7" points="105.959,36.289 105.979,36.268 105.967,36.256 	"/>
	<path fill="#22BCA7" d="M84.275,36.256c-0.814,0.396-1.676,0.688-2.482,1.098h-0.031c0.098,0.104,0.209,0.195,0.329,0.273
		c0.242,0,0.443-0.161,0.687-0.161c0.279,0.185,0.535,0.402,0.759,0.653c0.024,0.252,0.014,0.508-0.039,0.758
		c0.099,0.145,0.215,0.271,0.346,0.389c0.261-0.849,0.524-1.701,0.81-2.558C84.557,36.532,84.432,36.378,84.275,36.256z
		 M83.783,37.74l-0.539-0.479l-0.023-0.017c0.248-0.147,0.521-0.255,0.805-0.313C83.977,37.211,83.896,37.48,83.783,37.74z"/>
	<path fill="#22BCA7" d="M106.039,36.98c-0.295-0.088-0.615-0.047-0.879,0.113v0.062c-0.362,0.232-0.709,0.523-1.057,0.806
		c0.428,0.524,0.896,1.041,1.299,1.613c0.379-0.272,0.758-0.563,1.121-0.871c0.258-0.263,0.34-0.647,0.209-0.992
		C106.604,37.393,106.355,37.128,106.039,36.98z M106.128,38.498c-0.183,0.163-0.383,0.309-0.597,0.427
		c-0.309-0.276-0.561-0.61-0.742-0.981c0.193-0.235,0.432-0.434,0.702-0.571h-0.009c0.156-0.07,0.34-0.042,0.469,0.071
		c0.213,0.146,0.365,0.367,0.427,0.621C106.381,38.242,106.285,38.409,106.128,38.498z"/>
	<path fill="#22BCA7" d="M84.799,39.305c0.323-0.518,0.637-1.031,0.951-1.549c0.059-0.064,0.085-0.152,0.073-0.24
		c-0.153-0.102-0.317-0.18-0.491-0.232c-0.404,0.726-0.848,1.435-1.282,2.144h-0.008l2.015,1.193
		c0.071-0.119,0.137-0.244,0.193-0.371c-0.104-0.129-0.236-0.233-0.387-0.308C85.504,39.741,85.148,39.527,84.799,39.305z"/>
	<path fill="#22BCA7" d="M103.734,38.145c-0.168-0.002-0.33,0.062-0.452,0.179h0.057c0.284,0.354,0.538,0.735,0.759,1.137
		c-0.604-0.099-1.186-0.272-1.783-0.401c-0.153-0.024-0.312,0.053-0.387,0.191c0.17,0.348,0.428,0.652,0.629,0.982
		c0.15,0.257,0.323,0.498,0.519,0.727c0.12-0.018,0.239-0.049,0.354-0.098c-0.193-0.411-0.425-0.805-0.687-1.178
		c0.543,0.092,1.081,0.211,1.61,0.354c0.185,0.025,0.369-0.04,0.492-0.18c-0.033-0.159-0.107-0.312-0.219-0.437
		C104.322,39.006,104.072,38.537,103.734,38.145z"/>
	<path fill="#22BCA7" d="M87.363,40.158c0.385,0.143,0.758,0.312,1.119,0.508c0.072-0.146,0.138-0.282,0.201-0.428
		c-0.389-0.146-0.748-0.33-1.127-0.477l0.266-0.558c0.523,0.258,1.08,0.476,1.611,0.741c0.049-0.146,0.104-0.291,0.151-0.437
		c-0.729-0.268-1.411-0.612-2.129-0.911v0.041c-0.319,0.788-0.687,1.547-1.031,2.354c0.733,0.29,1.443,0.637,2.179,0.938
		l0.231-0.381c-0.508-0.379-1.11-0.5-1.61-0.807C87.221,40.541,87.268,40.339,87.363,40.158z"/>
	<path fill="#22BCA7" d="M100.809,41.479c-0.08-0.135-0.127-0.287-0.138-0.441c0.287-0.166,0.589-0.305,0.903-0.412l-0.154-0.32
		c-0.307,0.119-0.629,0.228-0.936,0.354l-0.16-0.479c0.459-0.187,0.927-0.33,1.369-0.531l-0.08-0.338
		c-0.62,0.231-1.232,0.481-1.861,0.668l0.008,0.01c0.242,0.67,0.5,1.338,0.742,2.016c0.637-0.17,1.249-0.449,1.878-0.661
		l-0.178-0.368L100.809,41.479z"/>
	<path fill="#22BCA7" d="M90.531,39.948c0.007,0,0.014,0.002,0.021,0.002c0.003,0,0.007-0.002,0.011-0.002H90.531z"/>
	<path fill="#22BCA7" d="M90.553,39.95c-0.226,0.021-0.443,0.09-0.643,0.198c-0.428,0.322-0.633,0.86-0.523,1.388
		c0.117,0.489,0.484,0.884,0.967,1.03c0.508,0.224,1.103,0.108,1.49-0.28c0.455-0.521,0.455-1.294,0-1.812
		C91.495,40.141,91.033,39.955,90.553,39.95z M90.84,42.199c-0.127,0.004-0.252-0.021-0.365-0.074c-0.398-0.16-0.641-0.57-0.58-1
		c0.066-0.348,0.332-0.621,0.676-0.701l-0.008,0.032c0.192-0.044,0.396-0.006,0.56,0.104c0.303,0.155,0.495,0.467,0.5,0.809
		C91.633,41.812,91.284,42.186,90.84,42.199z"/>
	<path fill="#22BCA7" d="M99.059,40.318c-0.158-0.016-0.314-0.016-0.476,0l0.009,0.009c0.178,0.687,0.402,1.36,0.596,2.048
		c0.146-0.049,0.451,0.008,0.451-0.188c-0.062-0.33-0.201-0.646-0.289-0.977C99.273,40.909,99.178,40.607,99.059,40.318z"/>
	<path fill="#22BCA7" d="M98.195,41.496c0.037-0.17,0.037-0.348,0-0.518c-0.057-0.189-0.229-0.326-0.426-0.338
		c-0.561-0.021-1.115,0.024-1.662,0.137l0.01,0.018c0.08,0.701,0.225,1.396,0.225,2.098l0.469-0.099
		c-0.013-0.271-0.043-0.54-0.09-0.806c0.135-0.049,0.277-0.069,0.42-0.064c0.299,0.209,0.483,0.531,0.769,0.758
		c0.2,0.022,0.405,0.022,0.61,0c-0.199-0.279-0.412-0.549-0.638-0.807C97.979,41.738,98.107,41.633,98.195,41.496z M97.695,41.359
		c-0.03,0.037-0.072,0.063-0.119,0.078c-0.299,0.063-0.598,0.063-0.896,0.121c0-0.16,0-0.32,0-0.482l-0.017-0.01
		c0.33-0.062,0.666-0.076,1-0.047C97.768,41.104,97.781,41.258,97.695,41.359z"/>
	<path fill="#22BCA7" d="M93.932,40.754c0.02,0.719-0.039,1.43-0.08,2.139h0.479c0.04-0.295,0.062-0.592,0.056-0.889
		c0.339-0.008,0.673,0.018,1,0.072v-0.419c-0.317,0.013-0.643-0.011-0.959-0.064v-0.476c0.478,0.057,0.951,0.07,1.419,0.137
		c0-0.121,0-0.25,0-0.371c-0.638-0.008-1.266-0.119-1.9-0.119L93.932,40.754z"/>
</g>
<g>
	<path fill="#22BCA7" d="M4.336,33.423h0.701l1.306,3.611l0,0l1.362-3.619h0.661l-1.741,4.426H6.061L4.336,33.423z"/>
	<path fill="#22BCA7" d="M6.706,37.993H5.973L4.16,33.294h0.967l1.232,3.41l1.281-3.41h0.928L6.706,37.993z M6.143,37.743h0.395
		l1.66-4.207H7.802L6.44,37.163H6.246v-0.08l-1.297-3.539H4.521L6.143,37.743z"/>
	<path fill="#22BCA7" d="M11.035,33.423h2.869v0.563H11.64v1.33h2.111v0.562H11.64v1.43h2.418v0.529h-3.023V33.423z"/>
	<path fill="#22BCA7" d="M14.146,37.993h-3.225v-4.699h3.12v0.808H11.76v1.08h2.112v0.805H11.76v1.188h2.418v0.809L14.146,37.993z
		 M11.156,37.743h2.74v-0.322h-2.418v-1.668h2.112v-0.33h-2.079v-1.612h2.272v-0.32h-2.628v4.205v0.048H11.156z"/>
	<path fill="#22BCA7" d="M17,33.423h1.564c0.238-0.008,0.477,0.03,0.701,0.113c0.166,0.065,0.313,0.168,0.436,0.298
		c0.105,0.115,0.182,0.253,0.226,0.402c0.041,0.14,0.062,0.283,0.064,0.429c0.01,0.295-0.095,0.584-0.29,0.806
		c-0.098,0.111-0.217,0.204-0.348,0.274c-0.143,0.075-0.299,0.122-0.459,0.137l1.266,1.959h-0.758l-1.127-1.967h-0.678v1.967H17
		V33.423z M17.596,35.423h0.807c0.115,0.009,0.23,0.009,0.347,0c0.106-0.019,0.211-0.053,0.306-0.104
		c0.092-0.051,0.168-0.127,0.219-0.219c0.107-0.229,0.107-0.5,0-0.73c-0.051-0.094-0.127-0.166-0.219-0.221
		c-0.095-0.051-0.199-0.088-0.306-0.104c-0.116-0.01-0.231-0.01-0.347,0h-0.807V35.423z"/>
	<path fill="#22BCA7" d="M20.385,37.993h-1.048l-1.128-1.968h-0.484v1.968h-0.854v-4.699h1.693c0.256-0.006,0.511,0.037,0.75,0.129
		c0.184,0.073,0.349,0.187,0.483,0.33c0.117,0.13,0.202,0.284,0.25,0.452c0.043,0.15,0.065,0.311,0.063,0.468
		c0.002,0.313-0.112,0.619-0.321,0.854c-0.106,0.121-0.235,0.223-0.379,0.299c-0.099,0.055-0.205,0.095-0.313,0.121L20.385,37.993z
		 M19.482,37.743h0.467L18.7,35.729h0.2c0.276-0.024,0.533-0.153,0.718-0.36c0.167-0.188,0.259-0.437,0.258-0.688
		c-0.001-0.134-0.021-0.267-0.058-0.395c-0.035-0.133-0.103-0.254-0.192-0.355c-0.11-0.115-0.246-0.207-0.396-0.266
		c-0.207-0.078-0.431-0.113-0.652-0.105h-1.459v4.209h0.354v-1.981h0.863L19.482,37.743z M18.395,35.503h-0.92v-1.692h0.92
		c0.123-0.011,0.248-0.011,0.371,0c0.121,0.021,0.238,0.062,0.346,0.121c0.111,0.062,0.203,0.153,0.266,0.268
		c0.132,0.271,0.132,0.591,0,0.861c-0.062,0.11-0.154,0.203-0.266,0.268c-0.108,0.058-0.225,0.096-0.346,0.111
		C18.645,35.471,18.52,35.491,18.395,35.503z M17.725,35.253h0.67c0.109,0.009,0.221,0.009,0.33,0
		c0.094-0.014,0.184-0.044,0.267-0.089c0.067-0.048,0.122-0.116,0.153-0.193c0.047-0.095,0.068-0.199,0.064-0.306
		c0.004-0.106-0.018-0.212-0.064-0.308c-0.041-0.069-0.1-0.129-0.17-0.17c-0.082-0.045-0.173-0.073-0.266-0.088
		c-0.109-0.012-0.221-0.012-0.331,0h-0.653v1.158V35.253z"/>
	<path fill="#22BCA7" d="M22.957,33.423h0.604v4.418h-0.604V33.423z"/>
	<path fill="#22BCA7" d="M23.689,37.993h-0.854v-4.699h0.854V37.993L23.689,37.993z M23.085,37.743h0.354v-4.199h-0.354v4.207
		V37.743z"/>
	<path fill="#22BCA7" d="M26.826,33.423h2.797v0.563H27.43v1.437h2.049v0.563H27.43v1.854h-0.604V33.423z"/>
	<path fill="#22BCA7" d="M27.559,37.993h-0.854v-4.699h3.047v0.808h-2.193v1.159h2.064v0.808h-2.064V37.993L27.559,37.993z
		 M26.955,37.743h0.354v-1.918h2.049v-0.322h-2.049v-1.612h2.193v-0.322h-2.547v4.209V37.743z"/>
	<path fill="#22BCA7" d="M32.549,33.423h0.604v4.418h-0.604V33.423z"/>
	<path fill="#22BCA7" d="M33.273,37.993H32.42v-4.699h0.854V37.993L33.273,37.993z M32.67,37.743h0.354v-4.199H32.67v4.207V37.743z"
		/>
	<path fill="#22BCA7" d="M36.4,33.423h2.895v0.563h-2.289v1.33h2.112v0.562h-2.112v1.43h2.418v0.529h-3.021v-4.417L36.4,33.423
		L36.4,33.423z"/>
	<path fill="#22BCA7" d="M39.514,37.993h-3.225v-4.699h3.119v0.808h-2.281v1.08h2.111v0.805h-2.111v1.188h2.418v0.809L39.514,37.993
		z M36.521,37.743h2.771v-0.322h-2.418v-1.668h2.11v-0.33h-2.11v-1.612h2.271v-0.32H36.52v4.205v0.049L36.521,37.743L36.521,37.743z
		"/>
	<path fill="#22BCA7" d="M42.254,33.423h1.555c0.273-0.003,0.545,0.033,0.81,0.104c0.218,0.062,0.425,0.162,0.61,0.289
		c0.166,0.113,0.312,0.252,0.438,0.412c0.107,0.146,0.203,0.308,0.271,0.476c0.065,0.159,0.114,0.323,0.146,0.491
		c0.025,0.146,0.041,0.302,0.041,0.451c-0.001,0.274-0.055,0.549-0.152,0.808c-0.104,0.267-0.266,0.508-0.469,0.709
		c-0.219,0.217-0.479,0.387-0.768,0.5c-0.336,0.131-0.693,0.192-1.057,0.187H42.23v-4.427H42.254z M42.857,37.309h0.758
		c0.246,0.002,0.49-0.033,0.727-0.104c0.217-0.066,0.42-0.173,0.596-0.314c0.174-0.14,0.314-0.313,0.412-0.517
		c0.105-0.228,0.158-0.476,0.152-0.726c-0.005-0.168-0.029-0.336-0.072-0.5c-0.05-0.191-0.138-0.373-0.258-0.531
		c-0.143-0.184-0.324-0.332-0.531-0.436c-0.272-0.132-0.576-0.189-0.879-0.181h-0.904v3.321V37.309L42.857,37.309z"/>
	<path fill="#22BCA7" d="M43.705,37.993h-1.613v-4.699h1.717c0.293-0.004,0.582,0.034,0.863,0.113
		c0.232,0.067,0.453,0.17,0.652,0.307c0.18,0.121,0.338,0.271,0.468,0.443c0.118,0.155,0.216,0.325,0.29,0.508
		c0.068,0.166,0.121,0.338,0.152,0.517c0.031,0.155,0.047,0.314,0.049,0.477c0,0.299-0.059,0.594-0.168,0.869
		c-0.111,0.281-0.279,0.535-0.492,0.75c-0.23,0.229-0.506,0.404-0.807,0.522C44.463,37.938,44.084,38.003,43.705,37.993z
		 M42.375,37.743h1.33c0.344,0.008,0.686-0.054,1.007-0.177c0.271-0.108,0.519-0.271,0.726-0.479
		c0.189-0.189,0.338-0.419,0.438-0.669c0.103-0.257,0.147-0.528,0.146-0.806c0-0.146-0.016-0.287-0.041-0.43
		c-0.026-0.16-0.073-0.315-0.139-0.469c-0.064-0.16-0.15-0.312-0.258-0.451c-0.109-0.146-0.248-0.279-0.4-0.387
		c-0.18-0.12-0.375-0.214-0.58-0.273c-0.265-0.071-0.535-0.107-0.809-0.104h-1.418v4.208L42.375,37.743L42.375,37.743z
		 M43.615,37.421h-0.887v-3.555h1.029c0.323-0.013,0.646,0.055,0.938,0.192c0.225,0.111,0.42,0.274,0.572,0.478
		c0.133,0.174,0.229,0.375,0.28,0.588c0.048,0.174,0.068,0.353,0.072,0.53c0.01,0.279-0.045,0.556-0.161,0.808
		c-0.104,0.22-0.255,0.412-0.441,0.563c-0.19,0.148-0.41,0.265-0.646,0.33c-0.247,0.062-0.502,0.086-0.76,0.07V37.42L43.615,37.421
		L43.615,37.421z M42.979,37.171h0.64c0.233,0.002,0.469-0.03,0.69-0.096c0.203-0.062,0.396-0.158,0.56-0.291
		c0.157-0.128,0.286-0.291,0.379-0.476c0.096-0.211,0.146-0.438,0.137-0.67c-0.004-0.158-0.022-0.313-0.062-0.469
		c-0.047-0.182-0.129-0.354-0.242-0.5c-0.131-0.17-0.299-0.309-0.491-0.4c-0.253-0.117-0.528-0.172-0.806-0.162h-0.807v3.08
		L42.979,37.171z"/>
	<path fill="#22BCA7" d="M4.336,33.423h0.701l1.306,3.611l0,0l1.362-3.627h0.661l-1.741,4.434H6.061L4.336,33.423z"/>
	<path fill="#22BCA7" d="M6.706,38.001H5.973L4.16,33.302h0.967l1.232,3.41l1.273-3.41H8.56L6.706,38.001z M6.143,37.751h0.395
		l1.66-4.207H7.802L6.44,37.171H6.246v-0.088l-1.297-3.539H4.521L6.143,37.751z"/>
	<path fill="#22BCA7" d="M11.035,33.423h2.869v0.563H11.64v1.33h2.111v0.562H11.64v1.43h2.418v0.529h-3.023V33.423z"/>
	<path fill="#22BCA7" d="M14.146,38.001h-3.225v-4.699h3.12v0.808H11.76v1.08h2.112v0.809H11.76v1.186h2.418v0.807L14.146,38.001z
		 M11.156,37.751h2.74V37.43h-2.418v-1.669h2.112v-0.338h-2.079v-1.612h2.272v-0.32h-2.628v4.205v0.056H11.156z"/>
	<path fill="#22BCA7" d="M17,33.423h1.564c0.662-0.116,1.293,0.326,1.408,0.988c0.016,0.086,0.021,0.174,0.019,0.262
		c-0.007,0.616-0.481,1.127-1.097,1.177l1.266,1.991h-0.75l-1.128-1.967h-0.677v1.967H17V33.423z M17.604,35.423h0.807
		c0.396,0.119,0.814-0.104,0.936-0.5c0.119-0.396-0.104-0.815-0.5-0.937c-0.143-0.043-0.294-0.043-0.436,0h-0.807V35.423z"/>
	<path fill="#22BCA7" d="M20.385,38.001h-1.048l-1.128-1.967h-0.484v1.967h-0.854v-4.699h1.693c0.729-0.12,1.418,0.373,1.539,1.103
		c0.015,0.092,0.021,0.182,0.017,0.271c0,0.607-0.423,1.135-1.017,1.268L20.385,38.001z M19.482,37.751h0.467l-1.266-2.006h0.193
		c0.553-0.043,0.98-0.502,0.982-1.058c0.024-0.604-0.445-1.114-1.051-1.142c-0.084-0.003-0.17,0.003-0.254,0.021h-1.436v4.207h0.354
		v-1.981h0.863L19.482,37.751z M18.395,35.511h-0.92v-1.7h0.92c0.717,0,1.08,0.282,1.08,0.809
		C19.475,35.141,19.145,35.511,18.395,35.511z M17.725,35.261h0.67c0.58,0,0.806-0.178,0.806-0.596c0-0.42-0.25-0.599-0.806-0.599
		h-0.67V35.261z"/>
	<path fill="#22BCA7" d="M22.957,33.423h0.604v4.418h-0.604V33.423z"/>
	<path fill="#22BCA7" d="M23.689,38.001h-0.854v-4.699h0.854V38.001z M23.085,37.751h0.354v-4.207h-0.354V37.751z"/>
	<path fill="#22BCA7" d="M26.826,33.423h2.797v0.563h-2.201v1.437h2.047v0.563h-2.047v1.854h-0.596V33.423z"/>
	<path fill="#22BCA7" d="M27.551,38.001h-0.854v-4.699h3.047v0.808h-2.193v1.151h2.072v0.808h-2.072V38.001z M26.945,37.751H27.3
		v-1.926h2.048v-0.322H27.3v-1.612h2.193v-0.322h-2.548v4.209V37.751L26.945,37.751z"/>
	<path fill="#22BCA7" d="M32.541,33.423h0.604v4.418h-0.604V33.423z"/>
	<path fill="#22BCA7" d="M33.266,38.001H32.42v-4.699h0.854v4.699H33.266z M32.662,37.751h0.354v-4.207h-0.354V37.751z"/>
	<path fill="#22BCA7" d="M36.395,33.423h2.9v0.563h-2.297v1.33h2.111v0.562h-2.111v1.43h2.418v0.529h-3.021V33.423L36.395,33.423z"
		/>
	<path fill="#22BCA7" d="M39.505,38.001h-3.224v-4.699H39.4v0.808h-2.273v1.08h2.111v0.809h-2.111v1.186h2.418v0.807L39.505,38.001z
		 M36.516,37.751h2.779V37.43h-2.418v-1.669h2.111v-0.338h-2.111v-1.612h2.273v-0.32h-2.629v4.205L36.516,37.751z"/>
	<path fill="#22BCA7" d="M42.246,33.423h1.555c1.186-0.104,2.229,0.772,2.332,1.957c0.008,0.091,0.01,0.179,0.006,0.269
		c-0.01,1.242-1.021,2.24-2.267,2.23c-0.05-0.001-0.101-0.003-0.151-0.007H42.27v-4.449H42.246z M42.85,37.309h0.758
		c0.927,0.11,1.767-0.548,1.875-1.472c0.01-0.062,0.015-0.126,0.015-0.188c0.026-0.891-0.668-1.635-1.56-1.664
		c-0.062-0.002-0.123-0.002-0.185,0.006H42.85V37.309L42.85,37.309z"/>
	<path fill="#22BCA7" d="M43.695,38.001h-1.611v-4.699h1.678c1.24-0.116,2.342,0.796,2.459,2.035
		c0.01,0.104,0.012,0.213,0.008,0.317c-0.039,1.337-1.15,2.388-2.485,2.349C43.727,38.003,43.711,38.003,43.695,38.001z
		 M42.366,37.751h1.329c1.166,0.106,2.199-0.751,2.306-1.917c0.006-0.062,0.009-0.124,0.009-0.188
		c0.035-1.129-0.853-2.073-1.982-2.108c-0.075-0.002-0.153,0-0.231,0.006h-1.427L42.366,37.751L42.366,37.751z M43.607,37.43h-0.887
		v-3.562h1.029c0.938-0.091,1.771,0.599,1.863,1.536c0.009,0.082,0.011,0.162,0.007,0.244c-0.015,1.002-0.833,1.806-1.834,1.793
		C43.729,37.439,43.668,37.438,43.607,37.43z M42.971,37.18h0.637c0.89,0.086,1.677-0.562,1.763-1.449
		c0.002-0.028,0.005-0.062,0.006-0.09c0.039-0.812-0.589-1.506-1.399-1.545c-0.07-0.004-0.144-0.002-0.211,0.006h-0.808v3.078
		H42.971z"/>
	<g>
		<path fill="#22BCA7" d="M13.113,18.753v0.04c0.523,1.271,0.914,2.598,1.162,3.95c0.395-0.661,2.199-3.651,1.998-6.029
			C16.178,15.593,14.275,15.674,13.113,18.753z"/>
		<path fill="#22BCA7" d="M9.182,15.102c-0.807-0.516-2.298-0.072-0.492,3.982c0,0-1.347,2.168,0.726,3.135
			c1.29,0.629,2.976,0.355,4.329,0.943C14.227,23.372,12.518,17.148,9.182,15.102z"/>
		<path fill="#22BCA7" d="M34.949,26.852c-0.783-0.342-1.695,0.019-2.037,0.799c-0.082,0.188-0.123,0.39-0.121,0.593
			c0,0.397,0.162,0.782,0.451,1.062c0.617,0.567,1.566,0.567,2.184,0c0.139-0.136,0.248-0.298,0.322-0.476
			c0.082-0.187,0.123-0.388,0.121-0.588c0.002-0.203-0.039-0.404-0.121-0.591C35.592,27.293,35.307,27.008,34.949,26.852z
			 M35.217,28.643c-0.039,0.116-0.104,0.226-0.186,0.314c-0.084,0.09-0.186,0.161-0.299,0.209c-0.258,0.104-0.547,0.104-0.808,0
			c-0.11-0.047-0.215-0.119-0.299-0.209c-0.082-0.091-0.146-0.198-0.188-0.314c-0.045-0.129-0.063-0.266-0.062-0.399
			c-0.002-0.14,0.021-0.274,0.062-0.404c0.039-0.112,0.104-0.223,0.188-0.312c0.084-0.09,0.188-0.16,0.299-0.209
			c0.261-0.104,0.55-0.104,0.808,0c0.113,0.049,0.215,0.119,0.299,0.209c0.082,0.092,0.146,0.199,0.186,0.312
			C35.307,28.098,35.307,28.381,35.217,28.643z"/>
		<path fill="#22BCA7" d="M32.041,26.781c-0.078,0.025-0.154,0.061-0.227,0.104c-0.072,0.045-0.144,0.1-0.201,0.162
			c-0.059,0.062-0.107,0.133-0.146,0.209v-0.443H30.92v2.91h0.549v-1.435c-0.021-0.249,0.053-0.497,0.209-0.692
			c0.164-0.158,0.387-0.24,0.613-0.227h0.121h0.137v-0.588c-0.08-0.014-0.162-0.014-0.242,0
			C32.219,26.768,32.129,26.768,32.041,26.781z"/>
		<path fill="#22BCA7" d="M30.09,25.798c-0.119-0.125-0.266-0.222-0.426-0.282c-0.221-0.082-0.453-0.121-0.686-0.113H27.46v4.257
			h0.588v-1.889h0.931c0.229,0.008,0.465-0.028,0.686-0.11c0.16-0.062,0.307-0.157,0.426-0.282c0.102-0.109,0.176-0.242,0.219-0.387
			c0.076-0.266,0.076-0.543,0-0.807C30.266,26.04,30.191,25.908,30.09,25.798z M29.703,26.982c-0.049,0.088-0.121,0.16-0.209,0.209
			c-0.094,0.049-0.193,0.082-0.299,0.098c-0.113,0.008-0.225,0.008-0.338,0H28.05v-1.322h0.808c0.113-0.009,0.227-0.009,0.338,0
			c0.104,0.016,0.205,0.047,0.301,0.098c0.088,0.051,0.158,0.121,0.209,0.209C29.812,26.497,29.812,26.758,29.703,26.982z"/>
		<path fill="#22BCA7" d="M36.562,25.499c-0.078,0.075-0.123,0.181-0.121,0.29c0.002,0.104,0.047,0.203,0.121,0.273
			c0.158,0.151,0.408,0.151,0.562,0c0.002-0.002,0.004-0.004,0.006-0.006c0.152-0.154,0.149-0.406-0.006-0.561
			C36.971,25.346,36.721,25.346,36.562,25.499z"/>
		<path fill="#22BCA7" d="M36.588,30.045c0.006,0.143-0.023,0.285-0.09,0.41c-0.07,0.104-0.189,0.158-0.314,0.146h-0.108H35.96
			l-0.063,0.5l0.18,0.039l0.176-0.011c0.18,0.015,0.354-0.028,0.508-0.121c0.113-0.067,0.205-0.17,0.27-0.286
			c0.054-0.109,0.086-0.229,0.097-0.351c0-0.121,0-0.218,0-0.289V26.82h-0.53v3.225H36.588z"/>
		<polygon fill="#22BCA7" points="42.092,14.102 44.455,17.954 46.018,17.954 46.018,12.538 44.824,12.538 44.824,16.302 
			42.52,12.538 40.908,12.538 40.908,17.954 42.092,17.954 		"/>
		<path fill="#22BCA7" d="M34.807,17.334c0.269,0.252,0.582,0.447,0.926,0.572c0.761,0.266,1.582,0.266,2.338,0
			c0.349-0.125,0.66-0.32,0.931-0.572c0.265-0.255,0.47-0.562,0.604-0.902c0.291-0.759,0.291-1.597,0-2.354
			c-0.137-0.341-0.344-0.647-0.604-0.902c-0.271-0.253-0.582-0.446-0.931-0.571c-0.756-0.267-1.577-0.267-2.338,0
			c-0.348,0.121-0.666,0.312-0.936,0.562c-0.262,0.255-0.469,0.562-0.604,0.902c-0.15,0.375-0.223,0.774-0.219,1.178
			c-0.004,0.406,0.071,0.809,0.227,1.186C34.336,16.771,34.543,17.079,34.807,17.334z M35.361,14.553
			c0.074-0.205,0.188-0.396,0.34-0.556c0.148-0.157,0.33-0.281,0.531-0.363c0.442-0.174,0.938-0.174,1.387,0
			C37.82,13.717,38,13.84,38.15,13.997c0.147,0.16,0.266,0.351,0.34,0.556c0.156,0.451,0.156,0.943,0,1.396
			c-0.082,0.206-0.207,0.393-0.363,0.548c-0.15,0.156-0.332,0.281-0.531,0.363c-0.447,0.174-0.941,0.174-1.387,0
			c-0.201-0.082-0.383-0.205-0.533-0.363c-0.148-0.157-0.264-0.344-0.338-0.548c-0.082-0.226-0.123-0.462-0.121-0.701
			C35.223,15.008,35.273,14.773,35.361,14.553z"/>
		<path fill="#22BCA7" d="M28.979,24.451c0.373,0.137,0.771,0.205,1.168,0.201c0.396,0,0.785-0.041,1.17-0.12
			c0.386-0.081,0.759-0.214,1.104-0.396v-2.829h-2.119v1.104h0.935v0.879c-0.117,0.063-0.24,0.117-0.369,0.161
			c-0.221,0.062-0.447,0.093-0.678,0.088c-0.236,0.005-0.476-0.039-0.691-0.129c-0.201-0.081-0.385-0.205-0.533-0.362
			c-0.146-0.157-0.264-0.345-0.338-0.548c-0.158-0.452-0.158-0.943,0-1.395c0.074-0.207,0.188-0.396,0.338-0.558
			c0.148-0.155,0.332-0.28,0.533-0.362c0.221-0.088,0.455-0.133,0.691-0.129c0.264-0.009,0.521,0.035,0.768,0.129
			c0.205,0.088,0.395,0.217,0.547,0.379l0.809-0.918c-0.271-0.254-0.604-0.438-0.959-0.541c-0.393-0.106-0.795-0.158-1.201-0.152
			c-0.397-0.004-0.795,0.064-1.168,0.201c-0.346,0.125-0.662,0.32-0.928,0.572c-0.266,0.254-0.471,0.562-0.604,0.902
			c-0.291,0.758-0.291,1.596,0,2.354c0.135,0.342,0.34,0.648,0.604,0.902C28.318,24.137,28.633,24.329,28.979,24.451z"/>
		<polygon fill="#22BCA7" points="28.986,14.102 31.355,17.954 32.887,17.954 32.887,12.538 31.695,12.538 31.695,16.302 
			29.389,12.538 27.777,12.538 27.777,17.954 28.986,17.954 		"/>
		<path fill="#22BCA7" d="M0.508,9.758v30.484h48.984V9.758H0.508z M24.956,10.555h23.479V31.52H24.956V10.555L24.956,10.555z
			 M48.443,39.193H1.557v-7.076h7.608c-0.798-3.596-2.724-7.068-5.845-10.85c3.878,1.467,6.844,4.176,8.102,7.465
			c0.627-1.582,1.371-3.115,2.225-4.588l0.09-0.629c-2.291-0.289-4.135,0.508-6.159-1.427c-1.378-1.321-0.169-3.417-0.169-3.417
			c-2.62-5.949-0.098-6.73,1.023-6.062c1.99,1.193,3.409,3.379,4.36,5.49c1.772-4.16,4.336-4.062,4.538-2.975
			c0.283,1.518-0.184,3.191-0.833,4.646c0.024-0.054,0.052-0.104,0.076-0.156c2.571-3.538,5.465-6.715,7.754-7.771
			c-4.546,5.893-8.254,12.93-9.503,20.267h33.621v7.084H48.443L48.443,39.193z"/>
		<path fill="#22BCA7" d="M45.543,26.007h-0.549v0.806h-0.637v0.471h0.604v1.488c-0.02,0.082-0.021,0.166-0.018,0.248
			c0.041,0.443,0.436,0.771,0.879,0.729c0.17,0.002,0.336-0.031,0.49-0.099v-0.489c-0.121,0.06-0.254,0.086-0.388,0.08
			c-0.411,0-0.411-0.341-0.411-0.66v-1.302h0.809h0.021v-0.467h-0.805v-0.806H45.543L45.543,26.007z"/>
		<path fill="#22BCA7" d="M43.504,27.57l0.418-0.379c-0.291-0.299-0.693-0.463-1.111-0.451c-0.414,0-0.809,0.17-1.094,0.467
			c-0.578,0.605-0.559,1.564,0.047,2.143c0.605,0.58,1.564,0.562,2.146-0.047l-0.39-0.387c-0.17,0.213-0.43,0.332-0.701,0.322
			c-0.239-0.004-0.473-0.1-0.646-0.266c-0.389-0.367-0.403-0.979-0.034-1.367C42.504,27.219,43.115,27.203,43.504,27.57z"/>
		<path fill="#22BCA7" d="M45.85,19.76c-0.268-0.252-0.582-0.447-0.928-0.572c-0.756-0.266-1.58-0.266-2.338,0
			c-0.346,0.125-0.66,0.32-0.926,0.572c-0.264,0.256-0.471,0.562-0.605,0.903c-0.146,0.366-0.221,0.758-0.217,1.151
			c-0.006,0.4,0.068,0.797,0.217,1.17c0.135,0.341,0.342,0.647,0.605,0.901c0.268,0.255,0.586,0.448,0.934,0.572
			c0.758,0.267,1.582,0.267,2.338,0c0.346-0.125,0.66-0.319,0.928-0.572c0.263-0.245,0.468-0.54,0.604-0.87
			c0.291-0.758,0.291-1.596,0-2.354C46.324,20.322,46.115,20.014,45.85,19.76z M45.316,22.533c-0.074,0.203-0.189,0.39-0.338,0.548
			c-0.152,0.158-0.336,0.28-0.541,0.362c-0.445,0.175-0.939,0.175-1.388,0c-0.198-0.082-0.383-0.205-0.53-0.362
			c-0.146-0.164-0.254-0.356-0.322-0.563c-0.082-0.226-0.123-0.463-0.121-0.701c-0.002-0.23,0.037-0.461,0.113-0.678
			c0.074-0.207,0.188-0.396,0.338-0.557c0.147-0.156,0.332-0.28,0.533-0.361c0.442-0.176,0.938-0.176,1.387,0
			c0.199,0.081,0.381,0.205,0.531,0.361c0.146,0.16,0.264,0.35,0.338,0.557C45.475,21.59,45.475,22.081,45.316,22.533z"/>
		<polygon fill="#22BCA7" points="38.73,24.516 38.73,24.523 39.932,24.523 39.932,24.516 39.932,19.107 39.932,19.1 38.135,19.1 
			36.877,22.639 35.611,19.107 33.807,19.107 33.807,24.516 35.016,24.516 35.016,20.364 36.385,24.516 37.305,24.516 38.73,20.364 
					"/>
		<path fill="#22BCA7" d="M40.48,27.216c-0.117-0.146-0.269-0.265-0.438-0.347c-0.205-0.094-0.429-0.139-0.649-0.129
			c-0.205-0.002-0.408,0.035-0.601,0.113c-0.179,0.068-0.34,0.178-0.478,0.312c-0.135,0.136-0.239,0.297-0.312,0.478
			c-0.073,0.188-0.112,0.393-0.11,0.598c-0.002,0.203,0.03,0.404,0.104,0.596c0.064,0.178,0.168,0.339,0.299,0.475
			c0.131,0.14,0.291,0.244,0.469,0.314c0.195,0.078,0.406,0.117,0.619,0.113c0.496,0.021,0.977-0.195,1.281-0.588l-0.412-0.314
			c-0.096,0.123-0.213,0.229-0.346,0.314c-0.135,0.082-0.287,0.125-0.443,0.121c-0.123,0-0.246-0.021-0.361-0.06
			c-0.113-0.037-0.221-0.096-0.313-0.17c-0.09-0.069-0.162-0.163-0.218-0.269c-0.055-0.104-0.082-0.221-0.079-0.338h2.312v-0.19
			c0.004-0.188-0.021-0.37-0.07-0.55C40.68,27.523,40.596,27.359,40.48,27.216z M38.498,28.006c0.002-0.1,0.023-0.199,0.064-0.291
			c0.043-0.098,0.104-0.188,0.178-0.266c0.17-0.178,0.406-0.275,0.652-0.273c0.123-0.002,0.246,0.02,0.36,0.064
			c0.192,0.076,0.347,0.236,0.41,0.436c0.035,0.106,0.058,0.219,0.06,0.33H38.498z"/>
	</g>
</g>
<g>
	<path fill="#22BCA7" d="M186.881,21.807c-0.066-0.654-0.169-1.302-0.307-1.943c-0.279-1.361-0.697-2.69-1.249-3.967
		c-0.921-2.24-2.229-4.301-3.869-6.084c-0.451-0.443-0.847-0.943-1.329-1.347c-2.136-1.976-4.658-3.485-7.408-4.434
		c-1.592-0.548-3.242-0.905-4.917-1.063c-0.747-0.082-1.499-0.111-2.249-0.089c-0.607-0.011-1.217,0.017-1.822,0.081h-0.039
		c-1.817,0.182-3.608,0.59-5.325,1.217c-0.421,0.127-0.826,0.278-1.229,0.452c-1.769,0.78-3.421,1.804-4.908,3.039
		c-0.319,0.291-0.668,0.563-0.992,0.854c-0.67,0.623-1.297,1.291-1.877,1.998c-1.289,1.539-2.348,3.254-3.145,5.095
		c-0.844,1.987-1.387,4.091-1.611,6.239c-0.086,0.754-0.119,1.514-0.098,2.272c0.003,0.756,0.062,1.512,0.178,2.257
		c0.229,2.097,0.752,4.146,1.559,6.095c0.878,2.062,2.078,3.965,3.562,5.645c1.383,1.622,3.016,3.014,4.836,4.119
		c2.414,1.49,5.104,2.482,7.906,2.918c0.354,0.07,0.727,0.062,1.08,0.137c0.748,0.064,1.499,0.09,2.249,0.073
		c0.722,0.021,1.442-0.013,2.16-0.091c3.231-0.34,6.345-1.422,9.093-3.158c0.969-0.592,1.878-1.27,2.725-2.021
		c0.563-0.482,1.071-1.062,1.612-1.613c0.911-0.988,1.722-2.068,2.418-3.223c0.546-0.873,1.017-1.789,1.402-2.742
		c0.844-1.963,1.387-4.041,1.61-6.166c0.086-0.729,0.117-1.465,0.099-2.202C187.018,23.369,186.979,22.584,186.881,21.807z
		 M184.745,25.491c-0.032,0.731-0.121,1.464-0.267,2.185c-0.447,2.399-1.359,4.688-2.687,6.738
		c-0.646,1.034-1.397,2.001-2.241,2.886c-1.525,1.591-3.314,2.905-5.285,3.896c-1.904,0.943-3.953,1.562-6.062,1.839
		c-0.51,0.104-1.032,0.071-1.54,0.151c-0.774,0.043-1.558,0.021-2.329-0.058c-0.578-0.028-1.152-0.095-1.727-0.192
		c-3.438-0.562-6.656-2.063-9.295-4.346c-0.986-0.836-1.883-1.775-2.668-2.805c-0.59-0.812-1.129-1.66-1.609-2.539
		c-1.27-2.316-2.039-4.873-2.268-7.505c0-1.112,0-2.227,0-3.338c0.071-0.541,0.121-1.08,0.228-1.612
		c0.456-2.55,1.427-4.979,2.854-7.142c0.633-0.996,1.373-1.918,2.209-2.75c3.059-3.178,7.129-5.193,11.512-5.698
		c0.41-0.056,0.826-0.083,1.24-0.081c0.651-0.064,1.312-0.064,1.967,0c0.416-0.008,0.832,0.025,1.242,0.097
		c2.778,0.345,5.453,1.296,7.826,2.789c1.684,1.062,3.196,2.371,4.487,3.886c1.522,1.836,2.703,3.938,3.478,6.197
		c0.416,1.238,0.705,2.516,0.858,3.812c0.081,0.459,0.06,0.928,0.113,1.387C184.82,24.024,184.809,24.76,184.745,25.491z"/>
	<path fill="#22BCA7" d="M163.393,7.104c0.088,0.806,0.273,1.611,0.322,2.418c0.242-0.017,0.483-0.064,0.727-0.064
		c-0.162-0.807-0.231-1.611-0.389-2.418c0.383-0.09,0.771-0.148,1.161-0.177c-0.024-0.202-0.089-0.403-0.089-0.604
		c-0.531,0.118-1.07,0.211-1.611,0.274l-0.021-0.017c-0.44,0.078-0.887,0.131-1.33,0.162c0.021,0.201,0.062,0.395,0.062,0.596
		C162.586,7.184,163.006,7.161,163.393,7.104z"/>
	<path fill="#22BCA7" d="M166.334,6.395c-0.082,0.34-0.117,0.689-0.104,1.039c0.016,0.67-0.131,1.322-0.131,1.983h0.719
		c-0.041-1.017,0.129-2.015,0.129-3.022H166.334z"/>
	<path fill="#22BCA7" d="M168.842,8.337c0.43,0.063,0.854,0.156,1.273,0.274c0.057-0.161,0.104-0.322,0.145-0.492
		c-0.443-0.121-0.902-0.227-1.354-0.322c0.039-0.218,0.096-0.436,0.145-0.652c0.586,0.095,1.164,0.224,1.733,0.387l0.177-0.477
		c-0.807-0.218-1.611-0.402-2.418-0.572l0.023,0.009c-0.188,1.008-0.478,1.991-0.676,2.991l0.676,0.08
		C168.629,9.147,168.721,8.739,168.842,8.337z"/>
	<path fill="#22BCA7" d="M159.41,10.352c0.043,0.18,0.129,0.346,0.25,0.483c0.199-0.037,0.387-0.12,0.549-0.241
		c-0.121-0.354-0.291-0.767-0.402-1.162c0.18-0.092,0.365-0.173,0.555-0.242c0.066-0.012,0.138,0.006,0.188,0.05
		c0.354,0.217,0.688,0.483,1.04,0.7c0.312,0.084,0.646,0.039,0.919-0.129c-0.358-0.334-0.743-0.643-1.149-0.918
		c0.209-0.201,0.34-0.47,0.369-0.759c0.002-0.004,0.002-0.008,0.002-0.013c0.026-0.443-0.31-0.828-0.75-0.857
		c-0.348-0.021-0.688,0.045-1,0.192h0.016c-0.482,0.187-0.967,0.354-1.45,0.548C158.887,8.741,159.12,9.546,159.41,10.352z
		 M160.619,7.822c0.184-0.038,0.363,0.079,0.4,0.263c0.018,0.081,0.004,0.165-0.037,0.237c-0.1,0.091-0.213,0.159-0.34,0.2
		c-0.35,0.137-0.701,0.252-1.062,0.348l-0.239-0.573c-0.001,0-0.002,0-0.003,0.001V8.29l0.003,0.007
		C159.757,8.113,160.186,7.954,160.619,7.822z"/>
	<path fill="#22BCA7" d="M171.252,10.45c0.232-0.661,0.572-1.274,0.854-1.918c0.153-0.25,0.268-0.521,0.332-0.807
		c-0.179-0.123-0.379-0.211-0.59-0.258l0.008-0.031c-0.119,0.313-0.266,0.621-0.418,0.918c-0.299,0.604-0.58,1.218-0.854,1.83
		C170.799,10.287,171.023,10.375,171.252,10.45z"/>
	<path fill="#22BCA7" d="M174.523,12.432c0.151,0.121,0.322-0.152,0.322-0.218s0.079-0.169,0-0.218
		c-0.482-0.419-1.104-0.709-1.611-1.145c0.059-0.248,0.195-0.471,0.387-0.638c0.42,0.25,0.83,0.517,1.227,0.806
		c0.088-0.168,0.187-0.33,0.281-0.5c-0.408-0.207-0.796-0.449-1.161-0.725c0.026-0.254,0.14-0.49,0.323-0.669
		c0.467,0.313,0.941,0.621,1.402,0.942c0.117,0.091,0.244,0.169,0.379,0.234c0.104-0.123,0.203-0.256,0.289-0.395
		c-0.668-0.443-1.33-0.879-1.99-1.33c-0.102-0.083-0.225-0.137-0.355-0.153c-0.104,0.12-0.199,0.25-0.281,0.388v0.023
		c-0.459,0.709-0.94,1.402-1.395,2.112C173.057,11.464,173.791,11.949,174.523,12.432z"/>
	<path fill="#22BCA7" d="M156.686,12.682c0.389-0.224,0.756-0.475,1.104-0.75c0.388-0.299,0.813-0.549,1.192-0.854
		c-0.075-0.159-0.168-0.31-0.273-0.451c-0.637,0.363-1.201,0.838-1.805,1.257c-0.158-0.203-0.305-0.416-0.438-0.637
		c0.396-0.242,0.789-0.54,1.201-0.807c-0.084-0.155-0.194-0.295-0.331-0.41c-0.387,0.218-0.79,0.531-1.189,0.806
		c-0.146-0.178-0.273-0.366-0.391-0.563c0.098-0.145,0.225-0.264,0.371-0.348c0.46-0.307,0.902-0.645,1.361-0.951l-0.32-0.419
		c-0.732,0.588-1.521,1.088-2.268,1.66h0.01C155.516,11.033,156.105,11.854,156.686,12.682z"/>
	<path fill="#22BCA7" d="M175.104,12.658c0.379,0.435,0.809,0.813,1.188,1.241c0.244,0.305,0.607,0.488,1,0.5
		c0.868-0.053,1.562-0.744,1.609-1.612c-0.018-0.335-0.152-0.653-0.387-0.896l-1.298-1.322c-0.71,0.709-1.401,1.42-2.129,2.097
		L175.104,12.658z M176.499,12.149c0.22-0.237,0.453-0.461,0.701-0.668v-0.017l0.112-0.041c0.19,0.167,0.375,0.345,0.549,0.532
		c0.168,0.148,0.318,0.32,0.443,0.508c0.112,0.626-0.302,1.227-0.928,1.342c-0.109,0.021-0.229,0.025-0.341,0.012
		c-0.22-0.116-0.406-0.278-0.56-0.476c-0.194-0.188-0.383-0.392-0.556-0.604C176.105,12.532,176.297,12.334,176.499,12.149z"/>
	<path fill="#22BCA7" d="M154.123,14.746c0.455-0.058,0.875-0.274,1.186-0.613c0.498-0.442,0.769-1.091,0.728-1.757h-0.591
		c0.101,0.773-0.367,1.506-1.11,1.741c-0.157,0.022-0.315,0.01-0.472-0.037c-0.563-0.175-0.883-0.776-0.705-1.341
		c0.265-0.549,0.757-0.952,1.347-1.104c-0.062-0.193-0.121-0.396-0.17-0.597c-0.403,0.157-0.774,0.39-1.099,0.685h-0.008
		c-0.393,0.326-0.641,0.793-0.69,1.299c-0.052,0.336,0.019,0.68,0.188,0.975C153.023,14.475,153.557,14.759,154.123,14.746z"/>
	<path fill="#22BCA7" d="M170.574,31.104c0-1.735,0-3.474,0-5.207h4.836c0-0.871,0-1.744,0-2.612h-4.836c0-1.451,0-2.902,0-4.354
		h5.893c0-0.871,0-1.74,0-2.611h-8.932c0,4.931,0,9.861,0,14.787C168.551,31.104,169.559,31.148,170.574,31.104z"/>
	<path fill="#22BCA7" d="M165.714,21.508c-0.056-0.771-0.264-1.525-0.612-2.217c-0.492-0.929-1.258-1.686-2.19-2.168
		c-0.869-0.408-1.812-0.641-2.771-0.686h-5.197h-0.033c0,4.934,0,9.859,0,14.793c1.008,0,2.016,0,3.023,0c0-1.273,0-2.558,0-3.83
		c0.698,0,1.407,0,2.108,0c1.058-0.034,2.09-0.312,3.021-0.805c0.5-0.302,0.955-0.675,1.349-1.104
		c0.669-0.765,1.09-1.716,1.209-2.726C165.715,22.354,165.748,21.93,165.714,21.508z M162.627,22.266
		c-0.027,0.558-0.221,1.094-0.557,1.541c-0.572,0.648-1.395,1.027-2.258,1.041c-0.604,0-1.217,0-1.82,0c0-1.925,0-3.849,0-5.771
		l-0.033-0.024c0.523-0.048,1.049,0,1.613,0c0.857-0.055,1.701,0.235,2.346,0.807c0.248,0.275,0.439,0.6,0.562,0.951
		C162.628,21.278,162.678,21.774,162.627,22.266z"/>
	<path fill="#22BCA7" d="M179.369,33.264c-0.107-0.31-0.236-0.605-0.389-0.896c-0.107,0.141-0.191,0.299-0.248,0.467h0.031
		c0.098,0.299,0.25,0.58,0.348,0.889c-0.32,0.064-0.646,0.11-0.969,0.137c-0.156,0.115-0.271,0.281-0.322,0.47
		c0.514-0.093,1.035-0.134,1.557-0.121c0.266,0.129,0.523,0.33,0.807,0.491l0.217-0.436c-0.226-0.146-0.467-0.273-0.686-0.43
		C179.545,33.684,179.424,33.48,179.369,33.264z"/>
	<path fill="#22BCA7" d="M153.066,35.293c0.363,0.163,0.791,0.037,1.008-0.299c0.111-0.276,0.049-0.594-0.161-0.807
		c-0.339-0.389-0.669-0.812-1.022-1.191c-0.613,0.556-1.312,1.021-1.902,1.609l0.349,0.354c0.269-0.202,0.509-0.46,0.808-0.637
		C152.512,34.584,152.672,35.061,153.066,35.293z M152.535,34.014L152.535,34.014c0.104-0.111,0.22-0.215,0.346-0.301
		c0.135,0.035,0.247,0.122,0.314,0.242c0.188,0.199,0.349,0.426,0.477,0.669c-0.037,0.16-0.197,0.261-0.357,0.226
		c-0.059-0.016-0.107-0.045-0.147-0.089C152.93,34.525,152.744,34.264,152.535,34.014c-0.002,0.002-0.006,0.004-0.008,0.008
		L152.535,34.014z"/>
	<path fill="#22BCA7" d="M178.441,36.025c-0.113,0.129-0.281,0-0.379-0.082c-0.348-0.312-0.709-0.603-1.088-0.868l-0.248,0.313
		c0.276,0.303,0.582,0.56,0.885,0.797c0.218,0.194,0.445,0.379,0.686,0.549c0.111-0.055,0.209-0.135,0.281-0.232
		c0.322-0.396,0.652-0.809,0.992-1.201l-0.322-0.232C178.965,35.381,178.725,35.729,178.441,36.025z"/>
	<polygon fill="#22BCA7" points="176.709,35.414 176.729,35.393 176.717,35.381 	"/>
	<path fill="#22BCA7" d="M155.025,35.381c-0.814,0.396-1.676,0.688-2.482,1.098h-0.031c0.098,0.104,0.209,0.195,0.329,0.273
		c0.242,0,0.443-0.161,0.687-0.161c0.279,0.185,0.535,0.402,0.759,0.653c0.024,0.252,0.014,0.508-0.039,0.758
		c0.099,0.145,0.215,0.271,0.346,0.389c0.261-0.849,0.524-1.701,0.81-2.558C155.307,35.657,155.182,35.503,155.025,35.381z
		 M154.533,36.865l-0.539-0.479l-0.023-0.017c0.248-0.147,0.521-0.255,0.805-0.313C154.727,36.336,154.646,36.605,154.533,36.865z"
		/>
	<path fill="#22BCA7" d="M176.789,36.105c-0.295-0.088-0.615-0.047-0.879,0.113v0.062c-0.362,0.232-0.709,0.523-1.057,0.806
		c0.428,0.524,0.896,1.041,1.299,1.613c0.379-0.272,0.758-0.563,1.121-0.871c0.258-0.263,0.34-0.647,0.209-0.992
		C177.354,36.518,177.105,36.253,176.789,36.105z M176.878,37.623c-0.183,0.163-0.383,0.309-0.597,0.427
		c-0.309-0.276-0.561-0.61-0.742-0.981c0.193-0.235,0.432-0.434,0.702-0.571h-0.009c0.156-0.07,0.34-0.042,0.469,0.071
		c0.213,0.146,0.365,0.367,0.427,0.621C177.131,37.367,177.035,37.534,176.878,37.623z"/>
	<path fill="#22BCA7" d="M155.549,38.43c0.323-0.518,0.637-1.031,0.951-1.549c0.059-0.064,0.085-0.152,0.073-0.24
		c-0.153-0.102-0.317-0.18-0.491-0.232c-0.404,0.726-0.848,1.435-1.282,2.144h-0.008l2.015,1.193
		c0.071-0.119,0.137-0.244,0.193-0.371c-0.104-0.129-0.236-0.233-0.387-0.308C156.254,38.866,155.898,38.652,155.549,38.43z"/>
	<path fill="#22BCA7" d="M174.484,37.27c-0.168-0.002-0.33,0.062-0.452,0.179h0.057c0.284,0.354,0.538,0.735,0.759,1.137
		c-0.604-0.099-1.186-0.272-1.783-0.401c-0.153-0.024-0.312,0.053-0.387,0.191c0.17,0.348,0.428,0.652,0.629,0.982
		c0.15,0.257,0.323,0.498,0.519,0.727c0.12-0.018,0.239-0.049,0.354-0.098c-0.193-0.411-0.425-0.805-0.687-1.178
		c0.543,0.092,1.081,0.211,1.61,0.354c0.185,0.025,0.369-0.04,0.492-0.18c-0.033-0.159-0.107-0.312-0.219-0.437
		C175.072,38.131,174.822,37.662,174.484,37.27z"/>
	<path fill="#22BCA7" d="M158.113,39.283c0.385,0.143,0.758,0.312,1.119,0.508c0.072-0.146,0.138-0.282,0.201-0.428
		c-0.389-0.146-0.748-0.33-1.127-0.477l0.266-0.558c0.523,0.258,1.08,0.476,1.611,0.741c0.049-0.146,0.104-0.291,0.151-0.437
		c-0.729-0.268-1.411-0.612-2.129-0.911v0.041c-0.319,0.788-0.687,1.547-1.031,2.354c0.733,0.29,1.443,0.637,2.179,0.938
		l0.231-0.381c-0.508-0.379-1.11-0.5-1.61-0.807C157.971,39.666,158.018,39.464,158.113,39.283z"/>
	<path fill="#22BCA7" d="M171.559,40.604c-0.08-0.135-0.127-0.287-0.138-0.441c0.287-0.166,0.589-0.305,0.903-0.412l-0.154-0.32
		c-0.307,0.119-0.629,0.228-0.936,0.354l-0.16-0.479c0.459-0.187,0.927-0.33,1.369-0.531l-0.08-0.338
		c-0.62,0.231-1.232,0.481-1.861,0.668l0.008,0.01c0.242,0.67,0.5,1.338,0.742,2.016c0.637-0.17,1.249-0.449,1.878-0.661
		l-0.178-0.368L171.559,40.604z"/>
	<path fill="#22BCA7" d="M161.281,39.073c0.007,0,0.014,0.002,0.021,0.002c0.003,0,0.007-0.002,0.011-0.002H161.281z"/>
	<path fill="#22BCA7" d="M161.303,39.075c-0.226,0.021-0.443,0.09-0.643,0.198c-0.428,0.322-0.633,0.86-0.523,1.388
		c0.117,0.489,0.484,0.884,0.967,1.03c0.508,0.224,1.103,0.108,1.49-0.28c0.455-0.521,0.455-1.294,0-1.812
		C162.245,39.266,161.783,39.08,161.303,39.075z M161.59,41.324c-0.127,0.004-0.252-0.021-0.365-0.074
		c-0.398-0.16-0.641-0.57-0.58-1c0.066-0.348,0.332-0.621,0.676-0.701l-0.008,0.032c0.192-0.044,0.396-0.006,0.56,0.104
		c0.303,0.155,0.495,0.467,0.5,0.809C162.383,40.938,162.034,41.311,161.59,41.324z"/>
	<path fill="#22BCA7" d="M169.809,39.443c-0.158-0.016-0.314-0.016-0.476,0l0.009,0.009c0.178,0.687,0.402,1.36,0.596,2.048
		c0.146-0.049,0.451,0.008,0.451-0.188c-0.062-0.33-0.201-0.646-0.289-0.977C170.023,40.034,169.928,39.732,169.809,39.443z"/>
	<path fill="#22BCA7" d="M168.945,40.621c0.037-0.17,0.037-0.348,0-0.518c-0.057-0.189-0.229-0.326-0.426-0.338
		c-0.561-0.021-1.115,0.024-1.662,0.137l0.01,0.018c0.08,0.701,0.225,1.396,0.225,2.098l0.469-0.099
		c-0.013-0.271-0.043-0.54-0.09-0.806c0.135-0.049,0.277-0.069,0.42-0.064c0.299,0.209,0.483,0.531,0.769,0.758
		c0.2,0.022,0.405,0.022,0.61,0c-0.199-0.279-0.412-0.549-0.638-0.807C168.729,40.863,168.857,40.758,168.945,40.621z
		 M168.445,40.484c-0.03,0.037-0.072,0.063-0.119,0.078c-0.299,0.063-0.598,0.063-0.896,0.121c0-0.16,0-0.32,0-0.482l-0.017-0.01
		c0.33-0.062,0.666-0.076,1-0.047C168.518,40.229,168.531,40.383,168.445,40.484z"/>
	<path fill="#22BCA7" d="M164.682,39.879c0.02,0.719-0.039,1.43-0.08,2.139h0.479c0.04-0.295,0.062-0.592,0.056-0.889
		c0.339-0.008,0.673,0.018,1,0.072v-0.419c-0.317,0.013-0.643-0.011-0.959-0.064v-0.476c0.478,0.057,0.951,0.07,1.419,0.137
		c0-0.121,0-0.25,0-0.371c-0.638-0.008-1.266-0.119-1.9-0.119L164.682,39.879z"/>
</g>
</svg>
