<?xml version="1.0" encoding="utf-8"?>
<!-- Generator: Adobe Illustrator 16.0.4, SVG Export Plug-In . SVG Version: 6.00 Build 0)  -->
<!DOCTYPE svg PUBLIC "-//W3C//DTD SVG 1.1//EN" "http://www.w3.org/Graphics/SVG/1.1/DTD/svg11.dtd">
<svg version="1.1" id="Layer_1" xmlns="http://www.w3.org/2000/svg" xmlns:xlink="http://www.w3.org/1999/xlink" x="0px" y="0px"
	 width="200px" height="85px" viewBox="0 0 200 85" enable-background="new 0 0 200 85" xml:space="preserve">
<g>
	<path fill-rule="evenodd" clip-rule="evenodd" fill="#888888" d="M28.189,14.917c0.58-0.392,1.182-0.755,1.735-1.182
		c1.299-1.002,2.57-2.04,3.863-3.049c0.282-0.22,0.609-0.382,0.916-0.571c0.203,0.384,0.554,0.758,0.581,1.154
		c0.092,1.364,0.092,2.735,0.09,4.104c-0.013,8.729-0.037,17.458-0.053,26.187c0,0.24,0.041,0.48,0.085,0.964
		c0.322-0.355,0.5-0.538,0.663-0.734c0.746-0.897,1.454-1.827,2.235-2.691c3.006-3.327,6.927-1.884,8.695,0.754
		c1.316,1.963,1.914,4.184,2.314,6.471c0.805,4.598,0.784,9.243,0.749,13.888c-0.023,3.069-0.075,6.139-0.076,9.208
		c0,2.154,0.79,3.073,2.905,3.514c0.149,0.031,0.332,0.01,0.442,0.09c0.205,0.149,0.465,0.334,0.514,0.548
		c0.031,0.134-0.257,0.463-0.444,0.502c-0.588,0.12-1.227,0.296-1.791,0.181c-2.258-0.463-4.499-0.153-6.746,0.005
		c-0.102,0.008-0.215,0.052-0.301,0.021c-0.237-0.087-0.462-0.205-0.692-0.311c0.124-0.246,0.197-0.655,0.379-0.711
		c1.971-0.604,2.16-2.072,2.149-3.846c-0.036-5.784,0.13-11.57,0.036-17.353c-0.035-2.132-0.46-4.281-0.922-6.376
		c-0.389-1.762-1.336-3.274-2.936-4.288c-1.259-0.798-2.492-0.79-3.693,0.071c-2.395,1.715-3.656,4.088-3.664,7.005
		c-0.02,7.13,0.057,14.259,0.094,21.389c0.009,1.628,1.241,2.277,2.409,2.947c0.41,0.235,0.91,0.31,1.354,0.493
		c0.188,0.078,0.339,0.247,0.507,0.375c-0.172,0.159-0.326,0.42-0.521,0.457c-0.617,0.116-1.265,0.269-1.875,0.193
		c-2.608-0.319-5.212-0.308-7.822-0.081c-0.2,0.018-0.425,0.035-0.599-0.039c-0.161-0.069-0.331-0.246-0.375-0.408
		c-0.028-0.103,0.138-0.315,0.268-0.392c0.26-0.152,0.549-0.267,0.838-0.358c1.25-0.397,1.849-1.306,1.917-2.557
		c0.061-1.111,0.032-2.228,0.032-3.342c0.001-12.967,0.004-25.933,0-38.9c-0.001-3.348-0.023-6.695-0.036-10.043
		c0-0.025-0.001-0.051-0.003-0.076c-0.098-1.996-0.343-2.224-2.313-2.166c-0.303,0.009-0.607,0.014-0.91,0.02
		C28.189,15.627,28.189,15.272,28.189,14.917z"/>
	<path fill-rule="evenodd" clip-rule="evenodd" fill="#888888" d="M137.536,43.09c0.642-1.055,1.251-2.132,1.937-3.158
		c0.377-0.564,0.841-1.086,1.337-1.55c2.17-2.027,5.185-1.852,7.148,0.379c1.187,1.347,1.855,2.956,2.334,4.652
		c0.806,2.853,1.118,5.774,1.123,8.729c0.009,5.252-0.018,10.503-0.023,15.755c-0.002,2.381,1.239,4.084,3.466,4.895
		c0.401,0.146,0.712,0.538,1.064,0.815c-0.438,0.177-0.874,0.502-1.312,0.504c-2.303,0.008-4.605-0.069-6.908-0.106
		c-0.328-0.005-0.666,0.112-0.981,0.061c-0.261-0.042-0.596-0.196-0.705-0.403c-0.077-0.147,0.137-0.482,0.275-0.698
		c0.089-0.139,0.268-0.232,0.423-0.316c1.111-0.602,1.522-1.593,1.516-2.787c-0.04-6.673-0.033-13.347-0.172-20.018
		c-0.052-2.475-0.702-4.875-2.037-7.015c-1.087-1.742-2.478-2.405-4.129-2.021c-1.145,0.266-2.004,0.973-2.679,1.895
		c-1.184,1.617-1.853,3.414-1.854,5.449c-0.008,6.597-0.046,13.194-0.053,19.792c-0.003,3.326,0.795,4.282,4.057,5.03
		c0.243,0.056,0.451,0.263,0.676,0.399c-0.195,0.203-0.366,0.54-0.593,0.583c-0.588,0.112-1.211,0.185-1.801,0.112
		c-2.406-0.291-4.806-0.326-7.21-0.003c-0.373,0.051-0.771,0.066-1.132-0.015c-0.23-0.052-0.532-0.278-0.588-0.484
		c-0.054-0.196,0.108-0.539,0.285-0.692c0.359-0.313,0.771-0.585,1.198-0.801c1.25-0.635,1.733-1.727,1.861-3.03
		c0.06-0.604,0.07-1.216,0.069-1.824c-0.011-7.028-0.024-14.058-0.047-21.086c-0.001-0.479-0.049-0.963-0.125-1.436
		c-0.196-1.229-0.877-2.023-2.132-2.27c-0.124-0.024-0.276-0.036-0.359-0.113c-0.254-0.238-0.671-0.507-0.671-0.763
		c0.002-0.352,0.241-0.889,0.529-1.022c1.745-0.809,3.157-2.011,4.398-3.447c0.066-0.077,0.122-0.177,0.207-0.221
		c0.338-0.176,0.686-0.334,1.029-0.499c0.134,0.364,0.373,0.725,0.383,1.092c0.044,1.623,0.021,3.248,0.023,4.872
		c0,0.245,0,0.49,0,0.735C137.421,43.068,137.479,43.079,137.536,43.09z"/>
	<path fill-rule="evenodd" clip-rule="evenodd" fill="#888888" d="M92.973,43.103c0.259-0.477,0.515-0.957,0.778-1.432
		c0.78-1.406,1.656-2.744,2.96-3.726c1.816-1.368,4.136-1.3,5.908,0.134c1.181,0.957,1.912,2.224,2.466,3.603
		c1.064,2.644,1.551,5.429,1.623,8.249c0.113,4.437,0.045,8.877,0.057,13.316c0.005,1.624,0.02,3.247,0.028,4.871
		c0.012,2.184,1.319,3.938,3.371,4.646c0.428,0.147,1.117,0.6,1.084,0.823c-0.097,0.663-0.8,0.55-1.312,0.543
		c-2.252-0.03-4.504-0.092-6.756-0.129c-0.378-0.006-0.764,0.109-1.135,0.068c-0.239-0.026-0.547-0.186-0.657-0.38
		c-0.079-0.14,0.106-0.441,0.202-0.658c0.036-0.083,0.143-0.147,0.231-0.192c1.512-0.757,1.854-2.094,1.841-3.632
		c-0.044-4.795-0.053-9.591-0.12-14.386c-0.03-2.179-0.062-4.366-0.289-6.529c-0.21-1.998-0.808-3.924-1.955-5.627
		c-1.631-2.418-4.256-2.661-6.234-0.509c-1.454,1.582-2.283,3.484-2.3,5.654c-0.052,6.622-0.068,13.244-0.085,19.867
		c-0.001,0.683,0.063,1.367,0.134,2.048c0.144,1.391,0.967,2.254,2.234,2.718c0.593,0.217,1.22,0.337,1.816,0.546
		c0.212,0.074,0.377,0.281,0.563,0.428c-0.163,0.177-0.301,0.461-0.495,0.507c-0.51,0.12-1.057,0.238-1.566,0.175
		c-2.583-0.32-5.157-0.366-7.741-0.019c-0.552,0.074-1.279,0.23-1.525-0.483c-0.25-0.727,0.492-0.974,0.937-1.177
		c1.891-0.863,2.468-2.395,2.461-4.33c-0.028-7.459-0.015-14.919-0.05-22.378c-0.01-2.192-0.897-3.093-2.561-3.414
		c-0.292-0.056-0.675-0.5-0.707-0.798c-0.032-0.309,0.229-0.834,0.503-0.96c1.772-0.814,3.184-2.052,4.468-3.485
		c0.292-0.326,0.771-0.486,1.164-0.722c0.148,0.458,0.41,0.914,0.423,1.376c0.05,1.772,0.021,3.546,0.021,5.32
		C92.829,43.054,92.901,43.078,92.973,43.103z"/>
	<path fill-rule="evenodd" clip-rule="evenodd" fill="#888888" d="M72.018,66.229c-0.07,0.476-0.051,0.985-0.223,1.42
		c-1.108,2.794-2.855,5.093-5.508,6.575c-2.091,1.169-4.583,0.701-6.424-1.1c-2.049-2.005-3.051-4.574-3.836-7.248
		c-1.27-4.321-1.49-8.731-1.086-13.195c0.31-3.427,0.895-6.791,2.238-9.981c0.705-1.673,1.601-3.234,3.022-4.419
		c2.336-1.948,5.235-1.755,7.271,0.512c2.138,2.381,3.131,5.308,3.79,8.359c0.255,1.184,0.379,2.405,0.447,3.616
		c0.06,1.057-0.234,1.301-1.298,1.303c-3.781,0.009-7.562,0.003-11.344,0.005c-1.054,0-1.063,0.006-1.036,1.061
		c0.109,4.1,0.455,8.162,1.95,12.034c0.561,1.455,1.302,2.809,2.411,3.93c1.807,1.828,4.082,2.019,6.083,0.395
		c0.836-0.678,1.501-1.568,2.243-2.363c0.32-0.343,0.641-0.687,0.961-1.029C71.791,66.144,71.904,66.187,72.018,66.229z
		 M62.773,49.801c1.268,0,2.537,0.003,3.805-0.002c1.08-0.004,1.344-0.239,1.386-1.332c0.093-2.464-0.396-4.81-1.667-6.93
		c-0.459-0.765-1.094-1.47-1.784-2.039c-1.141-0.941-2.463-0.791-3.46,0.312c-0.438,0.483-0.819,1.04-1.121,1.619
		c-1.253,2.407-1.735,5.012-1.899,7.696c-0.035,0.558,0.196,0.695,0.707,0.686C60.083,49.785,61.428,49.802,62.773,49.801z"/>
	<path fill-rule="evenodd" clip-rule="evenodd" fill="#888888" d="M129.03,66.253c-0.088,0.529-0.086,1.095-0.28,1.58
		c-0.877,2.185-2.254,4.017-4.08,5.502c-3.404,2.77-6.713,1.439-8.778-1.317c-1.854-2.474-2.8-5.337-3.38-8.319
		c-1.397-7.187-0.904-14.242,1.735-21.094c0.726-1.884,1.796-3.59,3.543-4.746c2.076-1.373,4.374-1.198,6.225,0.478
		c1.548,1.401,2.452,3.214,3.182,5.123c0.856,2.239,1.425,4.551,1.53,6.956c0.062,1.42-0.177,1.657-1.564,1.658
		c-3.73,0.003-7.46,0.019-11.189-0.014c-0.738-0.007-0.962,0.226-0.94,0.954c0.12,4.098,0.405,8.176,1.941,12.029
		c0.5,1.254,1.181,2.489,2.016,3.547c2.039,2.584,4.88,2.666,7.222,0.312c0.642-0.646,1.178-1.394,1.777-2.082
		c0.223-0.256,0.489-0.473,0.736-0.708C128.827,66.159,128.929,66.206,129.03,66.253z M119.781,49.802
		c1.268,0,2.536,0.002,3.805-0.001c1.065-0.003,1.351-0.246,1.398-1.326c0.079-1.769-0.203-3.488-0.821-5.148
		c-0.564-1.519-1.312-2.922-2.675-3.885c-1.167-0.824-2.39-0.727-3.361,0.31c-0.462,0.493-0.868,1.068-1.179,1.668
		c-1.248,2.407-1.743,5.009-1.896,7.694c-0.031,0.543,0.171,0.708,0.696,0.697C117.092,49.783,118.437,49.801,119.781,49.802z"/>
	<path fill-rule="evenodd" clip-rule="evenodd" fill="#888888" d="M170.203,46.405c-0.172-0.65-0.297-1.317-0.527-1.946
		c-0.451-1.231-0.937-2.453-1.463-3.654c-0.156-0.356-0.472-0.661-0.764-0.936c-1.552-1.466-3.567-1.131-4.58,0.744
		c-1.489,2.755-1.08,6.365,1.091,8.634c1.065,1.113,2.221,2.171,3.465,3.075c2.385,1.733,3.743,4.015,4.119,6.909
		c0.507,3.906,0.391,7.76-1.223,11.43c-0.394,0.894-0.922,1.765-1.548,2.513c-1.771,2.116-4.28,2.265-6.393,0.476
		c-0.667-0.564-1.213-1.313-2.21-1.381c-0.145-0.01-0.327-0.304-0.388-0.498c-0.097-0.311-0.143-0.648-0.145-0.976
		c-0.021-2.688-0.037-5.378-0.023-8.066c0.003-0.453,0.161-0.904,0.247-1.356c0.103-0.013,0.205-0.024,0.308-0.037
		c0.112,0.299,0.269,0.59,0.328,0.898c0.368,1.917,0.604,3.868,1.108,5.748c0.327,1.222,0.869,2.461,1.607,3.479
		c1.2,1.655,3.313,1.613,4.651,0.062c0.375-0.436,0.727-0.942,0.916-1.478c1.167-3.294,1.479-6.59-0.757-9.566
		c-0.916-1.219-2.209-2.152-3.322-3.223c-0.621-0.598-1.251-1.189-1.837-1.821c-2.595-2.801-3.156-6.208-2.87-9.848
		c0.152-1.934,0.499-3.831,1.467-5.549c2.024-3.594,5.111-3.774,8.354-1.859c0.392,0.231,0.763,0.835,0.79,1.288
		c0.122,2.048,0.127,4.104,0.146,6.157c0.003,0.266-0.155,0.533-0.239,0.8C170.41,46.418,170.307,46.411,170.203,46.405z"/>
	<path fill-rule="evenodd" clip-rule="evenodd" fill="#888888" d="M70.443,18.651c2.52-2.526,5.22-5.233,8.025-8.046
		c2.651,2.802,5.312,5.613,7.939,8.389c-2.504,2.491-5.228,5.202-8.051,8.01C75.783,24.288,73.123,21.48,70.443,18.651z"/>
	<path fill-rule="evenodd" clip-rule="evenodd" fill="#888888" d="M93.136,18.679c2.494-2.523,5.181-5.241,7.974-8.066
		c2.654,2.821,5.304,5.636,7.915,8.411c-2.467,2.473-5.179,5.192-7.993,8.015C98.423,24.275,95.767,21.464,93.136,18.679z"/>
	<path fill-rule="evenodd" clip-rule="evenodd" fill="#888888" d="M123.54,10.654c2.592,2.736,5.24,5.531,7.828,8.263
		c-2.548,2.554-5.259,5.272-8.086,8.106c-2.567-2.724-5.218-5.539-7.837-8.318C117.941,16.223,120.665,13.514,123.54,10.654z"/>
	<path fill-rule="evenodd" clip-rule="evenodd" fill="#888888" d="M80.418,56.64c0,4.212,0.018,8.424-0.007,12.636
		c-0.016,2.624,0.436,3.197,2.995,3.68c0.375,0.07,0.712,0.342,1.066,0.52c-0.364,0.216-0.71,0.564-1.095,0.616
		c-0.669,0.09-1.362-0.01-2.045-0.021c-1.313-0.02-2.627-0.041-3.94-0.043c-0.81-0.002-1.621,0.05-2.43,0.031
		c-0.188-0.004-0.372-0.191-0.558-0.295c0.109-0.176,0.178-0.451,0.332-0.512c1.531-0.607,1.944-1.892,2.073-3.349
		c0.068-0.783,0.132-1.569,0.132-2.354c-0.002-5.659-0.021-11.318-0.038-16.978c-0.001-0.354,0.006-0.715-0.046-1.063
		c-0.146-0.983-0.509-1.789-1.608-2.074c-0.286-0.074-0.703-0.408-0.708-0.631c-0.008-0.34,0.199-0.838,0.475-1.005
		c1.635-0.99,2.881-2.392,4.179-3.747c0.192-0.201,0.592-0.48,0.716-0.409c0.244,0.14,0.418,0.481,0.513,0.774
		c0.099,0.304,0.091,0.65,0.092,0.977c0.005,4.415,0.003,8.831,0.003,13.247C80.486,56.64,80.452,56.64,80.418,56.64z"/>
	<path fill-rule="evenodd" clip-rule="evenodd" fill="#888888" d="M73.78,37.613c0.936-0.908,1.979-1.933,3.047-2.931
		c0.087-0.082,0.409-0.053,0.51,0.042c1.043,0.992,2.063,2.008,3.081,3.009c-1.158,1.154-2.246,2.239-3.363,3.353
		C76.021,39.99,74.956,38.86,73.78,37.613z"/>
	<path fill-rule="evenodd" clip-rule="evenodd" fill="#888888" d="M155.02,41.586c-0.058-0.59-0.163-1.18-0.162-1.769
		c0.002-1.542,0.048-3.084,0.082-4.626c0.006-0.278,0.024-0.557,0.064-0.832c0.196-1.331,0.759-1.772,1.906-1.509
		c1.247,0.287,1.735,1.108,1.298,2.321c-0.616,1.712-1.265,3.415-1.951,5.101c-0.208,0.51-0.59,0.949-0.893,1.421
		C155.249,41.657,155.134,41.622,155.02,41.586z"/>
</g>
</svg>
