<?xml version="1.0" encoding="utf-8"?>
<!-- Generator: Adobe Illustrator 16.0.4, SVG Export Plug-In . SVG Version: 6.00 Build 0)  -->
<!DOCTYPE svg PUBLIC "-//W3C//DTD SVG 1.1//EN" "http://www.w3.org/Graphics/SVG/1.1/DTD/svg11.dtd">
<svg version="1.1" id="Layer_1" xmlns="http://www.w3.org/2000/svg" xmlns:xlink="http://www.w3.org/1999/xlink" x="0px" y="0px"
	 width="200px" height="85px" viewBox="0 0 200 85" enable-background="new 0 0 200 85" xml:space="preserve">
<g>
	<path fill="#FDF5F5" d="M100.012,84.752c-32.834,0-65.668-0.006-98.503,0.025c-1.021,0-1.364-0.096-1.362-1.277
		C0.191,56.148,0.188,28.796,0.152,1.443C0.151,0.39,0.446,0.231,1.409,0.231C67.13,0.255,132.852,0.257,198.574,0.218
		c1.189-0.001,1.271,0.354,1.271,1.367c-0.031,27.299-0.035,54.599,0.008,81.897c0.002,1.141-0.277,1.299-1.342,1.299
		C165.678,84.746,132.844,84.752,100.012,84.752z M2.884,59.57c-0.037,5.852-0.087,11.701-0.109,17.551
		c-0.014,3.531,1.827,5.377,5.315,5.377c61.187,0,122.373,0,183.559,0c0.43,0,0.859,0.018,1.289-0.008
		c2.174-0.127,4.234-1.928,4.258-4.096c0.066-6.279-0.021-12.561-0.047-18.842c0.033-0.533,0.098-1.066,0.098-1.602
		c0.005-16.606-0.066-33.212,0.062-49.817c0.025-3.353-2.455-5.784-5.869-5.779C130.553,2.443,69.663,2.421,8.775,2.42
		c-4.319,0-5.976,1.619-5.977,5.889C2.798,24.807,2.798,41.305,2.803,57.805C2.803,58.393,2.856,58.982,2.884,59.57z"/>
	<path fill="#888888" d="M2.884,59.57c-0.027-0.588-0.081-1.178-0.081-1.766c-0.005-16.5-0.005-32.998-0.004-49.496
		c0-4.27,1.657-5.889,5.977-5.889c60.888,0,121.777,0.022,182.664-0.065c3.414-0.005,5.896,2.427,5.869,5.779
		c-0.129,16.605-0.058,33.211-0.062,49.817c0,0.533-0.063,1.068-0.099,1.604c-0.75,0.021-1.502,0.064-2.254,0.064
		c-55.942,0.002-111.886,0.006-167.829,0C19.005,59.619,10.944,59.588,2.884,59.57z M44.277,46.051
		c-0.698-0.324-0.719-0.859-0.883-1.287c-0.92-2.409-1.816-4.826-2.723-7.238c-3.413-9.103-6.844-18.199-10.216-27.317
		c-0.4-1.084-0.932-1.519-2.098-1.45c-1.66,0.099-3.339,0.133-4.994-0.004c-1.489-0.124-1.769,0.446-1.763,1.82
		c0.049,13.113,0.027,26.226,0.027,39.338c0,3.986,0.001,3.936,4.059,4.021c1.303,0.029,1.736-0.26,1.729-1.66
		c-0.06-10.855-0.033-21.711-0.016-32.566c0.001-0.732-0.151-1.499,0.334-2.404c0.315,0.779,0.587,1.406,0.827,2.044
		c3.889,10.359,7.774,20.719,11.661,31.081c1.331,3.547,1.331,3.504,5.153,3.506c1.059,0,1.502-0.41,1.848-1.338
		c3.84-10.315,7.712-20.621,11.579-30.926c0.55-1.466,1.115-2.927,1.674-4.391c0.122,0.034,0.244,0.068,0.365,0.102
		c0,0.634,0,1.268,0,1.901c0.002,10.104,0.003,20.207,0.004,30.311c0.001,4.406,0.003,4.361,4.356,4.342
		c1.156-0.004,1.428-0.359,1.421-1.465c-0.044-7.848-0.021-15.692-0.021-23.539c0-6.234-0.027-12.468,0.019-18.702
		c0.008-1.119-0.314-1.512-1.451-1.462c-1.822,0.081-3.655,0.074-5.479-0.005c-1.038-0.044-1.5,0.346-1.858,1.31
		c-3.37,9.062-6.789,18.104-10.2,27.15C46.527,40.158,45.404,43.09,44.277,46.051z M145.309,24.773
		c-4.944-3.368-5.58-3.655-9.002-4.121c-8.336-1.136-14.559,2.543-17.09,10.298c-1.254,3.841-1.348,7.816-0.527,11.79
		c1.442,6.994,5.925,11.082,12.998,11.869c8.221,0.914,14.43-3.504,16.01-11.328c0.205-1.015,0.039-1.398-1.028-1.337
		c-0.964,0.055-1.938,0.062-2.899-0.011c-0.979-0.075-1.41,0.282-1.664,1.258c-1.092,4.207-3.728,6.418-7.814,6.691
		c-4.243,0.285-7.514-1.623-9.104-5.506c-1.838-4.486-1.688-9.039,0.027-13.52c1.042-2.724,3.067-4.45,5.904-5.258
		c4.621-1.316,9.081,0.609,10.576,4.627c0.93,2.501,1.4,2.756,3.598,1.121c1.809-1.346,3.598-2.091,5.889-1.859
		c0.93,0.094,1.306,0.155,1.373,1.164c0.188,2.805,1.682,4.794,4.1,6.152c1.947,1.094,4.082,1.629,6.224,2.156
		c2.707,0.667,5.511,0.982,8.067,2.204c2.041,0.976,3.039,2.396,2.889,4.215c-0.174,2.09-1.464,3.309-3.355,3.883
		c-3.174,0.963-6.36,0.965-9.487-0.236c-1.575-0.604-2.981-1.635-3.283-3.297c-0.36-1.99-1.424-2.357-3.112-2.129
		c-0.423,0.057-0.863,0.049-1.289-0.002c-1.311-0.152-1.537,0.477-1.352,1.627c0.584,3.602,2.354,6.416,5.727,7.848
		c5.629,2.387,11.354,2.312,16.862-0.359c3.794-1.84,5.318-5.164,4.966-9.32c-0.328-3.843-2.855-5.829-6.188-7.063
		c-2.731-1.012-5.599-1.509-8.421-2.176c-1.728-0.408-3.461-0.825-4.957-1.843c-2.297-1.562-2.301-4.311-0.028-5.878
		c2.62-1.807,8.582-1.461,10.996,0.622c0.543,0.468,1.137,1.006,1.221,1.661c0.267,2.073,1.617,2.198,3.228,2.04
		c0.427-0.042,0.865-0.053,1.289,0.001c1.334,0.168,1.509-0.458,1.313-1.616c-0.636-3.788-2.673-6.421-6.319-7.641
		c-3.808-1.274-7.726-1.415-11.597-0.378c-1.563,0.419-1.663-0.034-1.562-1.369c0.199-2.642-0.035-5.265-0.902-7.795
		c-0.188-0.543-0.271-1.352-0.884-1.422c-0.679-0.078-0.793,0.77-1.06,1.258c-0.853,1.563-1.609,3.218-3.414,3.914
		C148.145,17.278,145.312,19.811,145.309,24.773z M92.84,50.258c1.146,3.996,3.042,5.131,6.963,4.178
		c1.346-0.328,2.375-3.393,1.504-4.463c-0.162-0.199-0.354-0.168-0.568-0.186c-2.562-0.207-2.577-0.209-2.583-2.803
		c-0.012-5.853,0.017-11.707-0.019-17.561c-0.026-4.316-1.988-7.01-6.136-8.188c-3.896-1.106-7.882-1.076-11.789-0.07
		c-4.511,1.161-7.382,3.975-8.11,8.741c-0.169,1.107,0.076,1.628,1.288,1.524c0.853-0.073,1.722-0.074,2.574-0.004
		c1.052,0.086,1.517-0.247,1.648-1.375c0.215-1.836,1.304-3.248,2.993-3.909c3.1-1.213,6.295-1.287,9.435-0.073
		c1.772,0.685,2.835,2.637,2.717,4.712c-0.097,1.702-1.089,2.75-3.209,3.312c-0.827,0.219-1.675,0.379-2.521,0.512
		c-3.128,0.491-6.271,0.903-9.323,1.795c-4.849,1.417-7.136,4.571-6.968,9.674c0.14,4.236,2.694,7.32,7.062,8.195
		c5.277,1.059,10.153,0.23,14.246-3.576C92.267,50.49,92.449,50.17,92.84,50.258z M108.15,27.81c0-1.366,0-2.268,0-3.17
		c-0.004-3.413-0.008-3.339-3.338-3.449c-1.412-0.046-1.819,0.328-1.812,1.771c0.065,9.607,0.031,19.215,0.036,28.822
		c0.001,2.379-0.241,2.121,2.174,2.133c3.266,0.014,3.26,0.008,3.266-3.301c0.01-4.4-0.049-8.804,0.064-13.203
		c0.155-6.019,2.998-9.634,8.145-10.898c1.168-0.287,2.875,0.409,3.424-0.946c0.449-1.109,0.055-2.542,0.129-3.827
		c0.059-1.011-0.342-1.309-1.309-1.259c-3.386,0.174-6.271,1.362-8.426,4.053C109.773,25.448,109.135,26.434,108.15,27.81z
		 M182.072,54.672c2.605-0.086,3.597-0.984,3.574-3.238c-0.017-1.602-1.373-2.842-3.075-2.814c-1.696,0.027-3.019,1.4-3.003,3.117
		C179.584,53.199,180.873,54.709,182.072,54.672z"/>
	<path fill="#4D4D4D" d="M2.884,59.57c8.061,0.02,16.121,0.051,24.182,0.051c55.942,0.004,111.886,0.002,167.829-0.002
		c0.752,0,1.504-0.043,2.254-0.064c0.026,6.279,0.115,12.562,0.048,18.842c-0.022,2.166-2.085,3.969-4.259,4.094
		c-0.428,0.025-0.858,0.008-1.289,0.008c-61.186,0-122.371,0.002-183.558,0.002c-3.488,0-5.33-1.846-5.315-5.377
		C2.797,71.271,2.847,65.422,2.884,59.57z M36.894,71.477l0.086,0.084c0.144,0.5-0.704,1.104,0.166,1.529
		c0.278,0.135,0.621,0.129,0.682-0.15c0.217-0.984,1.679-1.838,0.726-2.879c-1.012-1.104-1.929-0.01-2.743,0.643
		c-0.288,0.23-0.53,0.535-0.742,0.842c-0.491,0.711-0.649,1.549-0.23,2.277c0.472,0.818,1.391,0.984,2.266,0.842
		c0.784-0.129,1.587-0.332,2.293-0.684c0.771-0.383,1.278-0.561,2.066,0.139c0.593,0.525,1.783,1.088,2.418,0.191
		c0.534-0.754-0.588-1.188-1.05-1.711c-0.44-0.5-1.498-0.891-1.218-1.49c0.389-0.834,1.414-0.256,2.176-0.285
		c0.599-0.023,0.544,0.271,0.604,0.646c0.105,0.686,0.171,1.396,0.419,2.033c0.442,1.141,1.028,1.188,1.816,0.236
		c2.07-2.496,2.075-2.498,3.478,0.312c0.457,0.914,0.896,1.85,1.753,2.461c0.412,0.293,0.927,0.34,1.304-0.119
		c0.537-0.654-0.222-0.664-0.488-0.844c-0.653-0.443-1.042-1.023-1.302-1.771c-0.368-1.061-0.831-2.094-1.529-2.992
		c-0.776-0.998-1.598-1.205-2.491-0.113c-0.452,0.551-0.947,1.066-1.648,1.852c-0.104-2.668-0.046-4.928,1.145-7.004
		c0.237-0.414,0.61-0.754,0.227-1.291c-0.251-0.355-0.55-0.51-0.953-0.432c-0.624,0.119-0.614,0.732-0.711,1.141
		c-0.415,1.744-0.739,3.51-1.103,5.299c-1.17-0.939-2.373-0.705-3.573-0.354c-0.623,0.18-0.792,0.561-0.589,1.23
		c0.213,0.705,1.437,1.154,0.917,1.809c-0.368,0.463-1.474,0.342-2.25,0.479c-0.317,0.055-0.643,0.08-0.952,0.158
		c-0.65,0.164-1.474,0.646-1.855-0.139C35.629,72.646,36.03,71.869,36.894,71.477z M173.436,73.842
		c-1.059,0.361-1.685-0.062-1.963-1.094c-0.236-0.861-0.199-2.104-1.084-2.348c-1.043-0.287-1.068,1.227-1.894,1.812
		c-0.06-0.506-0.138-0.906-0.144-1.309c-0.008-0.533,0.121-1.248-0.612-1.24c-0.694,0.01-0.425,0.738-0.444,1.168
		c-0.041,0.854-0.013,1.715-0.013,3c-0.812-1.104-0.778-1.938-0.604-2.682c0.312-1.338-0.785-1.398-1.478-1.678
		c-0.835-0.336-0.784,0.611-1.052,1.031c-0.4,0.631-0.7,1.322-1.062,1.979c-0.15,0.273-0.3,0.637-0.668,0.617
		c-0.468-0.023-0.492-0.502-0.638-0.818c-0.267-0.578-0.165-1.354-0.925-1.77c-0.303,0.441-0.047,0.816-0.107,1.148
		c-0.073,0.398,0.65,1.004-0.135,1.154c-0.83,0.16-0.699-0.566-0.693-1.094c0.008-0.754,0.432-1.955-0.656-1.947
		c-0.869,0.006-0.367,1.234-0.504,1.91c-0.107,0.52,0.283,1.312-0.646,1.375c-2.674,0.172-5.301,0.898-7.996,0.748
		c-1.303-0.074-1.918-0.783-1.67-2.16c0.212-1.18,0.665-2.258,1.242-3.287c0.675-1.205,1.381-2.393,2.092-3.576
		c0.351-0.582,0.02-0.875-0.424-1.141c-0.455-0.275-0.807-0.164-1.071,0.289c-1.351,2.311-2.834,4.564-3.554,7.176
		c-0.498,1.803,0.361,3.1,2.197,3.637c2.084,0.611,4.144,0.086,6.213-0.068c1.533-0.115,3.043-1.125,4.621-0.059
		c0.387,0.262,0.641-0.123,0.725-0.562c0.179-0.943,0.551-1.307,1.193-0.281c0.705,1.121,1.332,0.844,1.885-0.1
		c0.564-0.971,1.07-1.975,1.677-3.102c0.205,1.562-0.444,3.492,1.274,3.984c1.633,0.467,2.928-0.689,3.476-2.746
		c0.38,0.951,0.558,1.568,0.862,2.113c0.31,0.547,0.664,1.084,1.447,1.119c0.944,0.043,0.637-0.912,1.08-1.25
		c0.958,0.012,1.92,0.041,2.846-0.562c0.219,1.314-0.168,2.439-0.654,3.488c-0.439,0.947-1.139,1.326-1.861,0.178
		c-0.136-0.217-0.166-0.562-0.521-0.432c-0.355,0.135-0.379,0.473-0.315,0.809c0.125,0.658,0.327,1.283,1.132,1.336
		c0.863,0.055,1.836,0.104,2.221-0.867c0.75-1.889,1.354-3.846,1.258-5.908c-0.043-0.885-0.155-1.988-1.258-2.182
		c-1.414-0.248-2.455,0.617-3.226,1.691C172.357,72.244,172.607,73.127,173.436,73.842z M79.999,70.633
		c0,0.529-0.016,1.062,0.002,1.592c0.058,1.596,0.077,1.547,2.191,2.189c1.153,0.352,1.224-0.678,1.711-1.156
		c0.297-0.291,0.458-0.723,0.775-1.248c0.158,0.432,0.252,0.621,0.299,0.818c0.188,0.809,0.536,1.527,1.225,2.016
		c0.512,0.359,1.104,0.311,1.396-0.229c0.305-0.559-0.176-0.648-0.646-0.75c-0.763-0.162-0.835-0.855-1.011-1.484
		c-0.209-0.746-0.175-1.871-1.041-2.004c-0.901-0.139-1.086,1.004-1.544,1.625c-0.043,0.059-0.183,0.047-0.393,0.094
		c0-0.504-0.005-0.979,0.001-1.455c0.007-0.459-0.1-0.947-0.596-0.982c-0.663-0.045-0.497,0.564-0.508,0.949
		c-0.027,0.943-0.009,1.887-0.009,3.062c-0.892-0.877-0.649-1.74-0.64-2.555c0.008-0.529,0-1.459-0.478-1.316
		c-0.722,0.215-2.004-0.512-2.193,0.984c-0.044,0.35-0.292,0.688-0.493,1.002c-0.306,0.48-0.45,1.307-1.066,1.277
		c-0.656-0.031-0.647-0.863-0.831-1.396c-0.389-1.135-1.301-1.963-2.324-2.088c-2.237-0.271-4.329,1.625-4.596,3.842
		c-0.051,0.424-0.117,0.844,0.339,1.146c0.404,0.268,0.733,0.076,1.041-0.115c0.766-0.475,1.507-0.988,2.303-1.518
		c0.216,0.715,0.477,1.352,1.076,1.754c0.3,0.201,0.642,0.523,0.996,0.176c0.326-0.318-0.043-0.562-0.216-0.811
		c-0.805-1.15-0.525-2.199,0.34-3.539c0.177,1.447,0.563,2.479,1.22,3.406c0.542,0.77,1.051,0.787,1.607,0.027
		C78.694,72.92,79.17,71.742,79.999,70.633z M114.852,70.857c-1.942,1.518-3.854,2.232-5.998,2.355
		c-0.847,0.049-1.682,0.215-2.519-0.229c-0.401-0.213-0.821-1.262-1.345-0.373c-0.463,0.787,0.402,1.188,0.971,1.541
		c0.262,0.164,0.592,0.252,0.902,0.299c3.24,0.479,6.111-0.564,8.816-2.215c0.488-0.297,1.219-0.607,1.178-1.213
		c-0.047-0.668-0.812-0.955-1.383-1.221c-0.525-0.244-1.119-0.344-1.68-0.516c-1.277-0.387-2.562-0.762-3.83-1.178
		c-0.834-0.271-0.828-0.75-0.173-1.232c1.399-1.031,2.91-1.805,4.711-1.812c0.495-0.002,1.235,0.184,1.201-0.578
		c-0.026-0.604-0.694-0.725-1.271-0.713c-2.455,0.047-4.56,1.043-6.498,2.447c-0.771,0.561-0.677,1.262-0.172,1.965
		c0.494,0.688,1.196,1.053,1.989,1.271C111.34,69.895,112.925,70.328,114.852,70.857z M67.155,70.807
		c-1.238,1.395-2.766,1.895-4.303,2.188c-1.381,0.264-2.837,0.689-4.23-0.145c-0.335-0.203-0.646-0.982-1.146-0.334
		c-0.521,0.676,0.157,1.062,0.583,1.42c0.366,0.309,0.821,0.467,1.32,0.535c3.18,0.432,6-0.566,8.668-2.154
		c0.539-0.322,1.33-0.68,1.27-1.312c-0.067-0.703-0.916-0.98-1.533-1.295c-0.28-0.143-0.616-0.172-0.925-0.26
		c-1.336-0.381-2.677-0.746-4.003-1.158c-0.391-0.119-0.943-0.209-1.022-0.658c-0.097-0.557,0.466-0.789,0.851-1.047
		c1.259-0.85,2.599-1.488,4.163-1.521c0.506-0.012,1.322,0.203,1.341-0.473c0.021-0.826-0.819-0.844-1.478-0.816
		c-2.328,0.102-4.343,1.041-6.2,2.367c-0.915,0.654-0.786,1.402-0.148,2.199c0.537,0.672,1.288,0.953,2.056,1.178
		C63.936,69.959,65.467,70.352,67.155,70.807z M121.87,71.242c0.31,0.523,0.562,0.93,0.791,1.348
		c1.425,2.596,1.81,2.684,4.062,0.918c0.237-0.188,0.479-0.365,0.752-0.57c0.443,0.75,0.65,1.582,1.469,1.936
		c0.246,0.107,0.503,0.225,0.74,0.008c0.198-0.184,0.123-0.406-0.031-0.562c-1.072-1.074-0.682-2.254-0.274-3.443
		c0.369-1.078-0.026-1.428-1.144-1.357c-2.104,0.129-3.379,1.361-4.291,3.188c-2.036-3.658-2.324-3.748-3.853-1.229
		c-0.452-0.682-0.553-1.523-1.144-2.074c-0.521-0.486-0.965-0.639-1.376,0.148c-0.815,1.551,0.194,5.645,1.815,6.779
		c-0.408-1.824-1.533-3.441-0.861-5.713c0.402,1.062,0.652,1.746,0.918,2.422c0.171,0.436,0.244,1.076,0.812,1.053
		c0.46-0.021,0.45-0.639,0.625-1.012C121.145,72.514,121.206,71.842,121.87,71.242z M28.898,65.672
		c0.233-1.422-0.52-2.234-2.081-2.105c-1.667,0.137-3.255,0.623-4.714,1.475c-0.617,0.361-0.856,0.709-0.604,1.551
		c0.5,1.668-0.271,2.838-1.949,3.34c-0.385,0.117-0.747,0.203-0.704,0.699c0.031,0.371,0.313,0.684,0.631,0.572
		c1.666-0.576,1.298,0.734,1.554,1.553c0.184,0.59-0.255,1.758,0.684,1.646c0.776-0.092,0.403-1.189,0.37-1.85
		c-0.104-2.078-0.038-2.227,2.073-2.602c2.268-0.404,4.547-0.742,6.822-1.107c-2.934-0.629-5.798,0.135-9.014,0.482
		c1.297-1.359,0.205-3.602,2.441-4.168C25.993,64.758,27.543,64.158,28.898,65.672z M91.122,73.309
		c0.074,1.281-0.266,2.303-0.671,3.281c-0.501,1.211-1.074,1.271-1.917,0.273c-0.163-0.191-0.207-0.529-0.556-0.389
		c-0.282,0.113-0.352,0.4-0.312,0.674c0.097,0.648,0.246,1.344,1.027,1.434c0.959,0.113,1.99,0.174,2.429-1.002
		c0.64-1.705,1.18-3.459,1.188-5.283c0.004-1.066,0.056-2.377-1.438-2.684c-1.045-0.213-2.969,1.104-3.289,2.16
		c-0.366,1.213,0.167,1.902,1.462,2.029C89.781,73.875,90.356,73.443,91.122,73.309z M140.864,70.988
		c-0.665-0.654-1.438-0.59-2.052-0.48c-1.504,0.264-1.935-0.373-2.061-1.752c-0.066-0.729,0.036-1.711-0.961-2.268
		c-0.354,1.096-0.118,2.021,0.157,2.922c0.271,0.879,0.157,1.406-0.783,1.865c-1.257,0.615-1.269,1.277-0.211,2.18
		c0.44,0.375,0.955,0.693,1.481,0.938c0.406,0.186,0.863,0.447,1.342,0.037c0.463-0.396,0.328-0.814,0.209-1.307
		c-0.43-1.793-0.41-1.799,1.554-1.838C139.964,71.277,140.398,71.361,140.864,70.988z M96.997,70.715
		c-0.562-1.666-1.914-1.098-2.916-0.988c-1.391,0.148-1.579,0.77-0.8,1.949c0.354,0.537,0.859,0.889,0.606,1.797
		c-0.23,0.828,0.804,0.932,1.472,1.08c0.46,0.104,1.022,0.354,1.312-0.174c0.373-0.678-0.278-1.014-0.659-1.43
		c-0.562-0.613-1.843-1.057-1.595-1.805C94.769,70.09,96.028,71.035,96.997,70.715z M31.378,72.361
		c-0.123-0.529-0.18-0.723-0.211-0.92c-0.068-0.434-0.146-0.947-0.702-0.883c-0.584,0.068-0.471,0.65-0.445,1.035
		c0.044,0.686,0.107,1.391,0.317,2.037c0.151,0.465,0.385,1.049,1.071,1.016c0.591-0.029,0.717-0.543,0.938-0.961
		c0.487-0.924,0.582-2.115,1.477-2.738c0.522-0.363,0.745-0.627,0.337-1.082s-0.995-0.508-1.373,0.035
		C32.312,70.58,31.952,71.344,31.378,72.361z M131.252,72.461c-0.283-0.809-0.068-1.938-0.898-1.836
		c-0.961,0.119-0.42,1.205-0.471,1.863c-0.031,0.396,0.148,0.838,0.323,1.219c0.192,0.42,0.382,0.953,0.961,0.939
		c0.545-0.012,0.774-0.439,0.985-0.91c0.434-0.963,0.768-2.055,1.467-2.779c0.43-0.445,0.875-0.6,0.337-1.131
		c-0.522-0.518-1.124-0.352-1.483,0.232C132.034,70.773,131.705,71.555,131.252,72.461z M80.646,64.051
		c-0.408-0.047-0.663,0.209-0.63,0.541c0.05,0.502,0.325,0.92,0.929,0.885c0.389-0.021,0.531-0.271,0.509-0.654
		C81.422,64.299,81.164,64.047,80.646,64.051z M166.355,65.475c0.39-0.021,0.574-0.217,0.562-0.615
		c-0.019-0.523-0.282-0.789-0.796-0.805c-0.452-0.014-0.762,0.199-0.661,0.666C165.553,65.156,165.825,65.5,166.355,65.475z
		 M160.163,64.863c0.021-0.5-0.197-0.779-0.726-0.814c-0.381-0.025-0.646,0.121-0.652,0.496c-0.012,0.543,0.277,0.904,0.847,0.93
		C160.014,65.49,160.203,65.26,160.163,64.863z M98.14,73.123c-0.374-0.014-0.618,0.113-0.569,0.541
		c0.059,0.514,0.293,0.961,0.833,0.971c0.421,0.006,0.581-0.447,0.586-0.816C98.995,73.287,98.615,73.119,98.14,73.123z
		 M178.946,73.121c-0.378,0.004-0.774,0.002-0.706,0.555c0.062,0.506,0.349,0.93,0.844,0.975c0.411,0.037,0.6-0.428,0.643-0.771
		C179.793,73.359,179.408,73.17,178.946,73.121z"/>
	<path fill="#FDF5F5" d="M44.277,46.051c1.126-2.961,2.25-5.894,3.357-8.831c3.41-9.046,6.829-18.088,10.199-27.15
		c0.358-0.964,0.82-1.354,1.858-1.31c1.824,0.079,3.656,0.085,5.479,0.005c1.137-0.05,1.459,0.343,1.451,1.462
		c-0.046,6.233-0.019,12.468-0.019,18.702c0,7.846-0.022,15.692,0.021,23.538c0.006,1.105-0.266,1.461-1.421,1.467
		c-4.354,0.02-4.355,0.064-4.356-4.344c-0.001-10.103-0.002-20.206-0.003-30.31c0-0.633,0-1.267,0-1.901
		c-0.122-0.034-0.244-0.068-0.366-0.102c-0.559,1.463-1.124,2.924-1.674,4.391c-3.867,10.306-7.739,20.61-11.579,30.928
		c-0.346,0.928-0.79,1.336-1.848,1.336c-3.823,0-3.822,0.043-5.153-3.506c-3.887-10.361-7.772-20.721-11.661-31.08
		c-0.239-0.638-0.51-1.265-0.827-2.044c-0.485,0.905-0.333,1.672-0.334,2.404c-0.017,10.855-0.044,21.71,0.016,32.565
		c0.009,1.402-0.426,1.689-1.729,1.662c-4.058-0.088-4.059-0.035-4.059-4.021c0-13.113,0.021-26.226-0.027-39.339
		c-0.005-1.374,0.273-1.944,1.763-1.82c1.654,0.138,3.333,0.103,4.994,0.004c1.166-0.069,1.697,0.366,2.098,1.45
		c3.372,9.118,6.804,18.214,10.216,27.317c0.905,2.414,1.803,4.831,2.723,7.238C43.56,45.191,43.579,45.727,44.277,46.051z"/>
	<path fill="#FDF5F5" d="M145.309,24.773c0.006-4.962,2.836-7.495,6.914-9.067c1.803-0.695,2.562-2.351,3.412-3.914
		c0.268-0.488,0.383-1.336,1.061-1.258c0.611,0.071,0.697,0.879,0.884,1.422c0.867,2.53,1.103,5.153,0.901,7.795
		c-0.102,1.335-0.002,1.788,1.562,1.369c3.871-1.036,7.789-0.896,11.596,0.378c3.647,1.22,5.686,3.853,6.32,7.641
		c0.193,1.157,0.02,1.784-1.314,1.616c-0.422-0.054-0.861-0.043-1.287-0.001c-1.61,0.158-2.963,0.033-3.229-2.04
		c-0.084-0.655-0.678-1.193-1.221-1.661c-2.414-2.083-8.376-2.428-10.996-0.622c-2.271,1.567-2.27,4.315,0.027,5.878
		c1.496,1.018,3.23,1.435,4.959,1.843c2.822,0.667,5.688,1.164,8.42,2.176c3.332,1.235,5.859,3.22,6.188,7.062
		c0.354,4.156-1.171,7.482-4.965,9.322c-5.51,2.67-11.234,2.746-16.861,0.357c-3.373-1.432-5.144-4.246-5.728-7.846
		c-0.187-1.15,0.041-1.781,1.353-1.627c0.424,0.049,0.865,0.059,1.287,0.002c1.689-0.23,2.754,0.139,3.113,2.127
		c0.302,1.662,1.708,2.693,3.283,3.297c3.127,1.201,6.312,1.201,9.486,0.236c1.894-0.574,3.184-1.791,3.356-3.883
		c0.151-1.818-0.849-3.239-2.89-4.214c-2.557-1.221-5.359-1.536-8.066-2.204c-2.143-0.527-4.275-1.062-6.225-2.156
		c-2.418-1.358-3.91-3.348-4.1-6.152c-0.066-1.009-0.443-1.069-1.371-1.164c-2.291-0.232-4.08,0.513-5.89,1.859
		c-2.196,1.635-2.668,1.38-3.599-1.121c-1.494-4.018-5.955-5.943-10.575-4.627c-2.837,0.808-4.862,2.534-5.904,5.258
		c-1.715,4.48-1.864,9.034-0.028,13.519c1.592,3.885,4.861,5.791,9.104,5.508c4.088-0.273,6.724-2.484,7.815-6.693
		c0.252-0.975,0.685-1.333,1.662-1.257c0.963,0.073,1.938,0.066,2.9,0.011c1.068-0.061,1.234,0.322,1.027,1.338
		c-1.579,7.822-7.789,12.24-16.01,11.326c-7.072-0.785-11.555-4.875-12.998-11.868c-0.818-3.973-0.726-7.949,0.528-11.79
		c2.531-7.755,8.754-11.434,17.091-10.298C139.729,21.118,140.363,21.405,145.309,24.773z M150.75,25.069l0.041,0.031
		c0.227,0.34,0.09,0.531-0.205,0.783c-0.781,0.667-1.513,1.394-2.375,2.201c3.161,0.815,6.196-0.082,7.537-2.398
		c2.434-4.203,2.01-8.661,0.82-13.181c-1.129,2.544-3.157,3.844-5.553,4.919c-2.748,1.233-4.582,3.343-4.559,6.601
		c0.005,0.794-0.223,1.893,0.48,2.24c0.629,0.309,1.442-0.402,2.062-0.904C149.529,24.93,150.055,24.488,150.75,25.069z"/>
	<path fill="#FDF5F5" d="M92.84,50.258c-0.391-0.088-0.573,0.23-0.796,0.438c-4.093,3.811-8.969,4.635-14.246,3.578
		c-4.368-0.877-6.923-3.959-7.062-8.197c-0.168-5.102,2.119-8.256,6.968-9.673c3.053-0.892,6.194-1.304,9.323-1.795
		c0.847-0.133,1.695-0.292,2.521-0.512c2.12-0.562,3.112-1.61,3.209-3.312c0.118-2.075-0.944-4.027-2.717-4.712
		c-3.139-1.214-6.334-1.14-9.435,0.073c-1.689,0.661-2.778,2.073-2.993,3.909c-0.132,1.127-0.597,1.46-1.648,1.375
		c-0.853-0.07-1.722-0.069-2.574,0.004c-1.212,0.104-1.457-0.417-1.288-1.524c0.729-4.766,3.6-7.58,8.11-8.741
		c3.907-1.006,7.894-1.037,11.789,0.07c4.147,1.178,6.109,3.872,6.136,8.188c0.035,5.854,0.007,11.708,0.019,17.562
		c0.005,2.592,0.02,2.596,2.583,2.801c0.214,0.02,0.406-0.014,0.568,0.186c0.871,1.072-0.158,4.137-1.504,4.463
		C95.882,55.389,93.987,54.254,92.84,50.258z M92.711,40.613c0-0.805-0.014-1.61,0.005-2.415c0.017-0.656-0.198-0.876-0.861-0.615
		c-2.834,1.119-5.879,1.165-8.829,1.694c-1.809,0.324-3.573,0.756-5.007,2.02c-2.526,2.224-1.921,6.578,1.109,7.937
		C85.631,52.152,92.737,47.645,92.711,40.613z"/>
	<path fill="#FDF5F5" d="M108.15,27.81c0.982-1.376,1.623-2.363,2.354-3.276c2.153-2.691,5.04-3.879,8.426-4.053
		c0.967-0.049,1.366,0.249,1.309,1.259c-0.074,1.284,0.32,2.718-0.129,3.827c-0.549,1.355-2.256,0.659-3.424,0.946
		c-5.146,1.265-7.988,4.879-8.145,10.898c-0.113,4.399-0.057,8.802-0.064,13.202c-0.006,3.311,0,3.314-3.266,3.301
		c-2.415-0.01-2.173,0.248-2.174-2.131c-0.005-9.608,0.029-19.216-0.036-28.823c-0.009-1.441,0.397-1.816,1.812-1.77
		c3.33,0.11,3.334,0.036,3.338,3.449C108.15,25.542,108.15,26.444,108.15,27.81z"/>
	<path fill="#FDF5F5" d="M182.072,54.672c-1.199,0.037-2.488-1.475-2.504-2.936c-0.016-1.717,1.307-3.09,3.003-3.117
		c1.702-0.027,3.06,1.213,3.075,2.812C185.669,53.688,184.678,54.586,182.072,54.672z M183.993,53.504
		c0.194,0.211,0.364,0.111,0.522-0.049c0.7-0.705,1.018-1.551,0.599-2.479c-0.493-1.092-1.19-2.068-2.597-1.918
		c-1.142,0.123-2.054,0.73-2.387,1.854c-0.373,1.262,0.021,2.395,1.227,2.982c0.898,0.439,1.977,0.902,2.673-0.426L183.993,53.504z"
		/>
	<path fill="#FDF5F5" d="M173.387,73.797c-0.447,0.336-0.139,1.291-1.084,1.248c-0.781-0.035-1.138-0.572-1.445-1.119
		c-0.308-0.545-0.483-1.162-0.863-2.113c-0.548,2.057-1.844,3.213-3.477,2.746c-1.719-0.492-1.068-2.422-1.273-3.984
		c-0.605,1.127-1.111,2.131-1.678,3.102c-0.551,0.941-1.18,1.221-1.885,0.1c-0.643-1.023-1.015-0.662-1.192,0.281
		c-0.084,0.439-0.339,0.824-0.726,0.562c-1.578-1.066-3.088-0.059-4.619,0.059c-2.07,0.154-4.129,0.68-6.213,0.068
		c-1.836-0.537-2.695-1.834-2.199-3.637c0.721-2.611,2.203-4.865,3.555-7.176c0.266-0.453,0.615-0.564,1.07-0.289
		c0.443,0.266,0.774,0.559,0.425,1.141c-0.711,1.186-1.417,2.371-2.093,3.576c-0.576,1.029-1.029,2.107-1.241,3.287
		c-0.248,1.377,0.366,2.086,1.67,2.16c2.696,0.15,5.321-0.576,7.996-0.748c0.931-0.062,0.54-0.855,0.646-1.375
		c0.137-0.676-0.363-1.904,0.504-1.91c1.09-0.008,0.666,1.193,0.657,1.947c-0.006,0.527-0.137,1.254,0.693,1.094
		c0.786-0.15,0.062-0.756,0.135-1.154c0.062-0.332-0.194-0.707,0.106-1.148c0.761,0.414,0.658,1.191,0.926,1.77
		c0.146,0.316,0.17,0.795,0.638,0.818c0.368,0.02,0.517-0.344,0.668-0.617c0.362-0.656,0.662-1.348,1.063-1.979
		c0.267-0.42,0.216-1.367,1.051-1.031c0.691,0.279,1.789,0.34,1.479,1.678c-0.175,0.744-0.209,1.578,0.604,2.682
		c0-1.285-0.028-2.146,0.013-3c0.021-0.43-0.25-1.158,0.444-1.168c0.732-0.008,0.604,0.707,0.611,1.24
		c0.006,0.402,0.086,0.803,0.145,1.309c0.824-0.586,0.852-2.1,1.893-1.812c0.885,0.242,0.85,1.486,1.084,2.348
		c0.279,1.029,0.905,1.455,1.965,1.094L173.387,73.797z"/>
	<path fill="#FDF5F5" d="M36.894,71.477c-0.863,0.395-1.265,1.17-0.888,1.945c0.382,0.783,1.205,0.303,1.855,0.139
		c0.311-0.078,0.635-0.105,0.952-0.16c0.775-0.135,1.881-0.014,2.25-0.477c0.52-0.654-0.704-1.105-0.917-1.811
		c-0.203-0.67-0.033-1.051,0.589-1.23c1.2-0.35,2.403-0.584,3.573,0.355c0.363-1.789,0.688-3.557,1.103-5.301
		c0.097-0.406,0.087-1.021,0.711-1.141c0.403-0.076,0.702,0.078,0.953,0.432c0.384,0.539,0.011,0.879-0.227,1.293
		c-1.19,2.076-1.248,4.334-1.145,7.002c0.701-0.783,1.196-1.299,1.648-1.85c0.894-1.092,1.715-0.887,2.492,0.113
		c0.697,0.896,1.16,1.932,1.528,2.992c0.259,0.746,0.647,1.326,1.302,1.771c0.267,0.18,1.025,0.188,0.488,0.842
		c-0.377,0.459-0.893,0.414-1.304,0.119c-0.855-0.609-1.296-1.545-1.753-2.461c-1.402-2.809-1.407-2.807-3.478-0.312
		c-0.788,0.951-1.374,0.904-1.816-0.234c-0.248-0.637-0.312-1.35-0.419-2.033c-0.06-0.377-0.005-0.672-0.604-0.648
		c-0.762,0.031-1.787-0.549-2.176,0.287c-0.279,0.602,0.777,0.988,1.218,1.49c0.462,0.523,1.584,0.955,1.05,1.709
		c-0.635,0.896-1.825,0.336-2.418-0.189c-0.787-0.699-1.295-0.521-2.066-0.139c-0.706,0.35-1.509,0.553-2.293,0.682
		c-0.875,0.145-1.794-0.021-2.266-0.842c-0.419-0.729-0.26-1.566,0.23-2.275c0.212-0.309,0.454-0.611,0.742-0.844
		c0.814-0.65,1.731-1.746,2.743-0.641c0.953,1.041-0.509,1.893-0.726,2.877c-0.062,0.279-0.403,0.287-0.682,0.15
		c-0.87-0.426-0.022-1.029-0.166-1.527c0.15-0.014,0.309-0.088,0.18-0.234C37.038,71.189,36.922,71.314,36.894,71.477z"/>
	<path fill="#FDF5F5" d="M79.999,70.633c-0.83,1.109-1.305,2.287-2.059,3.314c-0.556,0.76-1.064,0.742-1.607-0.027
		c-0.654-0.93-1.042-1.959-1.22-3.406c-0.865,1.34-1.144,2.389-0.34,3.539c0.172,0.246,0.542,0.49,0.216,0.811
		c-0.354,0.348-0.696,0.025-0.996-0.176c-0.6-0.402-0.86-1.039-1.076-1.754c-0.796,0.529-1.537,1.043-2.303,1.518
		c-0.307,0.191-0.636,0.383-1.041,0.115c-0.457-0.305-0.39-0.725-0.339-1.146c0.267-2.217,2.359-4.113,4.596-3.842
		c1.023,0.125,1.936,0.953,2.324,2.088c0.183,0.533,0.175,1.365,0.831,1.396c0.616,0.029,0.761-0.797,1.067-1.277
		c0.199-0.314,0.447-0.652,0.492-1.002c0.189-1.496,1.472-0.77,2.193-0.984c0.478-0.143,0.484,0.787,0.478,1.316
		c-0.01,0.812-0.252,1.678,0.64,2.555c0-1.176-0.019-2.119,0.009-3.062c0.011-0.385-0.155-0.994,0.508-0.949
		c0.496,0.035,0.603,0.523,0.597,0.982c-0.007,0.477-0.001,0.951-0.001,1.455c0.21-0.047,0.349-0.035,0.392-0.094
		c0.458-0.621,0.643-1.764,1.544-1.625c0.865,0.133,0.832,1.258,1.041,2.004c0.176,0.629,0.248,1.322,1.011,1.484
		c0.472,0.102,0.952,0.191,0.646,0.75c-0.294,0.539-0.884,0.588-1.396,0.229c-0.688-0.488-1.035-1.207-1.225-2.016
		c-0.047-0.197-0.141-0.387-0.299-0.818c-0.318,0.525-0.479,0.957-0.775,1.248c-0.487,0.479-0.558,1.508-1.711,1.156
		c-2.114-0.645-2.134-0.594-2.191-2.189C79.983,71.695,79.999,71.162,79.999,70.633z M70.522,73.408
		c0.97-0.871,1.639-1.463,2.297-2.066c0.188-0.176,0.423-0.4,0.161-0.654c-0.246-0.24-0.446-0.029-0.663,0.145
		C71.589,71.424,70.795,71.949,70.522,73.408z"/>
	<path fill="#FDF5F5" d="M114.852,70.857c-1.928-0.529-3.513-0.963-5.097-1.398c-0.793-0.219-1.495-0.584-1.989-1.271
		c-0.504-0.703-0.601-1.404,0.172-1.965c1.938-1.404,4.043-2.4,6.498-2.447c0.576-0.012,1.242,0.109,1.271,0.713
		c0.034,0.762-0.706,0.576-1.201,0.578c-1.801,0.01-3.312,0.781-4.711,1.812c-0.655,0.482-0.661,0.961,0.173,1.232
		c1.27,0.416,2.553,0.791,3.83,1.178c0.561,0.172,1.153,0.271,1.68,0.516c0.571,0.266,1.336,0.553,1.383,1.221
		c0.041,0.605-0.688,0.916-1.178,1.213c-2.705,1.648-5.576,2.691-8.816,2.215c-0.311-0.047-0.641-0.135-0.902-0.299
		c-0.568-0.354-1.433-0.754-0.971-1.541c0.521-0.889,0.943,0.16,1.345,0.373c0.837,0.443,1.672,0.277,2.519,0.229
		C110.997,73.09,112.909,72.373,114.852,70.857z"/>
	<path fill="#FDF5F5" d="M67.155,70.807c-1.688-0.455-3.22-0.848-4.738-1.287c-0.769-0.225-1.519-0.506-2.056-1.178
		c-0.638-0.797-0.767-1.545,0.148-2.199c1.857-1.326,3.873-2.268,6.2-2.367c0.658-0.027,1.499-0.01,1.478,0.816
		c-0.02,0.676-0.835,0.461-1.341,0.473c-1.563,0.033-2.903,0.674-4.163,1.52c-0.385,0.26-0.947,0.492-0.851,1.049
		c0.079,0.449,0.633,0.539,1.022,0.658c1.326,0.412,2.667,0.777,4.003,1.158c0.309,0.088,0.645,0.117,0.925,0.26
		c0.617,0.314,1.465,0.592,1.533,1.295c0.061,0.633-0.729,0.99-1.27,1.312c-2.668,1.588-5.488,2.586-8.668,2.154
		c-0.5-0.068-0.954-0.229-1.32-0.535c-0.426-0.355-1.104-0.744-0.583-1.42c0.5-0.648,0.812,0.131,1.146,0.334
		c1.394,0.836,2.85,0.408,4.23,0.145C64.39,72.701,65.916,72.201,67.155,70.807z"/>
	<path fill="#FDF5F5" d="M121.87,71.242c-0.664,0.6-0.726,1.271-0.988,1.836c-0.175,0.375-0.165,0.992-0.625,1.012
		c-0.569,0.023-0.643-0.615-0.812-1.051c-0.268-0.678-0.518-1.359-0.918-2.424c-0.674,2.271,0.453,3.891,0.859,5.715
		c-1.621-1.137-2.631-5.229-1.814-6.781c0.412-0.785,0.855-0.635,1.376-0.146c0.591,0.551,0.69,1.393,1.144,2.074
		c1.527-2.521,1.815-2.432,3.852,1.227c0.914-1.824,2.188-3.059,4.291-3.188c1.117-0.068,1.514,0.279,1.145,1.359
		c-0.406,1.188-0.798,2.369,0.273,3.443c0.156,0.154,0.23,0.379,0.031,0.562c-0.236,0.215-0.492,0.1-0.738-0.008
		c-0.818-0.354-1.025-1.188-1.469-1.938c-0.272,0.207-0.516,0.385-0.752,0.57c-2.252,1.766-2.638,1.678-4.062-0.918
		C122.432,72.172,122.18,71.766,121.87,71.242z M127.814,70.504c-1.39,0.652-2.26,1.25-2.596,2.803
		C126.225,72.373,127.264,71.971,127.814,70.504z"/>
	<path fill="#FDF5F5" d="M28.898,65.672c-1.355-1.516-2.905-0.914-4.492-0.514c-2.236,0.566-1.146,2.809-2.441,4.168
		c3.216-0.35,6.08-1.111,9.014-0.482c-2.275,0.365-4.556,0.703-6.822,1.107c-2.111,0.375-2.177,0.521-2.073,2.602
		c0.033,0.658,0.407,1.758-0.37,1.85c-0.938,0.111-0.5-1.057-0.684-1.646c-0.255-0.816,0.112-2.129-1.554-1.553
		c-0.317,0.111-0.601-0.201-0.631-0.572c-0.043-0.496,0.319-0.582,0.704-0.699c1.68-0.502,2.449-1.672,1.949-3.34
		c-0.252-0.842-0.012-1.188,0.604-1.551c1.459-0.852,3.047-1.338,4.714-1.475C28.379,63.438,29.133,64.25,28.898,65.672z"/>
	<path fill="#FDF5F5" d="M91.122,73.309c-0.766,0.135-1.341,0.566-2.077,0.496c-1.295-0.127-1.828-0.818-1.462-2.029
		c0.32-1.059,2.243-2.375,3.289-2.16c1.494,0.307,1.442,1.615,1.438,2.684c-0.008,1.824-0.548,3.576-1.188,5.283
		c-0.438,1.176-1.47,1.113-2.429,1.002c-0.781-0.092-0.932-0.785-1.027-1.436c-0.04-0.27,0.029-0.559,0.312-0.674
		c0.349-0.141,0.393,0.197,0.556,0.391c0.843,0.996,1.417,0.936,1.917-0.273C90.856,75.611,91.196,74.59,91.122,73.309z
		 M90.827,71.738c-0.027-0.555-0.41-0.582-0.785-0.57c-0.567,0.016-1.117,0.238-1.143,0.836c-0.017,0.367,0.512,0.477,0.888,0.445
		C90.267,72.41,90.732,72.305,90.827,71.738z"/>
	<path fill="#FDF5F5" d="M173.436,73.842c-0.828-0.715-1.078-1.598-0.434-2.496c0.77-1.072,1.811-1.939,3.227-1.691
		c1.102,0.193,1.215,1.299,1.256,2.184c0.099,2.062-0.508,4.02-1.258,5.908c-0.383,0.969-1.355,0.92-2.22,0.865
		c-0.805-0.051-1.007-0.678-1.132-1.336c-0.062-0.334-0.04-0.672,0.316-0.807c0.354-0.133,0.385,0.215,0.521,0.43
		c0.724,1.15,1.422,0.771,1.861-0.176c0.487-1.051,0.872-2.174,0.653-3.488c-0.926,0.604-1.887,0.572-2.844,0.562
		C173.387,73.797,173.436,73.842,173.436,73.842z M176.02,71.686c-0.086-0.531-0.467-0.541-0.845-0.512
		c-0.561,0.041-1.106,0.266-1.085,0.875c0.014,0.369,0.551,0.436,0.926,0.396C175.503,72.398,175.956,72.264,176.02,71.686z"/>
	<path fill="#FDF5F5" d="M140.864,70.988c-0.466,0.373-0.9,0.289-1.323,0.297c-1.964,0.039-1.982,0.045-1.553,1.838
		c0.117,0.492,0.253,0.908-0.209,1.307c-0.479,0.41-0.936,0.148-1.342-0.037c-0.527-0.244-1.041-0.562-1.482-0.938
		c-1.059-0.9-1.046-1.564,0.211-2.18c0.941-0.459,1.053-0.986,0.783-1.865c-0.275-0.898-0.51-1.826-0.157-2.922
		c0.997,0.557,0.896,1.539,0.961,2.268c0.126,1.379,0.556,2.016,2.062,1.752C139.426,70.398,140.199,70.332,140.864,70.988z"/>
	<path fill="#FDF5F5" d="M96.997,70.715c-0.968,0.32-2.229-0.625-2.578,0.432c-0.248,0.746,1.033,1.189,1.595,1.803
		c0.38,0.416,1.032,0.752,0.659,1.432c-0.29,0.525-0.853,0.275-1.312,0.174c-0.667-0.148-1.702-0.254-1.472-1.082
		c0.253-0.908-0.252-1.258-0.606-1.795c-0.779-1.182-0.591-1.801,0.8-1.949C95.082,69.617,96.436,69.049,96.997,70.715z"/>
	<path fill="#FDF5F5" d="M31.378,72.361c0.574-1.018,0.936-1.779,1.41-2.461c0.377-0.543,0.964-0.49,1.373-0.035
		c0.407,0.455,0.186,0.719-0.337,1.082c-0.895,0.623-0.989,1.814-1.477,2.738c-0.222,0.418-0.348,0.932-0.938,0.961
		c-0.687,0.033-0.92-0.551-1.071-1.016c-0.209-0.646-0.272-1.352-0.317-2.037c-0.025-0.385-0.14-0.967,0.445-1.035
		c0.557-0.064,0.633,0.449,0.702,0.883C31.198,71.639,31.255,71.83,31.378,72.361z"/>
	<path fill="#FDF5F5" d="M131.252,72.461c0.453-0.906,0.782-1.688,1.221-2.402c0.359-0.584,0.961-0.75,1.483-0.232
		c0.538,0.531,0.093,0.688-0.337,1.131c-0.699,0.727-1.033,1.818-1.467,2.781c-0.211,0.471-0.44,0.898-0.985,0.91
		c-0.579,0.012-0.769-0.521-0.961-0.941c-0.175-0.379-0.354-0.82-0.323-1.219c0.051-0.656-0.49-1.742,0.471-1.861
		C131.184,70.523,130.969,71.654,131.252,72.461z"/>
	<path fill="#FDF5F5" d="M80.645,64.051c0.519-0.004,0.777,0.248,0.809,0.771c0.022,0.383-0.12,0.633-0.509,0.654
		c-0.604,0.035-0.879-0.383-0.929-0.885C79.982,64.26,80.237,64.004,80.645,64.051z"/>
	<path fill="#FDF5F5" d="M166.355,65.475c-0.53,0.025-0.805-0.318-0.896-0.754c-0.101-0.467,0.209-0.68,0.661-0.666
		c0.514,0.016,0.777,0.279,0.796,0.805C166.93,65.258,166.745,65.451,166.355,65.475z"/>
	<path fill="#FDF5F5" d="M160.163,64.863c0.04,0.396-0.149,0.627-0.531,0.611c-0.567-0.025-0.856-0.387-0.847-0.93
		c0.008-0.375,0.271-0.521,0.652-0.496C159.966,64.082,160.186,64.363,160.163,64.863z"/>
	<path fill="#FDF5F5" d="M98.14,73.121c0.476-0.002,0.855,0.166,0.85,0.695c-0.005,0.371-0.165,0.822-0.586,0.816
		c-0.539-0.01-0.774-0.457-0.833-0.971C97.521,73.238,97.766,73.111,98.14,73.121z"/>
	<path fill="#FDF5F5" d="M178.947,73.121c0.461,0.049,0.846,0.238,0.779,0.758c-0.045,0.344-0.231,0.809-0.644,0.771
		c-0.495-0.047-0.78-0.469-0.844-0.975C178.172,73.123,178.568,73.125,178.947,73.121z"/>
	<path fill="#4D4D4D" d="M150.75,25.069c-0.695-0.581-1.221-0.138-1.75,0.292c-0.618,0.502-1.434,1.213-2.061,0.904
		c-0.705-0.347-0.478-1.445-0.481-2.24c-0.022-3.257,1.81-5.367,4.558-6.601c2.396-1.075,4.424-2.375,5.553-4.919
		c1.189,4.52,1.613,8.978-0.819,13.181c-1.341,2.316-4.376,3.213-7.537,2.398c0.862-0.807,1.593-1.534,2.375-2.201
		c0.295-0.252,0.431-0.442,0.206-0.782c0.338,0.162,0.645,0.14,0.719-0.275c0.053-0.29-0.142-0.523-0.465-0.471
		C150.607,24.425,150.316,24.611,150.75,25.069z"/>
	<path fill="#888888" d="M92.711,40.613c0.026,7.031-7.08,11.539-13.583,8.621c-3.03-1.359-3.637-5.713-1.109-7.937
		c1.434-1.263,3.198-1.696,5.007-2.02c2.95-0.529,5.995-0.575,8.829-1.694c0.663-0.261,0.877-0.041,0.861,0.615
		C92.697,39.003,92.711,39.808,92.711,40.613z"/>
	<path fill="#7F8C8D" d="M184.03,53.469c-0.696,1.328-1.773,0.865-2.673,0.426c-1.203-0.588-1.6-1.723-1.227-2.982
		c0.333-1.121,1.245-1.729,2.387-1.854c1.405-0.15,2.104,0.826,2.597,1.918c0.419,0.928,0.103,1.773-0.599,2.479
		c-0.158,0.16-0.328,0.26-0.522,0.049c-0.013-0.797-0.55-1.545,0.039-2.408c0.339-0.498-0.093-1.088-0.729-1.117
		c-0.623-0.027-1.601-0.537-1.807,0.322c-0.225,0.939-0.355,2.045,0.167,3.018c0.747-0.23,0.144-1.111,0.83-1.312
		C183.082,52.402,183.104,53.426,184.03,53.469z"/>
	<path fill="#4D4D4D" d="M36.894,71.477c0.029-0.162,0.145-0.287,0.266-0.15c0.129,0.146-0.028,0.223-0.18,0.234L36.894,71.477z"/>
	<path fill="#4D4D4D" d="M70.522,73.408c0.272-1.459,1.066-1.984,1.795-2.576c0.217-0.176,0.417-0.385,0.663-0.145
		c0.262,0.254,0.029,0.479-0.161,0.654C72.161,71.945,71.492,72.537,70.522,73.408z"/>
	<path fill="#4D4D4D" d="M127.814,70.504c-0.551,1.467-1.592,1.869-2.596,2.803C125.557,71.754,126.426,71.156,127.814,70.504z"/>
	<path fill="#4D4D4D" d="M90.827,71.738c-0.095,0.566-0.562,0.672-1.039,0.711c-0.376,0.031-0.903-0.078-0.888-0.445
		c0.026-0.598,0.574-0.82,1.143-0.836C90.417,71.156,90.8,71.184,90.827,71.738z"/>
	<path fill="#4D4D4D" d="M176.02,71.686c-0.063,0.578-0.518,0.713-1.004,0.762c-0.375,0.037-0.912-0.027-0.926-0.396
		c-0.021-0.609,0.524-0.834,1.085-0.877C175.553,71.145,175.934,71.154,176.02,71.686z"/>
	<path fill="#FDF5F5" d="M150.75,25.069c-0.434-0.458-0.143-0.644,0.296-0.714c0.323-0.052,0.519,0.181,0.466,0.471
		c-0.074,0.415-0.382,0.437-0.72,0.275C150.791,25.099,150.75,25.069,150.75,25.069z"/>
	<path fill="#FDF5F5" d="M184.03,53.469c-0.927-0.043-0.948-1.066-1.537-1.465c-0.687,0.203-0.083,1.084-0.83,1.314
		c-0.522-0.973-0.392-2.078-0.167-3.02c0.206-0.857,1.184-0.35,1.807-0.32c0.639,0.029,1.068,0.619,0.729,1.115
		c-0.589,0.865-0.052,1.611-0.039,2.408L184.03,53.469z"/>
</g>
</svg>
