<?xml version="1.0" encoding="utf-8"?>
<!-- Generator: Adobe Illustrator 16.0.4, SVG Export Plug-In . SVG Version: 6.00 Build 0)  -->
<!DOCTYPE svg PUBLIC "-//W3C//DTD SVG 1.1//EN" "http://www.w3.org/Graphics/SVG/1.1/DTD/svg11.dtd">
<svg version="1.1" id="Layer_1" xmlns="http://www.w3.org/2000/svg" xmlns:xlink="http://www.w3.org/1999/xlink" x="0px" y="0px"
	 width="200px" height="85px" viewBox="0 0 200 85" enable-background="new 0 0 200 85" xml:space="preserve">
<path fill-rule="evenodd" clip-rule="evenodd" fill="#888888" d="M190.986,12.965c-1.467,0-2.934,0-4.457,0
	c-0.014-0.212-0.031-0.385-0.031-0.557c-0.002-1.827-0.014-3.655,0.008-5.483c0.002-0.412-0.119-0.539-0.535-0.536
	c-2.232,0.019-4.465,0.02-6.697-0.001c-0.428-0.003-0.525,0.145-0.525,0.545c0.01,11.912,0.01,23.824-0.002,35.737
	c-0.002,0.445,0.141,0.546,0.561,0.539c1.467-0.023,2.932-0.01,4.43-0.01c0,1.309,0,2.587,0,3.896c-5.834,0-11.656,0-17.518,0
	c0-1.284,0-2.562,0-3.879c1.621,0,3.232,0,4.885,0c0-12.272,0-24.504,0-36.79c-0.168-0.01-0.342-0.027-0.516-0.027
	c-2.816-0.001-5.635,0.007-8.451-0.01c-0.426-0.002-0.568,0.112-0.564,0.553c0.023,1.798,0.01,3.596,0.01,5.394
	c0,0.179,0,0.356,0,0.57c-1.494,0-2.951,0-4.465,0c0-0.178,0-0.353,0-0.527c0-3.312,0-6.623-0.002-9.935
	c0-0.179-0.016-0.358-0.023-0.537c11.299,0,22.598,0,33.895,0C190.986,5.593,190.986,9.279,190.986,12.965z"/>
<path fill-rule="evenodd" clip-rule="evenodd" fill="#888888" d="M9.013,51.356c5.288,0.001,10.578,0.045,15.865-0.012
	c3.296-0.034,5.747,1.385,7.57,4.028c1.417,2.056,2.191,4.37,2.638,6.807c0.755,4.122,0.558,8.192-0.743,12.184
	c-0.748,2.294-1.869,4.379-3.743,5.972c-1.516,1.289-3.274,1.946-5.272,1.946c-5.438-0.001-10.877,0.002-16.315,0.004
	c0-0.899,0-1.799,0-2.698c0.896,0,1.792,0,2.723,0c0-8.516,0-17.018,0-25.534c-0.931,0-1.827,0-2.723,0
	C9.013,53.154,9.013,52.255,9.013,51.356z M18.292,54.054c-0.009,0.2-0.022,0.348-0.022,0.495
	c-0.001,8.179,0.001,16.357-0.008,24.535c0,0.393,0.081,0.543,0.515,0.539c2.786-0.021,5.572-0.01,8.358-0.012
	c0.158,0,0.315-0.017,0.476-0.025c0-8.537,0-17.021,0-25.532C24.501,54.054,21.423,54.054,18.292,54.054z"/>
<path fill-rule="evenodd" clip-rule="evenodd" fill="#FFFFFF" d="M9.013,54.053c0.896,0,1.792,0,2.723,0c0,8.517,0,17.019,0,25.534
	c-0.931,0-1.827,0-2.723,0C9.013,71.076,9.013,62.565,9.013,54.053z"/>
<path fill-rule="evenodd" clip-rule="evenodd" fill="#888888" d="M18.225,43.282c0,1.289,0,2.526,0,3.813
	c-0.159,0.011-0.317,0.028-0.476,0.028c-2.592,0.002-5.184-0.006-7.776,0.01c-0.396,0.002-0.56-0.089-0.548-0.518
	c0.028-0.959,0.019-1.919,0.003-2.877C9.423,43.4,9.518,43.26,9.885,43.274c0.703,0.027,1.408-0.001,2.112,0.012
	c0.274,0.006,0.389-0.094,0.362-0.365c-0.01-0.104,0-0.21,0-0.314c0-11.747,0-23.494,0-35.241c0-0.192,0-0.386,0-0.665
	c-0.645,0-1.252,0.006-1.86-0.001C9.266,6.684,9.449,6.868,9.435,5.622C9.427,4.858,9.45,4.094,9.427,3.33
	C9.415,2.948,9.521,2.819,9.928,2.821c3.491,0.017,6.982,0.018,10.473-0.001c0.378-0.003,0.511,0.137,0.627,0.459
	c1.578,4.34,3.167,8.676,4.755,13.014c0.754,2.063,1.509,4.127,2.265,6.19c0.054,0.147,0.118,0.292,0.231,0.57
	c0.294-0.826,0.546-1.52,0.789-2.216C31.118,14.97,33.166,9.1,35.214,3.229C35.293,3,35.359,2.82,35.691,2.821
	c3.236,0.017,6.472,0.011,9.708,0.011c0.072,0,0.145,0.012,0.271,0.022c0,0.982,0,1.951,0,2.92c0,0.926,0,0.926-0.922,0.926
	c-0.656,0-1.312,0-2.011,0c-0.011,0.215-0.026,0.373-0.026,0.532c-0.001,11.837,0.001,23.673-0.01,35.51
	c0,0.433,0.118,0.567,0.551,0.55c0.789-0.033,1.58-0.01,2.394-0.01c0,1.287,0,2.524,0,3.803c-4.275,0-8.548,0-12.85,0
	c0-1.25,0-2.488,0-3.803c0.617,0,1.239,0,1.861,0c1.064,0,1.064,0,1.064-1.06c0-10.413,0-20.827,0-31.24c0-0.192,0-0.386,0-0.579
	c-0.032-0.01-0.063-0.02-0.095-0.029c-0.058,0.122-0.126,0.239-0.17,0.366c-2.705,7.809-5.413,15.616-8.097,23.432
	c-0.171,0.499-0.386,0.67-0.904,0.635c-0.747-0.049-1.498-0.031-2.247-0.004c-0.32,0.012-0.437-0.117-0.532-0.396
	c-1.906-5.57-3.82-11.138-5.733-16.705c-0.782-2.276-1.562-4.552-2.343-6.827c-0.051-0.148-0.112-0.294-0.268-0.432
	c-0.01,0.136-0.028,0.273-0.028,0.41c-0.001,10.623,0.002,21.246-0.011,31.869c0,0.466,0.136,0.591,0.585,0.569
	C16.651,43.257,17.427,43.282,18.225,43.282z"/>
<path fill-rule="evenodd" clip-rule="evenodd" fill="#888888" d="M90.242,47.099c-3.991,0-7.954,0-11.945,0c0-0.868,0-1.717,0-2.646
	c0.189,0,0.39,0,0.592,0c0.705,0,1.409-0.012,2.113,0.004c0.291,0.006,0.42-0.094,0.393-0.387c-0.008-0.089,0-0.18,0-0.27
	c0-8.122,0-16.242,0-24.363c0-0.645-0.001-0.645-0.625-0.646c-0.764-0.001-1.528-0.002-2.292-0.004
	c-0.044,0-0.089-0.012-0.171-0.022c0-0.854,0-1.713,0-2.601c0.088-0.015,0.188-0.045,0.287-0.045
	c5.409,0.003,10.821-0.116,16.226,0.05c4.43,0.137,8.015,3.793,8.237,8.013c0.205,3.884-1.738,6.904-5.363,8.296
	c-0.152,0.059-0.3,0.128-0.492,0.209c0.427,0.814,0.839,1.607,1.257,2.397c1.566,2.963,3.139,5.922,4.693,8.892
	c0.182,0.348,0.374,0.528,0.788,0.484c0.4-0.041,0.809,0,1.212-0.012c0.237-0.007,0.367,0.061,0.364,0.322
	c-0.008,0.674-0.006,1.349,0,2.023c0.002,0.254-0.114,0.334-0.357,0.334c-2.547-0.005-5.094-0.008-7.641,0.003
	c-0.292,0.002-0.375-0.162-0.476-0.376c-2.03-4.301-4.07-8.598-6.091-12.902c-0.175-0.373-0.37-0.534-0.799-0.515
	c-0.835,0.038-1.674,0.011-2.546,0.011c0,3.694,0,7.356,0,11.084c0.864,0,1.738,0,2.639,0C90.242,45.344,90.242,46.19,90.242,47.099
	z M87.596,18.816c-0.012,0.147-0.027,0.25-0.027,0.353c-0.001,3.671,0.003,7.341-0.009,11.011c-0.001,0.359,0.143,0.418,0.452,0.417
	c2.457-0.009,4.914-0.011,7.371,0.001c0.365,0.002,0.494-0.104,0.493-0.482c-0.012-3.625-0.011-7.251,0-10.876
	c0.001-0.358-0.118-0.457-0.467-0.455c-2.472,0.013-4.943,0.007-7.416,0.008C87.875,18.792,87.757,18.806,87.596,18.816z"/>
<path fill-rule="evenodd" clip-rule="evenodd" fill="#888888" d="M108.787,79.604c0.916,0,1.779,0,2.678,0c0,0.896,0,1.754,0,2.644
	c-3.951,0-7.886,0-11.865,0c0-0.855,0-1.712,0-2.618c0.978,0,1.96,0,2.984,0c0-8.543,0-17.041,0-25.586c-0.989,0-1.971,0-2.99,0
	c0-0.904,0-1.762,0-2.657c0.175-0.01,0.335-0.024,0.495-0.024c5.169-0.001,10.337-0.011,15.507,0.002
	c4.021,0.009,7.676,2.965,8.494,6.839c0.877,4.157-1.203,7.969-5.174,9.475c-0.152,0.058-0.305,0.114-0.514,0.191
	c0.221,0.431,0.426,0.839,0.641,1.242c1.783,3.373,3.572,6.743,5.346,10.121c0.156,0.297,0.336,0.403,0.662,0.387
	c0.521-0.025,1.045-0.007,1.6-0.007c0,0.89,0,1.747,0,2.644c-0.174,0.009-0.334,0.023-0.494,0.023
	c-2.428,0.001-4.855-0.009-7.283,0.01c-0.361,0.004-0.525-0.126-0.67-0.434c-2.021-4.304-4.059-8.602-6.08-12.906
	c-0.15-0.318-0.326-0.446-0.682-0.433c-0.764,0.025-1.527,0.011-2.293,0.006c-0.221-0.001-0.365,0.034-0.365,0.314
	C108.789,72.402,108.787,75.968,108.787,79.604z M108.811,65.755c0.123,0.017,0.225,0.043,0.328,0.044
	c2.514,0.002,5.029-0.004,7.545,0.008c0.361,0.002,0.408-0.168,0.408-0.469c-0.008-3.608-0.012-7.216,0.004-10.823
	c0.002-0.405-0.127-0.497-0.514-0.495c-2.439,0.017-4.879,0.008-7.32,0.01c-0.145,0-0.289,0.016-0.451,0.023
	C108.811,57.972,108.811,61.856,108.811,65.755z"/>
<path fill-rule="evenodd" clip-rule="evenodd" fill="#888888" d="M109.609,18.801c-0.889,0-1.738,0-2.635,0c0-0.888,0-1.745,0-2.655
	c0.146-0.01,0.305-0.027,0.463-0.027c2.742-0.002,5.484,0.007,8.227-0.011c0.414-0.003,0.525,0.119,0.523,0.527
	c-0.014,5.574-0.008,11.148-0.008,16.722c0,0.179,0,0.356,0,0.534c0.041,0.021,0.082,0.044,0.125,0.065
	c3.746-5.018,7.492-10.035,11.322-15.165c-0.924,0-1.711,0.001-2.496,0c-0.613,0-0.613,0-0.615-0.606c0-0.569,0.004-1.139,0-1.708
	c-0.002-0.229,0.061-0.362,0.33-0.361c3.041,0.008,6.082,0.008,9.125,0.012c0.041,0,0.082,0.025,0.148,0.047
	c0,0.847,0,1.694,0,2.617c-0.561,0-1.131,0.062-1.684-0.013c-1-0.137-1.613,0.241-2.209,1.067c-2.131,2.948-4.355,5.831-6.559,8.729
	c-0.207,0.274-0.219,0.449-0.012,0.729c3.666,4.944,7.318,9.899,10.986,14.841c0.119,0.159,0.381,0.277,0.584,0.293
	c0.518,0.042,1.041,0.015,1.596,0.015c0,0.889,0,1.735,0,2.628c-4.299,0-8.604,0-12.949,0c0-0.848,0-1.705,0-2.628
	c0.857,0,1.715,0,2.701,0c-2.447-3.422-4.82-6.737-7.225-10.097c-0.119,0.131-0.215,0.218-0.289,0.318
	c-0.889,1.188-1.779,2.373-2.65,3.572c-0.131,0.179-0.219,0.433-0.221,0.652c-0.02,1.692,0,3.386-0.018,5.079
	c-0.004,0.375,0.117,0.494,0.488,0.481c0.744-0.024,1.49-0.007,2.26-0.007c0,0.896,0,1.743,0,2.633c-3.975,0-7.949,0-11.957,0
	c0-0.866,0-1.724,0-2.628c0.887,0,1.748,0,2.646,0C109.609,35.894,109.609,27.379,109.609,18.801z"/>
<path fill-rule="evenodd" clip-rule="evenodd" fill="#888888" d="M137.99,18.791c0-0.9,0-1.748,0-2.646
	c0.162-0.01,0.32-0.027,0.479-0.027c6.996-0.002,13.992,0.003,20.988-0.011c0.443-0.001,0.553,0.139,0.551,0.562
	c-0.02,2.157-0.018,4.315-0.002,6.473c0.002,0.383-0.098,0.523-0.504,0.507c-0.834-0.032-1.672-0.01-2.557-0.01
	c0-1.616,0-3.196,0-4.812c-3.23,0-6.414,0-9.637,0c0,3.431,0,6.866,0,10.342c2.049,0,4.104,0,6.199,0c0-0.897,0-1.763,0-2.689
	c0.975,0,1.912-0.005,2.85,0.01c0.072,0.001,0.172,0.131,0.209,0.222c0.037,0.09,0.016,0.206,0.016,0.311
	c0,2.383-0.012,4.765,0.008,7.146c0.004,0.44-0.131,0.562-0.561,0.546c-0.818-0.032-1.639-0.009-2.514-0.009
	c0-0.922,0-1.798,0-2.706c-2.102,0-4.146,0-6.221,0c0,4.146,0,8.271,0,12.424c3.211,0,6.395,0,9.625,0c0-1.719,0-3.419,0-5.182
	c0.984,0,1.922-0.004,2.859,0.008c0.068,0.001,0.166,0.107,0.197,0.186c0.037,0.091,0.021,0.206,0.021,0.311
	c0,2.293-0.008,4.585,0.006,6.877c0.004,0.386-0.105,0.513-0.506,0.512c-7.027-0.012-14.053-0.008-21.08-0.01
	c-0.131,0-0.264-0.015-0.422-0.025c0-0.869,0-1.717,0-2.646c0.576,0,1.168,0,1.76,0c0.977,0,0.977,0,0.977-0.968c0-8,0-16,0-24
	c0-0.799,0.027-0.688-0.711-0.692C139.352,18.788,138.682,18.791,137.99,18.791z"/>
<path fill-rule="evenodd" clip-rule="evenodd" fill="#888888" d="M76.153,44.452c0,0.913,0,1.749,0,2.63c-3.99,0-7.965,0-11.981,0
	c0-0.852,0-1.711,0-2.618c0.884,0,1.761,0,2.688,0c-0.026-0.165-0.03-0.279-0.063-0.384c-0.483-1.509-0.979-3.013-1.448-4.525
	c-0.088-0.285-0.218-0.368-0.503-0.367c-3.401,0.009-6.803,0.007-10.205,0.004c-0.221,0-0.394,0.004-0.474,0.278
	c-0.453,1.564-0.923,3.123-1.385,4.686c-0.021,0.069-0.021,0.146-0.04,0.297c0.706,0,1.387-0.001,2.068,0
	c0.624,0,0.624,0,0.625,0.642c0,0.554-0.003,1.109,0,1.663c0.001,0.223-0.045,0.371-0.32,0.37c-2.577-0.009-5.154-0.011-7.731-0.016
	c-0.027,0-0.054-0.021-0.117-0.046c0-0.844,0-1.701,0-2.613c0.645,0,1.271-0.024,1.894,0.008c0.372,0.021,0.512-0.123,0.623-0.463
	c1.994-6.094,4-12.184,6.003-18.274c1.003-3.051,2.01-6.102,3-9.157c0.11-0.338,0.254-0.465,0.625-0.459
	c1.408,0.025,2.817,0.021,4.225,0.003c0.337-0.005,0.485,0.092,0.599,0.426c3.101,9.11,6.219,18.216,9.32,27.327
	c0.154,0.454,0.362,0.643,0.853,0.601C74.968,44.414,75.538,44.452,76.153,44.452z M64.362,36.462
	c-1.577-4.855-3.132-9.644-4.687-14.432c-0.039,0.005-0.079,0.009-0.118,0.014c-1.473,4.789-2.944,9.578-4.432,14.418
	C58.229,36.462,61.25,36.462,64.362,36.462z"/>
<path fill-rule="evenodd" clip-rule="evenodd" fill="#888888" d="M71.083,58.145c-1.131,0-2.248,0-3.424,0
	c0-0.649-0.043-1.291,0.01-1.925c0.069-0.819-0.301-1.381-0.917-1.828c-1.391-1.006-2.974-1.348-4.64-1.113
	c-0.918,0.131-1.844,0.408-2.691,0.788c-1.228,0.549-2.002,1.524-2.189,2.916c-0.048,0.356,0.06,0.549,0.32,0.755
	c3.779,2.995,7.548,6.005,11.331,8.996c1.687,1.334,2.853,2.986,3.147,5.149c0.603,4.428-1.327,8.569-5.991,10.382
	c-1.948,0.756-3.971,0.782-6.015,0.674c-1.745-0.092-3.465-0.309-5.039-1.119c-0.767-0.396-1.482-0.896-2.201-1.378
	c-0.128-0.086-0.225-0.315-0.227-0.479c-0.017-1.588-0.002-3.176-0.017-4.764c-0.003-0.324,0.119-0.412,0.419-0.408
	c0.854,0.012,1.708,0.014,2.562,0c0.313-0.006,0.418,0.106,0.404,0.419c-0.022,0.523,0.025,1.051-0.014,1.572
	c-0.05,0.672,0.229,1.188,0.664,1.65c0.905,0.967,2.069,1.413,3.337,1.591c1.608,0.225,3.198,0.102,4.722-0.496
	c1.761-0.69,2.826-1.948,3.084-3.854c0.05-0.366-0.039-0.602-0.345-0.835c-3.852-2.925-7.698-5.858-11.535-8.803
	c-1.74-1.335-3.109-2.967-3.639-5.143c-0.913-3.743,0.484-7.537,4.76-9.246c1.646-0.657,3.364-0.953,5.126-0.983
	c2.204-0.037,4.408,0.006,6.504,0.808c0.765,0.291,1.493,0.685,2.222,1.061c0.138,0.071,0.286,0.284,0.288,0.432
	c0.021,1.663,0.012,3.326,0.01,4.989C71.111,58.008,71.095,58.065,71.083,58.145z"/>
<path fill-rule="evenodd" clip-rule="evenodd" fill="#888888" d="M81.594,79.612c0-8.437,0-16.804,0-25.194
	c-1.963,0-3.891,0-5.868,0c-0.009,0.172-0.025,0.33-0.025,0.488c-0.002,1.184-0.01,2.367,0.005,3.549
	c0.003,0.295-0.093,0.4-0.383,0.396c-0.764-0.012-1.528-0.011-2.292-0.002c-0.292,0.004-0.393-0.122-0.393-0.404
	c0.005-2.232,0.006-4.465-0.001-6.696c0-0.289,0.102-0.42,0.395-0.388c0.074,0.008,0.15,0.001,0.225,0.001c7.73,0,15.46,0,23.19,0
	c0.613,0,0.615,0.001,0.616,0.612c0,2.112-0.008,4.225,0.007,6.337c0.003,0.403-0.115,0.561-0.535,0.544
	c-0.718-0.028-1.438-0.016-2.157-0.004c-0.292,0.005-0.386-0.102-0.382-0.396c0.014-1.168,0.005-2.337,0.005-3.505
	c0-0.162,0-0.324,0-0.521c-1.981,0-3.92,0-5.894,0c0,8.379,0,16.747,0,25.183c0.755,0,1.498,0.029,2.238-0.01
	c0.439-0.023,0.536,0.144,0.519,0.537c-0.025,0.582-0.016,1.168-0.004,1.752c0.005,0.287-0.099,0.394-0.394,0.393
	c-3.745-0.007-7.49-0.007-11.235,0c-0.296,0.001-0.397-0.109-0.392-0.395c0.011-0.629,0.016-1.259-0.002-1.888
	c-0.009-0.325,0.128-0.401,0.429-0.396C80.028,79.625,80.791,79.612,81.594,79.612z"/>
<path fill-rule="evenodd" clip-rule="evenodd" fill="#888888" d="M181.543,79.605c0.951,0,1.83,0,2.748,0c0,0.895,0,1.751,0,2.642
	c-3.98,0-7.941,0-11.945,0c0-0.855,0-1.713,0-2.62c0.885,0,1.777,0,2.719,0c0.01-0.203,0.025-0.361,0.025-0.521
	c0.002-8.06-0.002-16.119,0.012-24.179c0-0.443-0.137-0.551-0.559-0.542c-1.318,0.025-2.637,0.009-3.955,0.009
	c-0.148,0-0.295,0-0.484,0c-0.014,0.231-0.033,0.422-0.033,0.611c-0.004,1.124-0.012,2.247,0.002,3.371
	c0.006,0.344-0.105,0.485-0.463,0.476c-0.705-0.02-1.408-0.015-2.113-0.001c-0.316,0.006-0.459-0.093-0.459-0.435
	c0.012-2.216,0.016-4.435,0-6.651c-0.004-0.458,0.273-0.405,0.559-0.405c5.244,0.001,10.486,0.001,15.73,0.001
	c1.904,0,3.807,0,5.709,0c0.176,0,0.352,0,0.553,0c0.014,0.181,0.031,0.311,0.031,0.44c0.002,2.188-0.006,4.375,0.008,6.562
	c0.004,0.368-0.098,0.503-0.477,0.49c-0.717-0.025-1.438-0.017-2.156-0.004c-0.312,0.007-0.416-0.109-0.412-0.42
	c0.014-1.199-0.004-2.397,0.01-3.596c0.004-0.319-0.086-0.451-0.43-0.447c-1.408,0.017-2.816,0.014-4.225,0.002
	c-0.289-0.002-0.422,0.09-0.396,0.386c0.012,0.135,0.002,0.27,0.002,0.404c0,7.91,0,15.82,0,23.73
	C181.543,79.117,181.543,79.324,181.543,79.605z"/>
<path fill-rule="evenodd" clip-rule="evenodd" fill="#888888" d="M163.605,76.922c0.787,0.783,1.557,1.549,2.363,2.354
	c-0.221,0.19-0.477,0.411-0.738,0.628c-2.859,2.392-6.176,3.387-9.852,3.016c-6.516-0.658-10.756-4.348-13.029-10.314
	c-2.67-7.007-0.197-15.034,5.789-19.283c2.936-2.084,6.215-2.886,9.805-2.607c3.047,0.236,5.59,1.519,7.85,3.484
	c0.068,0.058,0.15,0.1,0.207,0.14c-0.824,0.804-1.602,1.562-2.408,2.35c-0.01-0.009-0.105-0.076-0.184-0.159
	c-1.637-1.742-3.646-2.627-6.031-2.796c-2.562-0.181-4.822,0.473-6.795,2.123c-0.24,0.199-0.35,0.399-0.348,0.718
	c0.008,6.832,0.008,13.663,0.002,20.495c-0.002,0.294,0.09,0.486,0.314,0.688c3.504,3.168,9.82,2.862,12.893-0.686
	C163.5,77.006,163.57,76.953,163.605,76.922z"/>
<path fill-rule="evenodd" clip-rule="evenodd" fill="#888888" d="M131.471,79.629c0-8.562,0-17.05,0-25.58c-0.879,0-1.74,0-2.643,0
	c0-0.898,0-1.756,0-2.661c0.156-0.009,0.314-0.025,0.473-0.025c3.627-0.002,7.252,0.006,10.879-0.012
	c0.445-0.002,0.617,0.105,0.586,0.571c-0.037,0.582-0.016,1.169-0.008,1.753c0.006,0.27-0.098,0.364-0.371,0.358
	c-0.762-0.015-1.521-0.006-2.322-0.006c0,8.53,0,17.016,0,25.585c0.609,0,1.215,0,1.822,0c0.871,0,0.871,0,0.871,0.887
	c0,0.449-0.016,0.9,0.004,1.349c0.014,0.332-0.105,0.442-0.441,0.438c-1.213-0.017-2.428-0.006-3.641-0.006
	c-2.428,0-4.854,0-7.281,0c-0.178,0-0.355,0-0.572,0c0-0.894,0-1.752,0-2.651C129.691,79.629,130.553,79.629,131.471,79.629z"/>
<path fill-rule="evenodd" clip-rule="evenodd" fill="#888888" d="M40.989,79.612c0-8.535,0-17.021,0-25.585
	c-0.677,0-1.344,0.008-2.011-0.002c-0.665-0.008-0.683,0.165-0.684-0.667c0-0.539,0.006-1.079-0.001-1.618
	c-0.003-0.253,0.07-0.383,0.356-0.382c3.805,0.008,7.611,0.008,11.416,0.01c0.043,0,0.086,0.02,0.163,0.038c0,0.854,0,1.711,0,2.612
	c-0.874,0-1.736,0-2.634,0c0,8.54,0,17.039,0,25.579c0.872,0,1.734,0,2.632,0c0,0.898,0,1.758,0,2.657
	c-0.166,0.009-0.326,0.024-0.485,0.024c-3.625,0.001-7.251-0.008-10.877,0.012c-0.461,0.002-0.607-0.13-0.578-0.58
	c0.034-0.522,0.027-1.05,0.001-1.572c-0.02-0.395,0.083-0.561,0.52-0.536C39.521,79.642,40.238,79.612,40.989,79.612z"/>
<path fill-rule="evenodd" clip-rule="evenodd" fill="#888888" d="M58.371,9.516c0-0.529,0-1.032,0-1.573c-0.473,0-0.917,0-1.393,0
	c0-0.631,0-1.224,0-1.853c1.652,0,3.319,0,5.052,0c0,0.688,0.004,1.387-0.001,2.085c-0.004,0.508-0.043,1.018-0.027,1.524
	c0.01,0.31-0.099,0.496-0.357,0.653c-1.049,0.636-2.192,0.932-3.407,1.001c-1.423,0.082-2.811-0.054-4.123-0.656
	c-2.677-1.228-3.407-4.396-1.476-6.479c0.868-0.934,2.003-1.39,3.237-1.615c1.67-0.305,3.309-0.209,4.886,0.456
	c0.422,0.178,0.813,0.431,1.272,0.679c-0.358,0.554-0.679,1.049-1.012,1.564c-0.936-0.744-1.985-1.099-3.146-1.062
	c-1.98,0.062-3.189,1.866-2.488,3.684C55.824,9.05,57.023,9.697,58.371,9.516z"/>
<path fill-rule="evenodd" clip-rule="evenodd" fill="#888888" d="M132.994,3.779c-0.346,0.529-0.662,1.015-0.992,1.522
	c-0.949-0.749-2.006-1.106-3.18-1.06c-1.92,0.078-3.107,1.811-2.486,3.594c0.408,1.172,1.586,1.839,3.027,1.691
	c0-0.509,0-1.021,0-1.581c-0.475,0-0.934,0-1.428,0c0-0.634,0-1.225,0-1.854c1.656,0,3.322,0,5.037,0
	c0.008,0.128,0.023,0.271,0.023,0.415c-0.002,1.078-0.018,2.157-0.004,3.235c0.004,0.278-0.098,0.441-0.32,0.58
	c-1.055,0.657-2.213,0.959-3.443,1.03c-1.424,0.083-2.812-0.046-4.125-0.654c-2.166-1.003-3.104-3.197-2.26-5.282
	c0.383-0.944,1.055-1.651,1.953-2.087c2.562-1.243,5.131-1.23,7.67,0.098C132.637,3.516,132.789,3.641,132.994,3.779z"/>
<path fill-rule="evenodd" clip-rule="evenodd" fill="#888888" d="M79.886,11.05c0-2.777,0-5.516,0-8.323
	c0.627,0,1.258,0.068,1.869-0.015c1.021-0.14,1.726,0.257,2.411,0.986c1.188,1.265,2.47,2.44,3.715,3.652
	c0.079,0.077,0.177,0.136,0.332,0.252c0-1.658,0-3.236,0-4.846c0.632,0,1.222,0,1.841,0c0,2.756,0,5.504,0,8.321
	c-0.615,0-1.229-0.06-1.828,0.013c-1.173,0.142-2.057-0.212-2.856-1.123c-0.974-1.11-2.106-2.082-3.164-3.121
	c-0.116-0.113-0.192-0.268-0.287-0.403c-0.051,0.029-0.101,0.058-0.151,0.087c0,1.497,0,2.995,0,4.52
	C81.114,11.05,80.523,11.05,79.886,11.05z"/>
<path fill-rule="evenodd" clip-rule="evenodd" fill="#888888" d="M122.994,11.138c-1.254,0-2.461,0.01-3.668-0.016
	c-0.115-0.003-0.268-0.203-0.328-0.345c-0.35-0.804-0.342-0.808-1.199-0.808c-0.928,0-1.857,0.011-2.785-0.006
	c-0.281-0.005-0.426,0.082-0.529,0.351c-0.322,0.829-0.336,0.824-1.223,0.824c-0.324,0-0.65,0-1.045,0
	c0.32-0.825,0.617-1.585,0.912-2.346c0.73-1.881,1.467-3.759,2.184-5.645c0.121-0.314,0.281-0.421,0.621-0.414
	c1.139,0.024,2.277,0,3.414,0.021c0.148,0.003,0.375,0.13,0.428,0.256c1.064,2.632,2.107,5.272,3.156,7.911
	C122.951,10.974,122.963,11.028,122.994,11.138z M115.385,8.082c0.867,0,1.664,0,2.527,0c-0.418-1.038-0.818-2.04-1.221-3.041
	c-0.037,0.007-0.074,0.015-0.111,0.021C116.189,6.054,115.797,7.044,115.385,8.082z"/>
<path fill-rule="evenodd" clip-rule="evenodd" fill="#888888" d="M68.35,11.078c0.668-1.718,1.306-3.36,1.946-5.001
	c0.396-1.017,0.801-2.03,1.186-3.051c0.087-0.23,0.198-0.32,0.452-0.317c1.183,0.014,2.366-0.003,3.549,0.018
	c0.148,0.003,0.375,0.132,0.426,0.259c1.063,2.632,2.107,5.273,3.153,7.912c0.016,0.04,0.019,0.084,0.039,0.178
	c-1.241,0-2.461,0.01-3.682-0.017c-0.107-0.002-0.248-0.219-0.309-0.363c-0.335-0.783-0.328-0.786-1.172-0.786
	c-0.914,0-1.828,0.013-2.74-0.008c-0.317-0.007-0.481,0.088-0.595,0.395c-0.292,0.787-0.307,0.782-1.153,0.782
	C69.106,11.078,68.763,11.078,68.35,11.078z M72.826,4.998c-0.037,0.004-0.074,0.009-0.111,0.013
	c-0.392,0.99-0.785,1.98-1.191,3.006c0.86,0,1.655,0,2.505,0C73.616,6.979,73.221,5.989,72.826,4.998z"/>
<path fill-rule="evenodd" clip-rule="evenodd" fill="#888888" d="M111.75,4.637c-1.314,0-2.568,0-3.842,0c0,0.435,0,0.816,0,1.254
	c0.963,0,1.902,0.022,2.84-0.011c0.422-0.015,0.553,0.117,0.521,0.526c-0.031,0.428-0.006,0.86-0.006,1.339
	c-1.139,0-2.225,0-3.344,0c0,0.517,0,0.983,0,1.507c1.27,0,2.52,0,3.801,0c0,0.629,0,1.204,0,1.815c-2.48,0-4.941,0-7.436,0
	c0-2.745,0-5.477,0-8.253c0.15-0.012,0.293-0.031,0.437-0.032c2.187-0.002,4.372,0.007,6.56-0.009
	c0.371-0.003,0.504,0.102,0.477,0.479C111.727,3.682,111.75,4.115,111.75,4.637z"/>
<path fill-rule="evenodd" clip-rule="evenodd" fill="#888888" d="M142.473,11.061c0-2.745,0-5.478,0-8.245c2.459,0,4.906,0,7.391,0
	c0,0.585,0,1.171,0,1.814c-1.268,0-2.518,0-3.797,0c0,0.434,0,0.813,0,1.243c1.111,0,2.209,0,3.346,0c0,0.638,0,1.226,0,1.863
	c-1.098,0-2.197,0-3.338,0c0,0.515,0,0.981,0,1.503c1.258,0,2.508,0,3.791,0c0,0.629,0,1.204,0,1.821
	C147.41,11.061,144.953,11.061,142.473,11.061z"/>
<path fill-rule="evenodd" clip-rule="evenodd" fill="#888888" d="M100.18,2.777c0,0.611,0,1.189,0,1.812c-1.005,0-1.988,0-3.036,0
	c0,2.173,0,4.304,0,6.46c-1.226,0-2.386,0-3.589,0c0-2.128,0-4.248,0-6.422c-0.916,0-1.791,0-2.708,0c0-0.64,0-1.228,0-1.851
	C93.941,2.777,97.033,2.777,100.18,2.777z"/>
<path fill-rule="evenodd" clip-rule="evenodd" fill="#888888" d="M134.477,2.812c1.186,0,2.346,0,3.555,0c0,0.19,0,0.351,0,0.512
	c0,1.827,0.01,3.654-0.008,5.481c-0.002,0.356,0.105,0.464,0.457,0.457c0.957-0.021,1.916,0.001,2.875-0.012
	c0.287-0.004,0.404,0.082,0.391,0.382c-0.02,0.461-0.004,0.925-0.004,1.428c-2.438,0-4.836,0-7.266,0
	C134.477,8.327,134.477,5.594,134.477,2.812z"/>
<path fill-rule="evenodd" clip-rule="evenodd" fill="#888888" d="M67.325,11.062c-1.181,0-2.331,0-3.52,0c0-2.765,0-5.521,0-8.308
	c1.159,0,2.319,0,3.52,0C67.325,5.503,67.325,8.26,67.325,11.062z"/>
<path fill-rule="evenodd" clip-rule="evenodd" fill="#888888" d="M189.801,80.851c-0.008,0.932-0.756,1.675-1.688,1.678
	c-0.934,0.002-1.695-0.772-1.693-1.722c0.004-0.957,0.758-1.698,1.715-1.684C189.102,79.137,189.807,79.869,189.801,80.851z
	 M186.717,80.802c-0.01,0.772,0.611,1.408,1.383,1.416c0.77,0.006,1.402-0.616,1.41-1.389c0.008-0.77-0.621-1.419-1.381-1.424
	C187.365,79.4,186.729,80.031,186.717,80.802z"/>
<path fill-rule="evenodd" clip-rule="evenodd" fill="#FFFFFF" d="M18.292,54.054c3.13,0,6.209,0,9.319,0c0,8.511,0,16.995,0,25.532
	c-0.16,0.009-0.318,0.025-0.476,0.025c-2.786,0.002-5.572-0.009-8.358,0.012c-0.435,0.004-0.516-0.146-0.515-0.539
	c0.009-8.178,0.007-16.356,0.008-24.535C18.27,54.401,18.283,54.254,18.292,54.054z"/>
<path fill-rule="evenodd" clip-rule="evenodd" fill="#FFFFFF" d="M87.596,18.816c0.162-0.011,0.279-0.024,0.396-0.024
	c2.472-0.001,4.944,0.005,7.416-0.008c0.349-0.002,0.468,0.097,0.467,0.455c-0.011,3.625-0.011,7.251,0,10.876
	c0.001,0.378-0.127,0.484-0.493,0.482c-2.457-0.012-4.914-0.01-7.371-0.001c-0.309,0.001-0.453-0.058-0.452-0.417
	c0.012-3.67,0.008-7.34,0.009-11.011C87.569,19.066,87.584,18.964,87.596,18.816z"/>
<path fill-rule="evenodd" clip-rule="evenodd" fill="#FFFFFF" d="M108.811,65.755c0-3.898,0-7.783,0-11.702
	c0.162-0.008,0.307-0.023,0.451-0.023c2.441-0.002,4.881,0.007,7.32-0.01c0.387-0.002,0.516,0.09,0.514,0.495
	c-0.016,3.607-0.012,7.215-0.004,10.823c0,0.301-0.047,0.471-0.408,0.469c-2.516-0.012-5.031-0.006-7.545-0.008
	C109.035,65.798,108.934,65.771,108.811,65.755z"/>
<path fill-rule="evenodd" clip-rule="evenodd" fill="#FFFFFF" d="M64.362,36.462c-3.112,0-6.133,0-9.237,0
	c1.488-4.84,2.959-9.629,4.432-14.418c0.039-0.005,0.079-0.009,0.118-0.014C61.229,26.818,62.785,31.606,64.362,36.462z"/>
<path fill-rule="evenodd" clip-rule="evenodd" fill="#FFFFFF" d="M115.385,8.082c0.412-1.038,0.805-2.028,1.195-3.02
	c0.037-0.007,0.074-0.015,0.111-0.021c0.402,1.001,0.803,2.003,1.221,3.041C117.049,8.082,116.252,8.082,115.385,8.082z"/>
<path fill-rule="evenodd" clip-rule="evenodd" fill="#FFFFFF" d="M72.826,4.998c0.395,0.991,0.79,1.981,1.202,3.019
	c-0.85,0-1.645,0-2.505,0c0.407-1.025,0.799-2.016,1.191-3.006C72.752,5.007,72.79,5.002,72.826,4.998z"/>
<path fill-rule="evenodd" clip-rule="evenodd" fill="#888888" d="M187.918,81.724c-0.162,0-0.338,0-0.482,0c0-0.62,0-1.226,0-1.854
	c0.297,0,0.654-0.035,1.002,0.01c0.328,0.043,0.551,0.44,0.344,0.678c-0.422,0.481-0.037,0.76,0.168,1.101
	c-0.414,0.13-0.432,0.124-0.594-0.175c-0.105-0.196-0.213-0.394-0.32-0.59c-0.051,0.015-0.102,0.031-0.152,0.046
	C187.895,81.187,187.906,81.436,187.918,81.724z M187.842,80.038c0.051,0.253,0.076,0.476,0.15,0.682
	c0.014,0.037,0.309,0.032,0.316,0.002c0.061-0.213,0.082-0.438,0.119-0.684C188.211,80.038,188.07,80.038,187.842,80.038z"/>
</svg>
