<?xml version="1.0" encoding="utf-8"?>
<!-- Generator: Adobe Illustrator 16.0.4, SVG Export Plug-In . SVG Version: 6.00 Build 0)  -->
<!DOCTYPE svg PUBLIC "-//W3C//DTD SVG 1.1//EN" "http://www.w3.org/Graphics/SVG/1.1/DTD/svg11.dtd">
<svg version="1.1" id="Layer_1" xmlns="http://www.w3.org/2000/svg" xmlns:xlink="http://www.w3.org/1999/xlink" x="0px" y="0px"
	 width="200px" height="85px" viewBox="0 0 200 85" enable-background="new 0 0 200 85" xml:space="preserve">
<g>
	<path fill-rule="evenodd" clip-rule="evenodd" fill="#888888" d="M41.308,16.175c0.289-0.134,0.576-0.381,0.866-0.384
		c2.741-0.03,5.482-0.041,8.223,0.015c0.267,0.005,0.756,0.515,0.732,0.75c-0.033,0.332-0.389,0.79-0.71,0.907
		c-1.916,0.695-1.945,0.689-1.273,2.596c1.512,4.289,3.033,8.575,4.556,12.86c0.117,0.33,0.28,0.644,0.542,1.241
		c0.851-2.391,1.476-4.585,2.407-6.642c0.932-2.06,1.015-3.974,0.003-5.985c-0.322-0.641-0.522-1.354-0.7-2.055
		c-0.24-0.946-0.76-1.516-1.713-1.829c-0.383-0.125-0.625-0.678-0.932-1.036c0.419-0.292,0.832-0.821,1.261-0.836
		c2.336-0.083,4.678-0.081,7.015,0.002c0.415,0.015,0.81,0.551,1.215,0.847c-0.345,0.32-0.646,0.83-1.043,0.922
		c-0.92,0.214-1.604,0.542-1.275,1.598c1.494,4.795,3.033,9.577,4.657,14.683c0.238-0.639,0.377-0.959,0.479-1.292
		c1.282-4.194,2.566-8.388,3.833-12.587c0.495-1.639,0.35-1.809-1.211-2.357c-0.391-0.138-0.648-0.656-0.967-0.999
		c0.382-0.283,0.761-0.806,1.147-0.811c4.194-0.058,8.388-0.06,12.581,0.007c0.395,0.006,1.006,0.523,1.119,0.917
		c0.197,0.687-0.39,0.993-1.029,0.993c-0.931,0-1.307,0.488-1.308,1.356c-0.002,1.972-0.001,3.945-0.001,6.032
		c2.652,0,5.247,0,8.018,0c0-2.14,0.042-4.34-0.051-6.535c-0.012-0.295-0.674-0.694-1.099-0.807c-0.62-0.165-1.25-0.228-1.226-1.036
		c0.027-0.893,0.74-0.959,1.399-0.964c2.338-0.018,4.678-0.019,7.017,0.001c0.65,0.006,1.366,0.044,1.395,0.959
		c0.025,0.823-0.57,0.988-1.222,1.002c-0.904,0.021-1.176,0.569-1.176,1.35c-0.003,5.969-0.002,11.937,0,17.906
		c0,0.875,0.375,1.278,1.316,1.348c0.386,0.029,0.729,0.631,1.091,0.974c-0.351,0.299-0.693,0.849-1.052,0.859
		c-2.576,0.073-5.155,0.072-7.73-0.008c-0.35-0.01-0.682-0.589-1.021-0.904c0.349-0.323,0.69-0.91,1.049-0.921
		c1.109-0.035,1.359-0.582,1.349-1.544c-0.03-2.581-0.041-5.163,0.002-7.743c0.015-0.918-0.347-1.391-1.234-1.404
		c-1.854-0.028-3.709-0.028-5.563-0.014c-0.83,0.006-1.252,0.464-1.253,1.297c-0.002,2.702-0.011,5.404-0.001,8.105
		c0.002,0.804,0.356,1.208,1.241,1.299c0.403,0.041,0.751,0.616,1.124,0.949c-0.341,0.309-0.676,0.876-1.026,0.886
		c-2.576,0.071-5.155,0.066-7.73-0.018c-0.338-0.011-0.658-0.608-0.985-0.934c0.36-0.31,0.718-0.879,1.082-0.883
		c1.171-0.013,1.294-0.669,1.292-1.579c-0.012-5.767,0-11.533-0.015-17.301c-0.001-0.641,0.232-1.507-0.758-1.648
		c-0.896-0.126-1.28,0.555-1.507,1.284c-1.22,3.918-2.428,7.841-3.636,11.763c-0.816,2.654-1.586,5.323-2.468,7.955
		c-0.227,0.678-0.667,1.433-1.235,1.818c-0.978,0.663-2.166-0.015-2.65-1.423c-1.021-2.968-1.992-5.954-2.985-8.932
		c-0.124-0.371-0.262-0.737-0.496-1.388c-0.26,0.645-0.432,1.03-0.573,1.427c-1.054,2.957-2.112,5.912-3.145,8.876
		c-0.315,0.903-0.766,1.616-1.829,1.639c-1.123,0.025-1.631-0.724-1.973-1.648c-2.245-6.078-4.536-12.141-6.705-18.246
		c-0.65-1.829-1.354-3.417-3.503-3.764C41.308,16.82,41.308,16.498,41.308,16.175z"/>
	<path fill-rule="evenodd" clip-rule="evenodd" fill="#888888" d="M101.815,2.379c3.061,0.875,5.26,2.959,7.462,5.117
		c0.674,0.662,1.857,0.793,2.794,1.203c0.597,0.262,1.564,0.5,1.654,0.906c0.149,0.672-0.069,1.638-0.506,2.181
		c-0.637,0.791-1.569,1.367-2.438,1.943c-1.442,0.958-2.928,1.85-4.403,2.76c-4.678,2.887-6.131,7.307-5.651,12.465
		c0.183,1.959,0.756,3.961,1.555,5.766c1.076,2.435,3.154,3.742,5.903,3.623c2.766-0.12,4.439-1.794,5.336-4.232
		c1.503-4.083,1.327-8.228,0.041-12.326c-0.523-1.669-1.784-2.83-3.121-3.917c-0.392-0.32-0.53-0.951-0.785-1.439
		c0.501-0.154,1.009-0.454,1.504-0.437c2.002,0.069,3.641,1.004,4.952,2.458c3.002,3.332,3.914,7.313,3.438,11.675
		c-0.417,3.835-1.922,7.066-5.377,9.105c-8.425,4.973-18.2-0.381-18.622-10.125c-0.253-5.879,1.95-10.329,7.153-13.211
		c0.881-0.487,1.721-1.041,2.574-1.571c0.055-0.034,0.065-0.138,0.098-0.21c-0.031-0.072-0.049-0.191-0.096-0.205
		c-1.609-0.447-3.219-0.896-4.835-1.319c-1.244-0.326-2.265,0.116-3.236,0.896c-0.383,0.308-0.951,0.386-1.435,0.568
		c0.008-0.599-0.177-1.288,0.055-1.781c1.116-2.371,4.355-3.865,6.962-3.145c1.5,0.415,2.902,1.17,4.376,1.699
		c0.691,0.248,1.442,0.325,2.167,0.479c0.042-0.128,0.083-0.255,0.125-0.382c-0.094-0.162-0.146-0.385-0.286-0.476
		c-1.647-1.08-3.276-2.195-4.974-3.191c-2.307-1.353-4.687-1.477-6.936,0.105c-0.728,0.511-1.208,1.365-1.851,2.012
		c-0.377,0.381-0.852,0.666-1.283,0.994c-0.155-0.542-0.548-1.147-0.427-1.618c0.764-2.966,2.576-5.044,5.521-6.057
		c0.299-0.103,0.598-0.207,0.896-0.311C100.686,2.379,101.251,2.379,101.815,2.379z"/>
	<path fill-rule="evenodd" clip-rule="evenodd" fill="#888888" d="M158.692,36.263c-0.38,0.838-0.855,1.647-1.117,2.521
		c-0.358,1.191-1.139,1.524-2.266,1.508c-1.935-0.027-3.87-0.006-5.807-0.006c-2.46,0-4.921,0.005-7.38-0.004
		c-0.481-0.002-1.007,0.043-1.433-0.127c-0.364-0.146-0.866-0.583-0.854-0.872c0.016-0.335,0.528-0.929,0.816-0.924
		c1.312,0.022,1.411-0.756,1.409-1.744c-0.012-5.728-0.014-11.454,0-17.181c0.002-0.993-0.151-1.727-1.409-1.789
		c-0.336-0.016-0.643-0.643-0.964-0.989c0.332-0.293,0.62-0.708,1.009-0.847c0.431-0.155,0.954-0.071,1.438-0.071
		c4.194-0.003,8.39,0.032,12.583-0.025c1.141-0.015,1.836,0.314,2.149,1.447c0.191,0.695,0.577,1.339,0.738,2.039
		c0.083,0.359-0.018,0.982-0.257,1.134c-0.263,0.167-1.013,0.075-1.156-0.153c-1.957-3.087-5.017-1.878-7.707-2.011
		c-0.977-0.049-1.41,0.67-1.418,1.602c-0.015,1.73-0.004,3.461-0.004,5.423c1.557,0,3.07-0.063,4.575,0.036
		c0.497,0.033,1.208,0.369,1.4,0.768c0.395,0.823-0.139,1.49-1.096,1.532c-1.207,0.054-2.419,0.043-3.628,0.045
		c-0.858,0.002-1.255,0.443-1.255,1.272c0.003,2.459-0.004,4.92,0.025,7.379c0.011,0.938,0.482,1.531,1.484,1.535
		c1.852,0.009,3.706,0.037,5.556-0.02c1.218-0.037,1.926-0.926,2.562-1.825c0.632-0.89,1.268-1.09,2.002-0.137
		C158.692,35.94,158.692,36.103,158.692,36.263z"/>
	<path fill-rule="evenodd" clip-rule="evenodd" fill="#888888" d="M100.643,71.36c16.859-0.001,33.718-0.007,50.578,0.005
		c4.193,0.003,6.929,3.824,5.446,7.618c-0.773,1.983-2.241,3.218-4.398,3.51c-0.676,0.091-1.364,0.124-2.05,0.124
		c-33.071,0.006-66.143,0.008-99.216-0.008c-0.998,0-2.039-0.047-2.985-0.326c-2.705-0.796-4.205-3.425-3.768-6.367
		c0.389-2.619,2.709-4.548,5.574-4.55C66.764,71.355,83.704,71.36,100.643,71.36z M56.062,76.046
		c0.096-0.041,0.193-0.082,0.289-0.123c0.491,0.527,1.011,1.028,1.464,1.585c0.56,0.688,1.076,0.752,1.671,0.06
		c0.512-0.596,1.053-1.167,1.582-1.748c0.104,0.076,0.209,0.152,0.313,0.229c-0.237,1.208,0.684,2.648-0.938,3.525
		c0.606,0.486,3.312,0.752,3.695,0.37c0.124-0.123,0.102-0.478,0.033-0.688c-0.168-0.514-0.5-0.989-0.586-1.509
		c-0.105-0.628-0.041-1.287-0.02-1.931c0.019-0.568-0.201-1.251,0.622-1.49c-0.114-0.272-0.205-0.766-0.344-0.78
		c-1.081-0.108-2.179-0.207-2.945,0.866c-0.439,0.614-0.964,1.168-1.513,1.824c-0.57-0.604-0.953-0.911-1.211-1.301
		c-0.8-1.205-1.891-1.684-3.3-1.431c-0.368,0.065-0.721,0.216-1.081,0.327c0.212,0.243,0.467,0.462,0.622,0.738
		c0.126,0.224,0.175,0.513,0.185,0.776c0.024,0.684,0.039,1.371,0,2.054c-0.039,0.697,0.337,1.561-0.69,1.931
		c-0.055,0.019-0.065,0.469,0.043,0.584c0.424,0.449,2.58,0.142,3.026-0.427C55.384,78.645,56.373,77.202,56.062,76.046z
		 M90.258,74.044c0.25,0.948,0.481,1.591,0.576,2.254c0.084,0.592,0.082,1.214-0.006,1.805c-0.055,0.365-0.337,0.697-0.524,1.04
		c-0.104,0.193-0.354,0.425-0.306,0.551c0.064,0.172,0.348,0.354,0.545,0.364c0.843,0.044,1.69,0.05,2.534,0.017
		c0.249-0.011,0.49-0.201,0.734-0.31c-0.158-0.229-0.316-0.459-0.474-0.688c-0.127-0.183-0.361-0.366-0.363-0.553
		c-0.013-1.165-0.05-2.339,0.096-3.489c0.037-0.292,0.744-0.743,1.078-0.692c0.457,0.069,1.021,0.471,1.209,0.881
		c0.107,0.235-0.372,0.853-0.717,1.144c-0.291,0.244-0.769,0.267-1.409,0.462c0.789,0.914,1.47,1.591,2.017,2.361
		c0.848,1.195,2.039,0.909,3.18,0.845c0.167-0.009,0.439-0.289,0.444-0.45c0.005-0.162-0.244-0.357-0.417-0.493
		c-0.802-0.628-1.616-1.241-2.509-1.923c1.645-0.871,2.065-1.956,1.291-2.858C96.16,73.055,91.222,73.035,90.258,74.044z
		 M77.645,79.595c0.009,0.139,0.018,0.276,0.028,0.414c0.65,0.027,1.304,0.104,1.952,0.071c0.617-0.031,1.229-0.177,1.843-0.271
		c-0.267-0.441-0.542-0.877-0.797-1.324c-0.2-0.35-0.38-0.71-0.561-1.07c-0.524-1.044-1.014-2.107-1.575-3.131
		c-0.664-1.21-1.993-1.23-2.648-0.035c-1.007,1.84-1.963,3.706-2.944,5.567c0.932,0.523,2.563,0.428,3.221-0.312
		c-0.3-0.262-0.6-0.522-1.086-0.948c1.252,0,2.234,0,3.436,0C78.12,79.026,77.882,79.311,77.645,79.595z M125.247,79.766
		c0.622,0.146,1.006,0.309,1.393,0.315c1.567,0.029,3.137,0.021,4.706,0.011c1.3-0.009,1.731-0.555,1.575-2.039
		c-0.228,0.064-0.542,0.057-0.645,0.199c-0.707,0.995-1.736,0.814-2.734,0.843c-0.759,0.022-1.075-0.221-1.077-1.03
		c-0.002-0.767,0.3-1.007,1-0.956c0.237,0.018,0.511,0.047,0.714-0.047c0.255-0.12,0.454-0.361,0.676-0.549
		c-0.227-0.186-0.432-0.482-0.685-0.531c-0.534-0.104-1.092-0.076-1.582-0.1c-0.304-1.095,0.094-1.542,1.056-1.375
		c0.759,0.133,1.493,0.401,2.245,0.592c0.266,0.067,0.547,0.082,0.822,0.121c0.071-0.104,0.144-0.21,0.217-0.313
		c-0.359-0.464-0.693-1.298-1.084-1.327c-1.922-0.14-3.856-0.08-5.786-0.03c-0.13,0.004-0.425,0.646-0.338,0.756
		C126.778,75.656,126.704,78.472,125.247,79.766z M149.542,75.429c-0.173-1.394-0.6-2.129-1.938-1.944
		c-0.594,0.081-1.207,0.013-1.812,0.014c-1.209,0-2.429-0.087-3.62,0.059c-0.376,0.045-0.709,0.694-0.995,1.112
		c-0.091,0.132,0.033,0.411,0.058,0.623c0.366-0.148,0.727-0.324,1.105-0.439c0.539-0.166,1.094-0.285,1.843-0.477
		c0,1.539,0.025,2.817-0.024,4.093c-0.009,0.222-0.334,0.432-0.517,0.645c-0.144,0.167-0.292,0.332-0.438,0.497
		c0.205,0.155,0.4,0.43,0.612,0.444c0.885,0.055,1.774,0.068,2.658,0.016c0.3-0.018,0.588-0.276,0.88-0.425
		c-0.21-0.192-0.43-0.375-0.629-0.58c-0.126-0.13-0.313-0.289-0.314-0.439c-0.023-1.349-0.015-2.698-0.015-4.417
		C147.601,74.676,148.502,75.025,149.542,75.429z M110.776,76.903c0.918,0.802,1.779,1.374,2.401,2.139
		c0.834,1.021,1.86,1.161,3.017,1.035c0.247-0.028,0.479-0.218,0.716-0.332c-0.173-0.225-0.317-0.484-0.525-0.672
		c-1-0.892-2.015-1.764-3.252-2.838c1.403-0.874,2.542-1.583,3.681-2.292c-0.016-0.133-0.03-0.267-0.047-0.399
		c-1.196,0-2.395-0.017-3.591,0.03c-0.102,0.004-0.333,0.539-0.257,0.644c0.45,0.608-0.025,0.855-0.377,1.163
		C112.064,75.799,111.58,76.21,110.776,76.903z M111.688,79.496c-1.31-0.368-1.108-1.316-1.108-2.177
		c-0.002-0.644-0.018-1.289,0.012-1.931c0.011-0.264,0.079-0.55,0.208-0.777c0.169-0.297,0.423-0.547,0.64-0.816
		c-0.408-0.098-0.812-0.23-1.229-0.287c-0.354-0.048-0.727-0.045-1.083-0.002c-0.494,0.061-0.982,0.183-1.472,0.277
		c0.233,0.309,0.513,0.594,0.688,0.933c0.121,0.234,0.131,0.541,0.141,0.817c0.019,0.603,0.029,1.207,0.001,1.81
		c-0.036,0.714,0.289,1.573-0.721,1.954c-0.053,0.021-0.043,0.535,0.088,0.651C108.27,80.319,110.934,80.062,111.688,79.496z"/>
	<path fill-rule="evenodd" clip-rule="evenodd" fill="#888888" d="M88.165,52.208c0.162-0.388,0.269-0.599,0.342-0.821
		c1.777-5.453,5.835-8.318,11.562-8.156c6.948,0.195,11.439,4.73,11.663,11.722c0.092,2.867-0.252,5.629-1.676,8.173
		c-1.708,3.05-4.359,4.75-7.748,5.418c-5.06,0.999-10.021-0.911-12.454-4.931c-0.7-1.155-1.156-2.457-1.759-3.771
		c-0.18,0.498-0.35,0.969-0.52,1.438c-1.591,4.412-5.259,7.151-9.919,7.407c-7.913,0.437-13.07-4.382-13.042-12.344
		c0.006-1.865,0.25-3.806,0.81-5.576c1.561-4.937,5.871-7.685,11.395-7.538C82.614,43.382,85.912,45.947,88.165,52.208z
		 M83.502,56.173c-0.113-0.029-0.227-0.06-0.339-0.09c0.006-2.562-0.528-5.19-1.432-6.905c-1.134-2.154-2.828-3.517-5.353-3.487
		c-2.483,0.028-4.215,1.375-5.145,3.569c-1.874,4.418-1.919,8.93-0.072,13.367c0.94,2.258,2.757,3.578,5.257,3.616
		c2.509,0.036,4.405-1.242,5.296-3.509C82.54,60.637,82.923,58.366,83.502,56.173z M106.759,56.191
		c-0.1-0.026-0.198-0.052-0.299-0.078c-0.043-2.389-0.308-4.736-1.417-6.905c-1.11-2.167-2.805-3.537-5.329-3.518
		c-2.535,0.02-4.271,1.403-5.214,3.649c-1.807,4.303-1.814,8.706-0.147,13.043c0.928,2.413,2.795,3.859,5.458,3.857
		c2.676-0.001,4.526-1.495,5.408-3.909C105.939,60.359,106.26,58.243,106.759,56.191z"/>
	<path fill-rule="evenodd" clip-rule="evenodd" fill="#888888" d="M122.764,43.095c1.596,0.191,3.226,0.232,4.778,0.603
		c4.755,1.137,7.208,4.443,8.066,9.065c0.571,3.064,0.385,6.11-0.748,9.039c-1.643,4.25-4.944,6.354-9.321,6.803
		c-3.507,0.357-7.005,0.147-10.414-0.889c-0.268-0.082-0.589-0.114-0.786-0.285c-0.479-0.411-0.903-0.891-1.349-1.344
		c0.455-0.317,0.949-0.592,1.349-0.968c0.334-0.313,0.79-0.744,0.794-1.126c0.049-5.362,0.029-10.725,0.037-16.087
		c0-0.723-0.324-1.067-1.025-1.259c-0.426-0.117-0.773-0.52-1.156-0.793c0.327-0.414,0.584-1.088,0.992-1.199
		c1.934-0.525,3.897-0.959,5.873-1.295c0.94-0.16,1.93-0.027,2.895-0.027C122.754,43.253,122.76,43.174,122.764,43.095z
		 M120.183,55.928c0,2.659,0.021,5.32-0.011,7.981c-0.016,1.268,0.584,1.92,1.787,2.178c3.049,0.657,5.796-0.652,7.249-3.481
		c1.04-2.027,1.315-4.226,1.334-6.448c0.021-2.592-0.252-5.154-1.595-7.468c-1.42-2.445-3.847-3.58-6.529-3.065
		c-1.811,0.347-2.218,0.813-2.229,2.685C120.17,50.849,120.183,53.389,120.183,55.928z"/>
	<path fill-rule="evenodd" clip-rule="evenodd" fill="#888888" d="M144.965,68.797c-0.916-0.121-1.845-0.188-2.746-0.377
		c-0.949-0.2-1.828-0.479-2.769,0.164c-0.219,0.148-1.169-0.244-1.276-0.559c-0.501-1.481-0.885-3.01-1.167-4.548
		c-0.068-0.37,0.356-1.144,0.646-1.194c0.433-0.073,1.137,0.197,1.394,0.557c1.277,1.793,2.871,3.019,5.091,3.356
		c1.841,0.278,3.704-0.478,4.416-1.822c0.717-1.354,0.412-3.146-1.056-4.489c-1.509-1.383-3.213-2.552-4.819-3.827
		c-1.134-0.899-2.324-1.745-3.354-2.754c-1.86-1.828-2.205-4.107-1.319-6.472c0.867-2.312,2.801-3.387,5.183-3.521
		c1.354-0.077,2.729,0.081,4.08,0.24c0.916,0.108,1.762,0.394,2.67-0.182c0.636-0.404,1.191,0.006,1.364,0.702
		c0.348,1.404,0.679,2.817,0.909,4.244c0.053,0.32-0.246,0.852-0.536,1.024c-0.232,0.136-0.771-0.029-1.045-0.235
		c-0.338-0.255-0.529-0.698-0.807-1.043c-1.26-1.574-2.873-2.451-4.915-2.367c-1.018,0.043-1.924,0.439-2.336,1.443
		c-0.404,0.983-0.388,2.015,0.351,2.847c0.607,0.686,1.31,1.306,2.034,1.872c1.809,1.411,3.743,2.677,5.468,4.182
		c2.611,2.281,3.37,5.352,2.282,8.296c-0.993,2.69-3.51,4.267-7.011,4.392c-0.24,0.008-0.483,0.001-0.724,0.001
		C144.97,68.75,144.966,68.773,144.965,68.797z"/>
	<path fill-rule="evenodd" clip-rule="evenodd" fill="#888888" d="M54.983,53.245c1.562,0,2.962,0.005,4.363-0.002
		c0.874-0.005,1.727,0.128,1.692,1.226c-0.03,1-0.835,1.145-1.669,1.135c-1.049-0.012-2.098,0.022-3.146-0.006
		c-0.855-0.024-1.254,0.308-1.246,1.202c0.026,2.66,0.024,5.324,0.003,7.985c-0.008,0.993,0.376,1.538,1.417,1.49
		c0.72-0.031,1.303,0.265,1.124,1.008c-0.089,0.369-0.747,0.842-1.16,0.854c-2.497,0.081-5,0.081-7.498,0.006
		c-0.42-0.013-1.081-0.45-1.185-0.817c-0.207-0.73,0.348-1.064,1.078-1.05c1.185,0.024,1.233-0.838,1.24-1.665
		c0.024-2.943,0.021-5.888,0.021-8.831c0-2.783-0.003-5.565-0.013-8.348c-0.003-1-0.12-1.862-1.497-1.818
		c-0.274,0.009-0.735-0.583-0.793-0.949c-0.04-0.242,0.442-0.636,0.765-0.848c0.206-0.134,0.549-0.073,0.831-0.073
		c4.355-0.005,8.711,0.012,13.066-0.018c0.895-0.007,1.432,0.303,1.699,1.172c0.261,0.844,0.664,1.647,0.878,2.501
		c0.074,0.297-0.138,0.85-0.387,0.99c-0.234,0.133-0.896-0.011-1.015-0.227c-1.171-2.132-3.155-2.081-5.165-2.056
		c-3.761,0.049-3.393-0.195-3.406,3.412C54.98,50.714,54.983,51.91,54.983,53.245z"/>
	<path fill-rule="evenodd" clip-rule="evenodd" fill="#888888" d="M127.515,27.55c0,2.703-0.031,5.405,0.011,8.107
		c0.028,1.848,0.29,2.078,2.121,2.125c1.21,0.03,2.423-0.024,3.63,0.03c1.383,0.062,2.406-0.496,3.182-1.609
		c0.275-0.396,0.539-0.845,0.922-1.103c0.27-0.183,0.788-0.211,1.082-0.071c0.206,0.1,0.385,0.654,0.297,0.907
		c-0.441,1.251-0.916,2.499-1.514,3.68c-0.167,0.329-0.793,0.599-1.212,0.603c-4.878,0.038-9.756,0.04-14.634-0.024
		c-0.396-0.005-1.036-0.516-1.121-0.89c-0.172-0.769,0.506-0.877,1.14-1.056c0.419-0.119,0.843-0.588,1.041-1.005
		c0.19-0.408,0.116-0.95,0.116-1.432c0.008-5.163,0.006-10.326,0.002-15.489c0-0.443-0.052-0.885-0.061-1.328
		c-0.019-0.809-0.351-1.21-1.223-1.327c-0.413-0.056-1.016-0.554-1.088-0.936c-0.147-0.795,0.569-0.968,1.204-0.972
		c2.501-0.017,5.002-0.044,7.5,0.04c0.408,0.014,1.046,0.501,1.146,0.883c0.203,0.775-0.442,1.042-1.121,1.021
		c-1.157-0.036-1.433,0.639-1.431,1.62c0.012,2.743,0.004,5.485,0.004,8.228C127.511,27.55,127.513,27.55,127.515,27.55z"/>
	<path fill-rule="evenodd" clip-rule="evenodd" fill="#888888" d="M76.786,75.222c0.354,0.786,0.608,1.352,0.915,2.036
		c-0.643,0-1.135,0-1.776,0C76.193,76.62,76.435,76.051,76.786,75.222z"/>
</g>
</svg>
