<?xml version="1.0" standalone="no"?>
<!DOCTYPE svg PUBLIC "-//W3C//DTD SVG 20010904//EN"
 "http://www.w3.org/TR/2001/REC-SVG-20010904/DTD/svg10.dtd">
<svg version="1.0" xmlns="http://www.w3.org/2000/svg"
 width="375.000000pt" height="375.000000pt" viewBox="0 0 375.000000 375.000000"
 preserveAspectRatio="xMidYMid meet">
<metadata>
Created by potrace 1.11, written by Peter Selinger 2001-2013
</metadata>
<g transform="translate(0.000000,375.000000) scale(0.100000,-0.100000)"
fill="#000000" stroke="none">
<path d="M770 2863 c-350 -56 -643 -340 -739 -718 -18 -72 -22 -99 -28 -206
-21 -404 195 -790 532 -950 261 -123 578 -122 826 2 164 82 352 275 396 405
27 82 22 126 -26 214 -23 41 -62 114 -88 162 -26 48 -50 84 -54 80 -3 -4 -26
-45 -50 -92 -172 -340 -390 -499 -664 -485 -259 12 -455 178 -537 455 -15 52
-18 76 -23 180 -13 300 154 574 408 668 217 81 460 17 670 -177 113 -104 273
-326 372 -516 167 -319 347 -607 459 -733 88 -99 267 -204 406 -238 104 -26
316 -26 420 0 247 61 461 235 584 476 29 56 100 240 96 248 -1 1 4 35 10 74
20 117 8 333 -24 442 -118 397 -424 669 -794 704 -256 24 -471 -29 -641 -156
-180 -135 -301 -303 -303 -421 -1 -42 8 -65 70 -179 40 -71 78 -140 85 -153
28 -54 28 -54 79 46 145 289 304 436 518 481 312 66 595 -121 686 -451 19 -68
27 -258 14 -325 -48 -251 -186 -434 -389 -514 -82 -32 -218 -47 -291 -32 -14
3 -38 9 -55 12 -147 31 -318 156 -467 341 -113 139 -165 222 -293 468 -68 129
-181 320 -274 459 -201 302 -428 434 -745 433 -67 0 -132 -2 -146 -4z"/>
</g>
</svg>
