<?xml version="1.0" encoding="utf-8"?>
<!-- Generator: Adobe Illustrator 16.0.4, SVG Export Plug-In . SVG Version: 6.00 Build 0)  -->
<!DOCTYPE svg PUBLIC "-//W3C//DTD SVG 1.1//EN" "http://www.w3.org/Graphics/SVG/1.1/DTD/svg11.dtd">
<svg version="1.1" id="Layer_1" xmlns="http://www.w3.org/2000/svg" xmlns:xlink="http://www.w3.org/1999/xlink" x="0px" y="0px"
	 width="250px" height="50px" viewBox="0 0 250 50" enable-background="new 0 0 250 50" xml:space="preserve">
<line fill="#FFFFFF" stroke="#000000" stroke-width="4" stroke-miterlimit="10" x1="182" y1="5" x2="182" y2="25"/>
<line fill="#FFFFFF" stroke="#000000" stroke-width="4" stroke-miterlimit="10" x1="113" y1="5" x2="113" y2="25"/>
<line fill="#FFFFFF" stroke="#000000" stroke-width="4" stroke-miterlimit="10" x1="21" y1="15" x2="21" y2="35"/>
<line fill="#FFFFFF" stroke="#000000" stroke-width="4" stroke-miterlimit="10" x1="22" y1="17" x2="38" y2="17"/>
<line fill="#FFFFFF" stroke="#000000" stroke-width="4" stroke-miterlimit="10" x1="36" y1="15" x2="36" y2="25"/>
<line fill="#FFFFFF" stroke="#000000" stroke-width="4" stroke-miterlimit="10" x1="17" y1="26" x2="38" y2="26"/>
<line fill="#FFFFFF" stroke="#000000" stroke-width="4" stroke-miterlimit="10" x1="19" y1="36" x2="61" y2="36"/>
<line fill="#FFFFFF" stroke="#000000" stroke-width="4" stroke-miterlimit="10" x1="59" y1="15" x2="59" y2="35"/>
<line fill="#FFFFFF" stroke="#000000" stroke-width="4" stroke-miterlimit="10" x1="61" y1="17" x2="45" y2="17"/>
<line fill="#FFFFFF" stroke="#000000" stroke-width="4" stroke-miterlimit="10" x1="44" y1="15" x2="44" y2="25"/>
<line fill="#FFFFFF" stroke="#000000" stroke-width="4" stroke-miterlimit="10" x1="68" y1="26" x2="42" y2="26"/>
<line fill="#FFFFFF" stroke="#000000" stroke-width="4" stroke-miterlimit="10" x1="84" y1="17" x2="68" y2="17"/>
<line fill="#FFFFFF" stroke="#000000" stroke-width="4" stroke-miterlimit="10" x1="67" y1="15" x2="67" y2="25"/>
<line fill="#FFFFFF" stroke="#000000" stroke-width="4" stroke-miterlimit="10" x1="92" y1="26" x2="68" y2="26"/>
<line fill="#FFFFFF" stroke="#000000" stroke-width="4" stroke-miterlimit="10" x1="82" y1="15" x2="82" y2="25"/>
<line fill="#FFFFFF" stroke="#000000" stroke-width="4" stroke-miterlimit="10" x1="90" y1="15" x2="90" y2="25"/>
<line fill="#FFFFFF" stroke="#000000" stroke-width="4" stroke-miterlimit="10" x1="105" y1="15" x2="105" y2="25"/>
<line fill="#FFFFFF" stroke="#000000" stroke-width="4" stroke-miterlimit="10" x1="128" y1="15" x2="128" y2="25"/>
<line fill="#FFFFFF" stroke="#000000" stroke-width="4" stroke-miterlimit="10" x1="107" y1="17" x2="91" y2="17"/>
<line fill="#FFFFFF" stroke="#000000" stroke-width="4" stroke-miterlimit="10" x1="130" y1="17" x2="114" y2="17"/>
<line fill="#FFFFFF" stroke="#000000" stroke-width="4" stroke-miterlimit="10" x1="130" y1="26" x2="114" y2="26"/>
<line fill="#FFFFFF" stroke="#000000" stroke-width="4" stroke-miterlimit="10" x1="114" y1="26" x2="103" y2="26"/>
<line fill="#FFFFFF" stroke="#000000" stroke-width="4" stroke-miterlimit="10" x1="153" y1="17" x2="137" y2="17"/>
<line fill="#FFFFFF" stroke="#000000" stroke-width="4" stroke-miterlimit="10" x1="136" y1="15" x2="136" y2="25"/>
<line fill="#FFFFFF" stroke="#000000" stroke-width="4" stroke-miterlimit="10" x1="161" y1="26" x2="129" y2="26"/>
<line fill="#FFFFFF" stroke="#000000" stroke-width="4" stroke-miterlimit="10" x1="151" y1="15" x2="151" y2="25"/>
<line fill="#FFFFFF" stroke="#000000" stroke-width="4" stroke-miterlimit="10" x1="159" y1="5" x2="159" y2="25"/>
<line fill="#FFFFFF" stroke="#000000" stroke-width="4" stroke-miterlimit="10" x1="174" y1="15" x2="174" y2="25"/>
<line fill="#FFFFFF" stroke="#000000" stroke-width="4" stroke-miterlimit="10" x1="176" y1="17" x2="160" y2="17"/>
<line fill="#FFFFFF" stroke="#000000" stroke-width="4" stroke-miterlimit="10" x1="183" y1="26" x2="172" y2="26"/>
<line fill="#FFFFFF" stroke="#000000" stroke-width="4" stroke-miterlimit="10" x1="187" y1="15" x2="187" y2="35"/>
<line fill="#FFFFFF" stroke="#000000" stroke-width="4" stroke-miterlimit="10" x1="188" y1="17" x2="204" y2="17"/>
<line fill="#FFFFFF" stroke="#000000" stroke-width="4" stroke-miterlimit="10" x1="202" y1="15" x2="202" y2="25"/>
<line fill="#FFFFFF" stroke="#000000" stroke-width="4" stroke-miterlimit="10" x1="183" y1="26" x2="204" y2="26"/>
<line fill="#FFFFFF" stroke="#000000" stroke-width="4" stroke-miterlimit="10" x1="185" y1="36" x2="212" y2="36"/>
<line fill="#FFFFFF" stroke="#000000" stroke-width="4" stroke-miterlimit="10" x1="210" y1="15" x2="210" y2="35"/>
<line fill="#FFFFFF" stroke="#000000" stroke-width="4" stroke-miterlimit="10" x1="227" y1="17" x2="211" y2="17"/>
<g>
	<line fill="#FFFFFF" stroke="#000000" stroke-width="4" stroke-miterlimit="10" x1="101" y1="36" x2="143" y2="36"/>
	<line fill="#FFFFFF" stroke="#000000" stroke-width="4" stroke-miterlimit="10" x1="94" y1="36" x2="97" y2="36"/>
	<line fill="#FFFFFF" stroke="#000000" stroke-width="4" stroke-miterlimit="10" x1="87" y1="36" x2="90" y2="36"/>
	<line fill="#FFFFFF" stroke="#000000" stroke-width="4" stroke-miterlimit="10" x1="154" y1="36" x2="157" y2="36"/>
	<line fill="#FFFFFF" stroke="#000000" stroke-width="4" stroke-miterlimit="10" x1="147" y1="36" x2="150" y2="36"/>
</g>
</svg>
